<svg width="40" height="40" viewBox="0 0 40 40" fill="none" xmlns="http://www.w3.org/2000/svg">
<circle cx="20" cy="20" r="20" fill="#F0F4FF"/>
<path d="M14.2974 26.128C13.1774 26.128 12.164 25.8827 11.2574 25.392C10.3614 24.8907 9.65738 24.208 9.14538 23.344C8.63338 22.4693 8.37738 21.488 8.37738 20.4C8.37738 19.312 8.63338 18.336 9.14538 17.472C9.65738 16.5973 10.3667 15.9147 11.2734 15.424C12.18 14.9227 13.1934 14.672 14.3134 14.672C15.188 14.672 15.988 14.8213 16.7134 15.12C17.4387 15.408 18.0574 15.84 18.5694 16.416L17.5294 17.424C16.6867 16.5387 15.636 16.096 14.3774 16.096C13.5454 16.096 12.7934 16.2827 12.1214 16.656C11.4494 17.0293 10.9214 17.5467 10.5374 18.208C10.164 18.8587 9.97738 19.5893 9.97738 20.4C9.97738 21.2107 10.164 21.9467 10.5374 22.608C10.9214 23.2587 11.4494 23.7707 12.1214 24.144C12.7934 24.5173 13.5454 24.704 14.3774 24.704C15.6254 24.704 16.676 24.256 17.5294 23.36L18.5694 24.368C18.0574 24.944 17.4334 25.3813 16.6974 25.68C15.972 25.9787 15.172 26.128 14.2974 26.128ZM20.8519 14.8H25.5719C26.7559 14.8 27.8065 15.0347 28.7239 15.504C29.6412 15.9733 30.3505 16.6347 30.8519 17.488C31.3639 18.3307 31.6199 19.3013 31.6199 20.4C31.6199 21.4987 31.3639 22.4747 30.8519 23.328C30.3505 24.1707 29.6412 24.8267 28.7239 25.296C27.8065 25.7653 26.7559 26 25.5719 26H20.8519V14.8ZM25.4759 24.608C26.3825 24.608 27.1772 24.432 27.8599 24.08C28.5532 23.728 29.0865 23.2373 29.4599 22.608C29.8332 21.968 30.0199 21.232 30.0199 20.4C30.0199 19.568 29.8332 18.8373 29.4599 18.208C29.0865 17.568 28.5532 17.072 27.8599 16.72C27.1772 16.368 26.3825 16.192 25.4759 16.192H22.4519V24.608H25.4759Z" fill="#004DEB"/>
</svg>
