<svg width="25" height="25" viewBox="0 0 25 25" fill="none" xmlns="http://www.w3.org/2000/svg">
<path d="M20.6887 23.5014C21.6207 23.5014 22.3763 22.7458 22.3763 21.8138C22.3763 20.8818 21.6207 20.1262 20.6887 20.1262C19.7567 20.1262 19.0011 20.8818 19.0011 21.8138C19.0011 22.7458 19.7567 23.5014 20.6887 23.5014Z" fill="white" stroke="white" stroke-width="1.6876" stroke-linecap="round" stroke-linejoin="round"/>
<path d="M9.43803 23.5014C10.37 23.5014 11.1256 22.7458 11.1256 21.8138C11.1256 20.8818 10.37 20.1262 9.43803 20.1262C8.50599 20.1262 7.75043 20.8818 7.75043 21.8138C7.75043 22.7458 8.50599 23.5014 9.43803 23.5014Z" fill="white" stroke="white" stroke-width="1.6876" stroke-linecap="round" stroke-linejoin="round"/>
<path d="M4.3752 3.25013H23.5013L21.2512 15.6259H6.62534L4.3752 3.25013ZM4.3752 3.25013C4.18769 2.50009 3.25013 1 1 1" stroke="white" stroke-width="1.6876" stroke-linecap="round" stroke-linejoin="round"/>
<path d="M21.2512 15.6259H6.62536H4.63486C2.62739 15.6259 1.56256 16.5048 1.56256 17.876C1.56256 19.2472 2.62739 20.1261 4.63486 20.1261H20.6887" stroke="white" stroke-width="1.6876" stroke-linecap="round" stroke-linejoin="round"/>
</svg>
