<svg width="855" height="265" viewBox="0 0 855 265" fill="none" xmlns="http://www.w3.org/2000/svg">
<g filter="url(#filter0_d_185_12492)">
<rect x="10" y="8" width="446" height="203" rx="6" fill="white"/>
</g>
<path d="M37.1921 29.3169H34.8117V27.9458H37.1921C37.5814 27.9458 37.8967 27.8823 38.1379 27.7554C38.3834 27.6242 38.5632 27.4465 38.6775 27.2222C38.7917 26.9937 38.8488 26.7334 38.8488 26.4414C38.8488 26.1579 38.7917 25.8934 38.6775 25.6479C38.5632 25.4025 38.3834 25.2036 38.1379 25.0513C37.8967 24.8989 37.5814 24.8228 37.1921 24.8228H35.383V32.6875H33.6374V23.4453H37.1921C37.9115 23.4453 38.5251 23.5744 39.0329 23.8325C39.545 24.0864 39.9343 24.4398 40.2009 24.8926C40.4717 25.3411 40.6071 25.8532 40.6071 26.4287C40.6071 27.0254 40.4717 27.5396 40.2009 27.9712C39.9343 28.4028 39.545 28.735 39.0329 28.9678C38.5251 29.2005 37.9115 29.3169 37.1921 29.3169ZM41.9782 23.4453H45.3362C46.0386 23.4453 46.6417 23.5511 47.1452 23.7627C47.6488 23.9743 48.036 24.2874 48.3069 24.7021C48.5777 25.1169 48.7131 25.6268 48.7131 26.2319C48.7131 26.7101 48.6285 27.1248 48.4592 27.4761C48.2899 27.8273 48.0508 28.1214 47.7419 28.3584C47.4372 28.5954 47.0775 28.7816 46.6628 28.917L46.1169 29.1963H43.1526L43.1399 27.8188H45.3552C45.7149 27.8188 46.0132 27.7554 46.2502 27.6284C46.4872 27.5015 46.6649 27.3258 46.7834 27.1016C46.9061 26.8773 46.9675 26.6213 46.9675 26.3335C46.9675 26.0246 46.9083 25.758 46.7898 25.5337C46.6713 25.3052 46.4914 25.1296 46.2502 25.0068C46.009 24.8841 45.7043 24.8228 45.3362 24.8228H43.7238V32.6875H41.9782V23.4453ZM47.196 32.6875L45.0569 28.5488L46.904 28.5425L49.0686 32.5986V32.6875H47.196ZM52.1028 23.4453V32.6875H50.3571V23.4453H52.1028ZM54.7497 23.4453H56.2605L58.7868 30.4023L61.3069 23.4453H62.8239L59.3899 32.6875H58.1775L54.7497 23.4453ZM53.988 23.4453H55.467L55.7336 29.8374V32.6875H53.988V23.4453ZM62.1003 23.4453H63.5857V32.6875H61.8401V29.8374L62.1003 23.4453ZM69.1526 24.8481L66.5183 32.6875H64.6711L68.1242 23.4453H69.3049L69.1526 24.8481ZM71.3552 32.6875L68.7082 24.8481L68.5495 23.4453H69.7365L73.2087 32.6875H71.3552ZM71.2346 29.2534V30.6309H66.2771V29.2534H71.2346ZM74.1609 23.4453H77.5188C78.2212 23.4453 78.8243 23.5511 79.3279 23.7627C79.8314 23.9743 80.2186 24.2874 80.4895 24.7021C80.7603 25.1169 80.8957 25.6268 80.8957 26.2319C80.8957 26.7101 80.8111 27.1248 80.6418 27.4761C80.4725 27.8273 80.2334 28.1214 79.9245 28.3584C79.6198 28.5954 79.2601 28.7816 78.8454 28.917L78.2995 29.1963H75.3352L75.3225 27.8188H77.5378C77.8975 27.8188 78.1959 27.7554 78.4328 27.6284C78.6698 27.5015 78.8475 27.3258 78.966 27.1016C79.0888 26.8773 79.1501 26.6213 79.1501 26.3335C79.1501 26.0246 79.0909 25.758 78.9724 25.5337C78.8539 25.3052 78.674 25.1296 78.4328 25.0068C78.1916 24.8841 77.8869 24.8228 77.5188 24.8228H75.9065V32.6875H74.1609V23.4453ZM79.3786 32.6875L77.2395 28.5488L79.0866 28.5425L81.2512 32.5986V32.6875H79.3786ZM83.1999 23.4453L85.2312 27.7554L87.2751 23.4453H89.1921L86.1198 29.3042V32.6875H84.3488V29.3042L81.2702 23.4453H83.1999ZM97.0061 23.4453V32.6875H95.2668V23.4453H97.0061ZM99.8752 23.4453V24.8228H92.4294V23.4453H99.8752ZM107.162 31.3164V32.6875H102.249V31.3164H107.162ZM102.782 23.4453V32.6875H101.037V23.4453H102.782ZM106.521 27.2603V28.5996H102.249V27.2603H106.521ZM107.143 23.4453V24.8228H102.249V23.4453H107.143ZM109.765 23.4453L111.612 26.7397L113.466 23.4453H115.471L112.729 28.0283L115.541 32.6875H113.516L111.612 29.3296L109.714 32.6875H107.683L110.495 28.0283L107.753 23.4453H109.765ZM120.581 23.4453V32.6875H118.842V23.4453H120.581ZM123.45 23.4453V24.8228H116.005V23.4453H123.45Z" fill="#828282"/>
<path d="M35.2365 39.9346L33.924 39.6133L34.4641 34.6094H39.8303V36.0039H35.8313L35.5578 38.4443C35.7128 38.3532 35.927 38.2643 36.2004 38.1777C36.4738 38.0866 36.786 38.041 37.1369 38.041C37.6063 38.041 38.0256 38.1185 38.3947 38.2734C38.7684 38.4238 39.0852 38.6449 39.3449 38.9365C39.6047 39.2236 39.8029 39.5745 39.9397 39.9893C40.0764 40.3994 40.1447 40.862 40.1447 41.377C40.1447 41.8372 40.0764 42.2679 39.9397 42.6689C39.8075 43.07 39.607 43.4232 39.3381 43.7285C39.0692 44.0339 38.7297 44.2731 38.3195 44.4463C37.914 44.6149 37.4332 44.6992 36.8772 44.6992C36.4625 44.6992 36.0637 44.64 35.6809 44.5215C35.3026 44.3984 34.9631 44.2184 34.6623 43.9814C34.3615 43.7399 34.12 43.4437 33.9377 43.0928C33.7554 42.7373 33.6506 42.3294 33.6233 41.8691H35.2365C35.2776 42.1927 35.3664 42.4684 35.5031 42.6963C35.6444 42.9196 35.8313 43.0905 36.0637 43.209C36.2961 43.3275 36.565 43.3867 36.8703 43.3867C37.1483 43.3867 37.3876 43.3389 37.5881 43.2432C37.7886 43.1429 37.955 43.0016 38.0871 42.8193C38.2238 42.6325 38.3241 42.4137 38.3879 42.1631C38.4563 41.9124 38.4904 41.6344 38.4904 41.3291C38.4904 41.0374 38.4517 40.7708 38.3742 40.5293C38.3013 40.2878 38.1897 40.0781 38.0393 39.9004C37.8934 39.7227 37.7089 39.5859 37.4856 39.4902C37.2623 39.39 37.0048 39.3398 36.7131 39.3398C36.3212 39.3398 36.0204 39.3968 35.8108 39.5107C35.6057 39.6247 35.4143 39.766 35.2365 39.9346ZM41.1031 43.7422C41.1031 43.487 41.1897 43.2728 41.3629 43.0996C41.5361 42.9219 41.7708 42.833 42.067 42.833C42.3678 42.833 42.6025 42.9219 42.7711 43.0996C42.9443 43.2728 43.0309 43.487 43.0309 43.7422C43.0309 43.9974 42.9443 44.2116 42.7711 44.3848C42.6025 44.5579 42.3678 44.6445 42.067 44.6445C41.7708 44.6445 41.5361 44.5579 41.3629 44.3848C41.1897 44.2116 41.1031 43.9974 41.1031 43.7422ZM45.6367 43.2637H45.7735C46.4024 43.2637 46.9265 43.1816 47.3457 43.0176C47.7695 42.849 48.1068 42.6165 48.3574 42.3203C48.6081 42.0241 48.7881 41.6755 48.8975 41.2744C49.0069 40.8734 49.0615 40.4382 49.0615 39.9688V38.2529C49.0615 37.8473 49.0182 37.4919 48.9317 37.1865C48.8496 36.8766 48.7311 36.6191 48.5762 36.4141C48.4258 36.2044 48.2503 36.0472 48.0498 35.9424C47.8539 35.8376 47.6419 35.7852 47.4141 35.7852C47.1634 35.7852 46.9378 35.8421 46.7373 35.9561C46.5414 36.0654 46.375 36.2181 46.2383 36.4141C46.1061 36.6055 46.0036 36.8311 45.9307 37.0908C45.8623 37.346 45.8281 37.6195 45.8281 37.9111C45.8281 38.1846 45.86 38.4489 45.9238 38.7041C45.9922 38.9548 46.0925 39.1781 46.2246 39.374C46.3568 39.57 46.5231 39.7249 46.7237 39.8389C46.9242 39.9528 47.1589 40.0098 47.4278 40.0098C47.683 40.0098 47.9177 39.9619 48.1319 39.8662C48.346 39.766 48.5329 39.6315 48.6924 39.4629C48.8519 39.2943 48.9772 39.1051 49.0684 38.8955C49.1595 38.6859 49.2097 38.4717 49.2188 38.2529L49.8477 38.4443C49.8477 38.7907 49.7748 39.1325 49.6289 39.4697C49.4876 39.8024 49.2894 40.1077 49.0342 40.3857C48.7835 40.6592 48.4896 40.8779 48.1524 41.042C47.8197 41.2061 47.4574 41.2881 47.0654 41.2881C46.5915 41.2881 46.1722 41.1992 45.8076 41.0215C45.4476 40.8392 45.1468 40.5931 44.9053 40.2832C44.6683 39.9733 44.4906 39.6178 44.3721 39.2168C44.2536 38.8158 44.1944 38.3942 44.1944 37.9521C44.1944 37.4736 44.2673 37.0247 44.4131 36.6055C44.5589 36.1862 44.7709 35.8171 45.0488 35.498C45.3268 35.1745 45.6641 34.9238 46.0606 34.7461C46.4616 34.5638 46.9151 34.4727 47.4209 34.4727C47.9587 34.4727 48.4304 34.5775 48.836 34.7871C49.2416 34.9967 49.5834 35.2861 49.8613 35.6553C50.1393 36.0244 50.349 36.4528 50.4903 36.9404C50.6315 37.4281 50.7022 37.9521 50.7022 38.5127V39.0938C50.7022 39.6816 50.6498 40.249 50.5449 40.7959C50.4401 41.3382 50.2692 41.8418 50.0322 42.3066C49.7998 42.7669 49.4922 43.1725 49.1094 43.5234C48.7311 43.8698 48.2663 44.141 47.7149 44.3369C47.168 44.5283 46.5254 44.624 45.7871 44.624H45.6367V43.2637ZM58.2504 41.8486C58.2504 42.4684 58.1069 42.9902 57.8197 43.4141C57.5326 43.8379 57.1407 44.1592 56.644 44.3779C56.1518 44.5921 55.5958 44.6992 54.976 44.6992C54.3562 44.6992 53.7979 44.5921 53.3012 44.3779C52.8044 44.1592 52.4125 43.8379 52.1254 43.4141C51.8383 42.9902 51.6947 42.4684 51.6947 41.8486C51.6947 41.4385 51.7745 41.0671 51.934 40.7344C52.0935 40.3971 52.3191 40.1077 52.6108 39.8662C52.907 39.6201 53.2533 39.431 53.6498 39.2988C54.0509 39.1667 54.4884 39.1006 54.9623 39.1006C55.5912 39.1006 56.1541 39.2168 56.6508 39.4492C57.1475 39.6816 57.5372 40.0029 57.8197 40.4131C58.1069 40.8232 58.2504 41.3018 58.2504 41.8486ZM56.5961 41.7666C56.5961 41.4339 56.5278 41.1423 56.391 40.8916C56.2543 40.641 56.0629 40.4473 55.8168 40.3105C55.5707 40.1738 55.2859 40.1055 54.9623 40.1055C54.6342 40.1055 54.3494 40.1738 54.1078 40.3105C53.8663 40.4473 53.6772 40.641 53.5404 40.8916C53.4083 41.1423 53.3422 41.4339 53.3422 41.7666C53.3422 42.1038 53.4083 42.3955 53.5404 42.6416C53.6726 42.8831 53.8617 43.0677 54.1078 43.1953C54.3539 43.3229 54.6433 43.3867 54.976 43.3867C55.3087 43.3867 55.5958 43.3229 55.8373 43.1953C56.0789 43.0677 56.2657 42.8831 56.3979 42.6416C56.53 42.3955 56.5961 42.1038 56.5961 41.7666ZM58.0248 37.2275C58.0248 37.7243 57.8927 38.1663 57.6283 38.5537C57.3686 38.9411 57.0085 39.2464 56.5483 39.4697C56.088 39.6885 55.5639 39.7979 54.976 39.7979C54.3835 39.7979 53.8549 39.6885 53.3901 39.4697C52.9298 39.2464 52.5675 38.9411 52.3031 38.5537C52.0434 38.1663 51.9135 37.7243 51.9135 37.2275C51.9135 36.6351 52.0434 36.1361 52.3031 35.7305C52.5675 35.3203 52.9298 35.0081 53.3901 34.7939C53.8503 34.5798 54.3767 34.4727 54.9692 34.4727C55.5616 34.4727 56.088 34.5798 56.5483 34.7939C57.0085 35.0081 57.3686 35.3203 57.6283 35.7305C57.8927 36.1361 58.0248 36.6351 58.0248 37.2275ZM56.3774 37.2822C56.3774 36.986 56.3181 36.7262 56.1996 36.5029C56.0857 36.2751 55.9239 36.0973 55.7143 35.9697C55.5046 35.8421 55.2563 35.7783 54.9692 35.7783C54.682 35.7783 54.4337 35.8398 54.224 35.9629C54.0144 36.0859 53.8526 36.2591 53.7387 36.4824C53.6248 36.7057 53.5678 36.9723 53.5678 37.2822C53.5678 37.5876 53.6248 37.8542 53.7387 38.082C53.8526 38.3053 54.0144 38.4808 54.224 38.6084C54.4382 38.736 54.6889 38.7998 54.976 38.7998C55.2631 38.7998 55.5115 38.736 55.7211 38.6084C55.9307 38.4808 56.0925 38.3053 56.2065 38.082C56.3204 37.8542 56.3774 37.5876 56.3774 37.2822ZM65.785 34.6094V35.5117L61.8065 44.5625H60.0701L64.0418 35.9219H58.8875V34.6094H65.785ZM68.2473 42.9766L68.2404 44.1523C68.2404 44.6172 68.1242 45.0957 67.8918 45.5879C67.6594 46.0801 67.3518 46.4857 66.969 46.8047L66.0871 46.292C66.2147 46.0869 66.3309 45.8796 66.4358 45.6699C66.5406 45.4603 66.6249 45.237 66.6887 45C66.7525 44.763 66.7844 44.501 66.7844 44.2139V42.9766H68.2473ZM71.1471 38.8408H72.1315C72.5143 38.8408 72.831 38.7747 73.0817 38.6426C73.3369 38.5104 73.526 38.3281 73.649 38.0957C73.7721 37.8633 73.8336 37.5967 73.8336 37.2959C73.8336 36.9814 73.7766 36.7126 73.6627 36.4893C73.5533 36.2614 73.3847 36.0859 73.1569 35.9629C72.9335 35.8398 72.6487 35.7783 72.3024 35.7783C72.0107 35.7783 71.7464 35.8376 71.5094 35.9561C71.277 36.07 71.0924 36.234 70.9557 36.4482C70.819 36.6579 70.7506 36.9085 70.7506 37.2002H69.0963C69.0963 36.6715 69.2353 36.2021 69.5133 35.792C69.7913 35.3818 70.1695 35.0605 70.6481 34.8281C71.1311 34.5911 71.6735 34.4727 72.275 34.4727C72.9176 34.4727 73.4781 34.5798 73.9567 34.7939C74.4397 35.0036 74.8157 35.318 75.0846 35.7373C75.3535 36.1566 75.4879 36.6761 75.4879 37.2959C75.4879 37.5785 75.4218 37.8656 75.2897 38.1572C75.1575 38.4489 74.9615 38.7155 74.7018 38.957C74.442 39.194 74.1184 39.3877 73.7311 39.5381C73.3437 39.6839 72.8948 39.7568 72.3844 39.7568H71.1471V38.8408ZM71.1471 40.126V39.2236H72.3844C72.9677 39.2236 73.4645 39.292 73.8746 39.4287C74.2893 39.5654 74.6266 39.7546 74.8863 39.9961C75.1461 40.2331 75.3352 40.5042 75.4537 40.8096C75.5768 41.1149 75.6383 41.4385 75.6383 41.7803C75.6383 42.2451 75.554 42.6598 75.3854 43.0244C75.2213 43.3844 74.9866 43.6898 74.6813 43.9404C74.3759 44.1911 74.0182 44.3802 73.608 44.5078C73.2024 44.6354 72.7604 44.6992 72.2819 44.6992C71.8535 44.6992 71.4433 44.64 71.0514 44.5215C70.6595 44.403 70.3085 44.2275 69.9986 43.9951C69.6888 43.7581 69.4427 43.4642 69.2604 43.1133C69.0826 42.7578 68.9938 42.3477 68.9938 41.8828H70.6412C70.6412 42.179 70.7096 42.4411 70.8463 42.6689C70.9876 42.8923 71.1835 43.0677 71.4342 43.1953C71.6894 43.3229 71.9811 43.3867 72.3092 43.3867C72.6556 43.3867 72.9541 43.3252 73.2047 43.2021C73.4554 43.0791 73.6468 42.8968 73.7789 42.6553C73.9156 42.4137 73.984 42.1221 73.984 41.7803C73.984 41.3929 73.9088 41.0785 73.7584 40.8369C73.608 40.5954 73.3938 40.4176 73.1158 40.3037C72.8378 40.1852 72.5097 40.126 72.1315 40.126H71.1471ZM83.2549 34.6094V35.5117L79.2764 44.5625H77.5401L81.5117 35.9219H76.3574V34.6094H83.2549Z" fill="#0B1354"/>
<path d="M39.2151 64.7031C39.2151 64.4707 39.1786 64.2656 39.1057 64.0879C39.0373 63.9056 38.9143 63.7415 38.7365 63.5957C38.5634 63.4499 38.3218 63.3109 38.0119 63.1787C37.7066 63.0465 37.3192 62.9121 36.8498 62.7754C36.3576 62.6296 35.9133 62.4678 35.5168 62.29C35.1203 62.1077 34.7808 61.9004 34.4983 61.668C34.2157 61.4355 33.9992 61.1689 33.8488 60.8682C33.6985 60.5674 33.6233 60.2233 33.6233 59.8359C33.6233 59.4486 33.703 59.0908 33.8625 58.7627C34.022 58.4346 34.2499 58.1497 34.5461 57.9082C34.8469 57.6621 35.2046 57.4707 35.6194 57.334C36.0341 57.1973 36.4966 57.1289 37.007 57.1289C37.7544 57.1289 38.3879 57.2725 38.9074 57.5596C39.4315 57.8421 39.8303 58.2135 40.1037 58.6738C40.3772 59.1296 40.5139 59.6172 40.5139 60.1367H39.2014C39.2014 59.763 39.1216 59.4326 38.9621 59.1455C38.8026 58.8538 38.5611 58.626 38.2375 58.4619C37.914 58.2933 37.5038 58.209 37.007 58.209C36.5376 58.209 36.1503 58.2796 35.8449 58.4209C35.5396 58.5622 35.3117 58.7536 35.1613 58.9951C35.0155 59.2367 34.9426 59.5124 34.9426 59.8223C34.9426 60.0319 34.9859 60.2233 35.0725 60.3965C35.1636 60.5651 35.3026 60.7223 35.4895 60.8682C35.6809 61.014 35.9224 61.1484 36.2141 61.2715C36.5103 61.3945 36.8635 61.513 37.2737 61.627C37.8388 61.7865 38.3264 61.9642 38.7365 62.1602C39.1467 62.3561 39.4839 62.5771 39.7483 62.8232C40.0171 63.0648 40.2154 63.3405 40.343 63.6504C40.4751 63.9557 40.5412 64.3021 40.5412 64.6895C40.5412 65.0951 40.4592 65.4619 40.2951 65.79C40.1311 66.1182 39.8964 66.3984 39.591 66.6309C39.2857 66.8633 38.9188 67.0433 38.4904 67.1709C38.0666 67.2939 37.5927 67.3555 37.0686 67.3555C36.6083 67.3555 36.1548 67.2917 35.7082 67.1641C35.2662 67.0365 34.8628 66.8451 34.4983 66.5898C34.1382 66.3346 33.8488 66.0202 33.6301 65.6465C33.4159 65.2682 33.3088 64.8307 33.3088 64.334H34.6213C34.6213 64.6758 34.6874 64.9697 34.8195 65.2158C34.9517 65.4574 35.1317 65.6579 35.3596 65.8174C35.592 65.9769 35.8541 66.0954 36.1457 66.1729C36.4419 66.2458 36.7496 66.2822 37.0686 66.2822C37.5289 66.2822 37.9185 66.2184 38.2375 66.0908C38.5565 65.9632 38.7981 65.7809 38.9621 65.5439C39.1307 65.307 39.2151 65.0267 39.2151 64.7031ZM45.1008 67.3555C44.5858 67.3555 44.1187 67.2689 43.6994 67.0957C43.2847 66.918 42.927 66.6696 42.6262 66.3506C42.33 66.0316 42.1021 65.6533 41.9426 65.2158C41.7831 64.7783 41.7033 64.2998 41.7033 63.7803V63.4932C41.7033 62.8916 41.7922 62.3561 41.9699 61.8867C42.1477 61.4128 42.3892 61.0117 42.6945 60.6836C42.9999 60.3555 43.3462 60.1071 43.7336 59.9385C44.121 59.7699 44.522 59.6855 44.9367 59.6855C45.4654 59.6855 45.9211 59.7767 46.3039 59.959C46.6913 60.1413 47.008 60.3965 47.2541 60.7246C47.5002 61.0482 47.6825 61.431 47.801 61.873C47.9195 62.3105 47.9787 62.7891 47.9787 63.3086V63.876H42.4553V62.8438H46.7141V62.748C46.6959 62.4199 46.6275 62.1009 46.509 61.791C46.3951 61.4811 46.2128 61.2259 45.9621 61.0254C45.7115 60.8249 45.3697 60.7246 44.9367 60.7246C44.6496 60.7246 44.3853 60.7861 44.1438 60.9092C43.9022 61.0277 43.6949 61.2054 43.5217 61.4424C43.3485 61.6794 43.2141 61.9688 43.1184 62.3105C43.0227 62.6523 42.9748 63.0465 42.9748 63.4932V63.7803C42.9748 64.1312 43.0227 64.4616 43.1184 64.7715C43.2186 65.0768 43.3622 65.3457 43.549 65.5781C43.7404 65.8105 43.9706 65.9928 44.2395 66.125C44.5129 66.2572 44.8228 66.3232 45.1692 66.3232C45.6158 66.3232 45.994 66.2321 46.3039 66.0498C46.6138 65.8675 46.885 65.6237 47.1174 65.3184L47.883 65.9268C47.7235 66.1683 47.5207 66.3984 47.2746 66.6172C47.0285 66.8359 46.7255 67.0137 46.3654 67.1504C46.01 67.2871 45.5884 67.3555 45.1008 67.3555ZM52.4153 66.3164C52.716 66.3164 52.994 66.2549 53.2492 66.1318C53.5044 66.0088 53.7141 65.8402 53.8781 65.626C54.0422 65.4072 54.1356 65.1589 54.1584 64.8809H55.3615C55.3388 65.3184 55.1906 65.7262 54.9172 66.1045C54.6483 66.4782 54.2951 66.7812 53.8576 67.0137C53.4201 67.2415 52.9393 67.3555 52.4153 67.3555C51.8593 67.3555 51.3739 67.2575 50.9592 67.0615C50.549 66.8656 50.2072 66.5967 49.9338 66.2549C49.6649 65.9131 49.4621 65.5212 49.3254 65.0791C49.1932 64.6325 49.1272 64.1608 49.1272 63.6641V63.377C49.1272 62.8802 49.1932 62.4108 49.3254 61.9688C49.4621 61.5221 49.6649 61.1279 49.9338 60.7861C50.2072 60.4443 50.549 60.1755 50.9592 59.9795C51.3739 59.7835 51.8593 59.6855 52.4153 59.6855C52.994 59.6855 53.4999 59.804 53.9328 60.041C54.3658 60.2734 54.7053 60.5924 54.9514 60.998C55.202 61.3991 55.3388 61.8548 55.3615 62.3652H54.1584C54.1356 62.0599 54.049 61.7842 53.8987 61.5381C53.7528 61.292 53.5523 61.096 53.2971 60.9502C53.0464 60.7998 52.7525 60.7246 52.4153 60.7246C52.0279 60.7246 51.702 60.8021 51.4377 60.957C51.1779 61.1074 50.9706 61.3125 50.8156 61.5723C50.6653 61.8275 50.5559 62.1123 50.4875 62.4268C50.4237 62.7367 50.3918 63.0534 50.3918 63.377V63.6641C50.3918 63.9876 50.4237 64.3066 50.4875 64.6211C50.5513 64.9355 50.6584 65.2204 50.8088 65.4756C50.9638 65.7308 51.1711 65.9359 51.4309 66.0908C51.6952 66.2412 52.0233 66.3164 52.4153 66.3164ZM56.4485 63.6025V63.4453C56.4485 62.9121 56.5259 62.4176 56.6809 61.9619C56.8358 61.5016 57.0591 61.1029 57.3508 60.7656C57.6425 60.4238 57.9957 60.1595 58.4104 59.9727C58.8251 59.7812 59.2899 59.6855 59.8049 59.6855C60.3244 59.6855 60.7916 59.7812 61.2063 59.9727C61.6255 60.1595 61.981 60.4238 62.2727 60.7656C62.5689 61.1029 62.7945 61.5016 62.9494 61.9619C63.1044 62.4176 63.1819 62.9121 63.1819 63.4453V63.6025C63.1819 64.1357 63.1044 64.6302 62.9494 65.0859C62.7945 65.5417 62.5689 65.9404 62.2727 66.2822C61.981 66.6195 61.6278 66.8838 61.2131 67.0752C60.8029 67.262 60.3381 67.3555 59.8186 67.3555C59.299 67.3555 58.8319 67.262 58.4172 67.0752C58.0025 66.8838 57.647 66.6195 57.3508 66.2822C57.0591 65.9404 56.8358 65.5417 56.6809 65.0859C56.5259 64.6302 56.4485 64.1357 56.4485 63.6025ZM57.7131 63.4453V63.6025C57.7131 63.9717 57.7564 64.3203 57.843 64.6484C57.9296 64.972 58.0595 65.2591 58.2326 65.5098C58.4104 65.7604 58.6314 65.9587 58.8957 66.1045C59.16 66.2458 59.4677 66.3164 59.8186 66.3164C60.1649 66.3164 60.468 66.2458 60.7278 66.1045C60.9921 65.9587 61.2108 65.7604 61.384 65.5098C61.5572 65.2591 61.6871 64.972 61.7737 64.6484C61.8648 64.3203 61.9104 63.9717 61.9104 63.6025V63.4453C61.9104 63.0807 61.8648 62.7367 61.7737 62.4131C61.6871 62.085 61.5549 61.7956 61.3772 61.5449C61.204 61.2897 60.9852 61.0892 60.7209 60.9434C60.4612 60.7975 60.1558 60.7246 59.8049 60.7246C59.4585 60.7246 59.1532 60.7975 58.8889 60.9434C58.6291 61.0892 58.4104 61.2897 58.2326 61.5449C58.0595 61.7956 57.9296 62.085 57.843 62.4131C57.7564 62.7367 57.7131 63.0807 57.7131 63.4453ZM66.0324 61.4014V67.2188H64.7678V59.8223H65.9641L66.0324 61.4014ZM65.7317 63.2402L65.2053 63.2197C65.2098 62.7139 65.285 62.2467 65.4309 61.8184C65.5767 61.3854 65.7818 61.0094 66.0461 60.6904C66.3104 60.3714 66.6249 60.1253 66.9895 59.9521C67.3586 59.7744 67.7665 59.6855 68.2131 59.6855C68.5777 59.6855 68.9058 59.7357 69.1975 59.8359C69.4891 59.9316 69.7375 60.0866 69.9426 60.3008C70.1522 60.515 70.3117 60.793 70.4211 61.1348C70.5305 61.472 70.5852 61.8844 70.5852 62.3721V67.2188H69.3137V62.3584C69.3137 61.971 69.2567 61.6611 69.1428 61.4287C69.0289 61.1917 68.8625 61.0208 68.6438 60.916C68.425 60.8066 68.1561 60.752 67.8371 60.752C67.5227 60.752 67.2356 60.818 66.9758 60.9502C66.7206 61.0824 66.4996 61.2646 66.3127 61.4971C66.1304 61.7295 65.9869 61.9961 65.882 62.2969C65.7818 62.5931 65.7317 62.9076 65.7317 63.2402ZM77.1682 65.7832V56.7188H78.4397V67.2188H77.2776L77.1682 65.7832ZM72.1916 63.6025V63.459C72.1916 62.8939 72.26 62.3812 72.3967 61.9209C72.538 61.4561 72.7362 61.0573 72.9914 60.7246C73.2512 60.3919 73.5588 60.1367 73.9143 59.959C74.2743 59.7767 74.6753 59.6855 75.1174 59.6855C75.5822 59.6855 75.9878 59.7676 76.3342 59.9316C76.6851 60.0911 76.9813 60.3258 77.2229 60.6357C77.469 60.9411 77.6626 61.3102 77.8039 61.7432C77.9452 62.1761 78.0432 62.666 78.0979 63.2129V63.8418C78.0477 64.3841 77.9498 64.8717 77.8039 65.3047C77.6626 65.7376 77.469 66.1068 77.2229 66.4121C76.9813 66.7174 76.6851 66.9521 76.3342 67.1162C75.9833 67.2757 75.5731 67.3555 75.1037 67.3555C74.6708 67.3555 74.2743 67.262 73.9143 67.0752C73.5588 66.8883 73.2512 66.6263 72.9914 66.2891C72.7362 65.9518 72.538 65.5553 72.3967 65.0996C72.26 64.6393 72.1916 64.1403 72.1916 63.6025ZM73.4631 63.459V63.6025C73.4631 63.9717 73.4996 64.318 73.5725 64.6416C73.65 64.9652 73.7684 65.25 73.9279 65.4961C74.0875 65.7422 74.2903 65.9359 74.5363 66.0771C74.7824 66.2139 75.0764 66.2822 75.4182 66.2822C75.8375 66.2822 76.1815 66.1934 76.4504 66.0156C76.7238 65.8379 76.9426 65.6032 77.1067 65.3115C77.2707 65.0199 77.3983 64.7031 77.4895 64.3613V62.7139C77.4348 62.4632 77.355 62.2217 77.2502 61.9893C77.15 61.7523 77.0178 61.5426 76.8537 61.3604C76.6942 61.1735 76.496 61.0254 76.259 60.916C76.0266 60.8066 75.7509 60.752 75.4319 60.752C75.0855 60.752 74.787 60.8249 74.5363 60.9707C74.2903 61.112 74.0875 61.3079 73.9279 61.5586C73.7684 61.8047 73.65 62.0918 73.5725 62.4199C73.4996 62.7435 73.4631 63.0898 73.4631 63.459ZM84.7697 65.9541V62.1465C84.7697 61.8548 84.7105 61.6019 84.592 61.3877C84.4781 61.1689 84.3049 61.0003 84.0725 60.8818C83.8401 60.7633 83.5529 60.7041 83.2112 60.7041C82.8921 60.7041 82.6119 60.7588 82.3703 60.8682C82.1334 60.9775 81.9465 61.1211 81.8098 61.2988C81.6776 61.4766 81.6115 61.668 81.6115 61.873H80.3469C80.3469 61.6087 80.4153 61.3467 80.552 61.0869C80.6887 60.8271 80.8847 60.5924 81.1399 60.3828C81.3996 60.1686 81.7095 60 82.0695 59.877C82.4341 59.7493 82.8397 59.6855 83.2863 59.6855C83.8241 59.6855 84.2981 59.7767 84.7082 59.959C85.1229 60.1413 85.4465 60.417 85.6789 60.7861C85.9159 61.1507 86.0344 61.6087 86.0344 62.1602V65.6055C86.0344 65.8516 86.0549 66.1136 86.0959 66.3916C86.1415 66.6696 86.2076 66.9089 86.2942 67.1094V67.2188H84.9748C84.911 67.0729 84.8609 66.8792 84.8244 66.6377C84.788 66.3916 84.7697 66.1637 84.7697 65.9541ZM84.9885 62.7344L85.0022 63.623H83.7238C83.3638 63.623 83.0425 63.6527 82.76 63.7119C82.4774 63.7666 82.2404 63.8509 82.049 63.9648C81.8576 64.0788 81.7118 64.2223 81.6115 64.3955C81.5113 64.5641 81.4612 64.7624 81.4612 64.9902C81.4612 65.2227 81.5136 65.4346 81.6184 65.626C81.7232 65.8174 81.8804 65.9701 82.0901 66.084C82.3043 66.1934 82.5663 66.248 82.8762 66.248C83.2636 66.248 83.6054 66.166 83.9016 66.002C84.1978 65.8379 84.4325 65.6374 84.6057 65.4004C84.7834 65.1634 84.8791 64.9333 84.8928 64.71L85.4328 65.3184C85.4009 65.5098 85.3143 65.7217 85.1731 65.9541C85.0318 66.1865 84.8427 66.4098 84.6057 66.624C84.3733 66.8337 84.0953 67.0091 83.7717 67.1504C83.4527 67.2871 83.0927 67.3555 82.6916 67.3555C82.1903 67.3555 81.7505 67.2575 81.3723 67.0615C80.9986 66.8656 80.7069 66.6035 80.4973 66.2754C80.2922 65.9427 80.1897 65.5713 80.1897 65.1611C80.1897 64.7646 80.2671 64.416 80.4221 64.1152C80.577 63.8099 80.8003 63.557 81.092 63.3564C81.3837 63.1514 81.7346 62.9964 82.1447 62.8916C82.5549 62.7868 83.0129 62.7344 83.5188 62.7344H84.9885ZM89.2883 60.9844V67.2188H88.0237V59.8223H89.2541L89.2883 60.9844ZM91.5988 59.7812L91.592 60.957C91.4872 60.9342 91.3869 60.9206 91.2912 60.916C91.2001 60.9069 91.0953 60.9023 90.9768 60.9023C90.6851 60.9023 90.4276 60.9479 90.2043 61.0391C89.981 61.1302 89.7919 61.2578 89.6369 61.4219C89.482 61.5859 89.3589 61.7819 89.2678 62.0098C89.1812 62.2331 89.1242 62.4792 89.0969 62.748L88.7414 62.9531C88.7414 62.5065 88.7847 62.0872 88.8713 61.6953C88.9625 61.3034 89.1015 60.957 89.2883 60.6562C89.4751 60.3509 89.7121 60.1139 89.9992 59.9453C90.2909 59.7721 90.6373 59.6855 91.0383 59.6855C91.1294 59.6855 91.2343 59.6969 91.3528 59.7197C91.4712 59.738 91.5533 59.7585 91.5988 59.7812ZM94.969 66.4531L97.0266 59.8223H98.3801L95.4133 68.3604C95.3449 68.5426 95.2538 68.7386 95.1399 68.9482C95.0305 69.1624 94.8892 69.3652 94.716 69.5566C94.5429 69.748 94.3332 69.903 94.0871 70.0215C93.8456 70.1445 93.5562 70.2061 93.219 70.2061C93.1187 70.2061 92.9911 70.1924 92.8362 70.165C92.6812 70.1377 92.5718 70.1149 92.508 70.0967L92.5012 69.0713C92.5376 69.0758 92.5946 69.0804 92.6721 69.085C92.7541 69.0941 92.8111 69.0986 92.843 69.0986C93.1301 69.0986 93.3739 69.0599 93.5744 68.9824C93.775 68.9095 93.9436 68.7842 94.0803 68.6064C94.2216 68.4333 94.3423 68.194 94.4426 67.8887L94.969 66.4531ZM93.4582 59.8223L95.3791 65.5645L95.7072 66.8975L94.7981 67.3623L92.0774 59.8223H93.4582ZM106.091 59.8223V60.793H102.092V59.8223H106.091ZM103.446 58.0244H104.71V65.3867C104.71 65.6374 104.749 65.8265 104.826 65.9541C104.904 66.0817 105.004 66.166 105.127 66.207C105.25 66.248 105.382 66.2686 105.524 66.2686C105.628 66.2686 105.738 66.2594 105.852 66.2412C105.97 66.2184 106.059 66.2002 106.118 66.1865L106.125 67.2188C106.025 67.2507 105.893 67.2803 105.729 67.3076C105.569 67.3395 105.376 67.3555 105.148 67.3555C104.838 67.3555 104.553 67.2939 104.293 67.1709C104.033 67.0479 103.826 66.8428 103.671 66.5557C103.521 66.264 103.446 65.8721 103.446 65.3799V58.0244ZM110.644 67.3555C110.129 67.3555 109.662 67.2689 109.242 67.0957C108.828 66.918 108.47 66.6696 108.169 66.3506C107.873 66.0316 107.645 65.6533 107.486 65.2158C107.326 64.7783 107.246 64.2998 107.246 63.7803V63.4932C107.246 62.8916 107.335 62.3561 107.513 61.8867C107.691 61.4128 107.932 61.0117 108.238 60.6836C108.543 60.3555 108.889 60.1071 109.277 59.9385C109.664 59.7699 110.065 59.6855 110.48 59.6855C111.008 59.6855 111.464 59.7767 111.847 59.959C112.234 60.1413 112.551 60.3965 112.797 60.7246C113.043 61.0482 113.225 61.431 113.344 61.873C113.462 62.3105 113.522 62.7891 113.522 63.3086V63.876H107.998V62.8438H112.257V62.748C112.239 62.4199 112.17 62.1009 112.052 61.791C111.938 61.4811 111.756 61.2259 111.505 61.0254C111.254 60.8249 110.913 60.7246 110.48 60.7246C110.193 60.7246 109.928 60.7861 109.687 60.9092C109.445 61.0277 109.238 61.2054 109.065 61.4424C108.891 61.6794 108.757 61.9688 108.661 62.3105C108.566 62.6523 108.518 63.0465 108.518 63.4932V63.7803C108.518 64.1312 108.566 64.4616 108.661 64.7715C108.762 65.0768 108.905 65.3457 109.092 65.5781C109.283 65.8105 109.514 65.9928 109.782 66.125C110.056 66.2572 110.366 66.3232 110.712 66.3232C111.159 66.3232 111.537 66.2321 111.847 66.0498C112.157 65.8675 112.428 65.6237 112.66 65.3184L113.426 65.9268C113.266 66.1683 113.064 66.3984 112.818 66.6172C112.572 66.8359 112.268 67.0137 111.908 67.1504C111.553 67.2871 111.131 67.3555 110.644 67.3555ZM115.853 59.8223L117.473 62.5156L119.113 59.8223H120.597L118.177 63.4727L120.672 67.2188H119.209L117.5 64.4434L115.791 67.2188H114.322L116.81 63.4727L114.397 59.8223H115.853ZM125.04 59.8223V60.793H121.041V59.8223H125.04ZM122.395 58.0244H123.659V65.3867C123.659 65.6374 123.698 65.8265 123.776 65.9541C123.853 66.0817 123.953 66.166 124.076 66.207C124.199 66.248 124.332 66.2686 124.473 66.2686C124.578 66.2686 124.687 66.2594 124.801 66.2412C124.919 66.2184 125.008 66.2002 125.068 66.1865L125.074 67.2188C124.974 67.2507 124.842 67.2803 124.678 67.3076C124.518 67.3395 124.325 67.3555 124.097 67.3555C123.787 67.3555 123.502 67.2939 123.242 67.1709C122.983 67.0479 122.775 66.8428 122.62 66.5557C122.47 66.264 122.395 65.8721 122.395 65.3799V58.0244Z" fill="#4F4F4F"/>
<ellipse cx="431.222" cy="26.125" rx="6.06802" ry="5.4375" fill="#BDBDBD"/>
<rect x="430.211" y="24.9166" width="2.02267" height="4.83333" rx="1.01134" fill="white"/>
<rect x="430.211" y="22.5" width="2.02267" height="1.8125" rx="0.906248" fill="white"/>
<rect x="46.9082" y="87.3438" width="389.882" height="74.6719" stroke="#ECECEC"/>
<path d="M46.4082 111.766H437.29" stroke="#ECECEC"/>
<path d="M46.4082 99.5312H437.29" stroke="#ECECEC"/>
<path d="M46.4082 124H437.29" stroke="#ECECEC"/>
<path d="M46.4082 136.234H437.29" stroke="#ECECEC"/>
<path d="M46.4082 148.469H437.29" stroke="#ECECEC"/>
<path d="M112.145 86.8438L112.145 162.516" stroke="#ECECEC"/>
<path d="M176.871 86.8438L176.871 162.516" stroke="#ECECEC"/>
<path d="M241.091 86.8438L241.091 162.516" stroke="#ECECEC"/>
<path d="M305.816 86.8438L305.816 162.516" stroke="#ECECEC"/>
<path d="M370.542 86.8438L370.542 162.516" stroke="#ECECEC"/>
<path d="M31.1186 137.964V138.902H27.3004V137.964H31.1186ZM32.4609 142.797V142.03L35.3416 138.876C35.6797 138.507 35.9581 138.186 36.1768 137.913C36.3956 137.638 36.5575 137.379 36.6626 137.138C36.7706 136.893 36.8245 136.638 36.8245 136.371C36.8245 136.064 36.7507 135.798 36.603 135.574C36.4581 135.349 36.2592 135.176 36.0064 135.054C35.7535 134.932 35.4694 134.871 35.1541 134.871C34.8189 134.871 34.5263 134.94 34.2763 135.08C34.0291 135.216 33.8373 135.408 33.701 135.655C33.5674 135.902 33.5007 136.192 33.5007 136.524H32.495C32.495 136.013 32.6129 135.564 32.8487 135.178C33.0845 134.791 33.4055 134.49 33.8118 134.274C34.2209 134.058 34.6797 133.95 35.1882 133.95C35.6995 133.95 36.1527 134.058 36.5476 134.274C36.9424 134.49 37.2521 134.781 37.4765 135.148C37.701 135.514 37.8132 135.922 37.8132 136.371C37.8132 136.692 37.7549 137.006 37.6385 137.312C37.5248 137.616 37.326 137.956 37.0419 138.331C36.7606 138.703 36.37 139.158 35.87 139.695L33.9098 141.791V141.859H37.9666V142.797H32.4609ZM35.0731 157.916C34.4311 157.916 33.8842 157.741 33.4325 157.392C32.9808 157.04 32.6356 156.53 32.397 155.862C32.1584 155.192 32.039 154.382 32.039 153.433C32.039 152.49 32.1584 151.685 32.397 151.017C32.6385 150.347 32.9851 149.835 33.4368 149.483C33.8913 149.128 34.4368 148.95 35.0731 148.95C35.7095 148.95 36.2535 149.128 36.7052 149.483C37.1598 149.835 37.5064 150.347 37.745 151.017C37.9865 151.685 38.1072 152.49 38.1072 153.433C38.1072 154.382 37.9879 155.192 37.7493 155.862C37.5106 156.53 37.1655 157.04 36.7138 157.392C36.262 157.741 35.7152 157.916 35.0731 157.916ZM35.0731 156.979C35.7095 156.979 36.2038 156.672 36.5561 156.058C36.9084 155.445 37.0845 154.57 37.0845 153.433C37.0845 152.678 37.0035 152.034 36.8416 151.503C36.6825 150.972 36.4524 150.567 36.1513 150.288C35.853 150.01 35.4936 149.871 35.0731 149.871C34.4424 149.871 33.9495 150.182 33.5944 150.804C33.2393 151.423 33.0618 152.3 33.0618 153.433C33.0618 154.189 33.1413 154.831 33.3004 155.359C33.4595 155.888 33.6882 156.29 33.9865 156.565C34.2876 156.841 34.6498 156.979 35.0731 156.979Z" fill="#4F4F4F"/>
<path d="M35.0731 131.135C34.4311 131.135 33.8842 130.96 33.4325 130.611C32.9808 130.259 32.6356 129.749 32.397 129.081C32.1584 128.411 32.039 127.601 32.039 126.652C32.039 125.709 32.1584 124.903 32.397 124.236C32.6385 123.565 32.9851 123.054 33.4368 122.702C33.8913 122.347 34.4368 122.169 35.0731 122.169C35.7095 122.169 36.2535 122.347 36.7052 122.702C37.1598 123.054 37.5064 123.565 37.745 124.236C37.9865 124.903 38.1072 125.709 38.1072 126.652C38.1072 127.601 37.9879 128.411 37.7493 129.081C37.5106 129.749 37.1655 130.259 36.7138 130.611C36.262 130.96 35.7152 131.135 35.0731 131.135ZM35.0731 130.197C35.7095 130.197 36.2038 129.891 36.5561 129.277C36.9084 128.663 37.0845 127.788 37.0845 126.652C37.0845 125.896 37.0035 125.253 36.8416 124.722C36.6825 124.19 36.4524 123.786 36.1513 123.507C35.853 123.229 35.4936 123.089 35.0731 123.089C34.4424 123.089 33.9495 123.401 33.5944 124.023C33.2393 124.642 33.0618 125.518 33.0618 126.652C33.0618 127.408 33.1413 128.05 33.3004 128.578C33.4595 129.107 33.6882 129.509 33.9865 129.784C34.2876 130.06 34.6498 130.197 35.0731 130.197Z" fill="#4F4F4F"/>
<path d="M35.136 106.213C34.778 106.207 34.4201 106.139 34.0621 106.009C33.7042 105.878 33.3775 105.658 33.082 105.348C32.7866 105.036 32.5493 104.614 32.3704 104.082C32.1914 103.548 32.1019 102.878 32.1019 102.071C32.1019 101.298 32.1743 100.614 32.3192 100.017C32.4641 99.4176 32.6743 98.9134 32.9499 98.5043C33.2255 98.0923 33.5579 97.7798 33.9471 97.5668C34.3391 97.3537 34.7809 97.2472 35.2723 97.2472C35.761 97.2472 36.1956 97.3452 36.5763 97.5412C36.9598 97.7344 37.2723 98.0043 37.5138 98.3509C37.7553 98.6974 37.9116 99.0966 37.9826 99.5483H36.9428C36.8462 99.1562 36.6587 98.831 36.3803 98.5724C36.1019 98.3139 35.7326 98.1847 35.2723 98.1847C34.5962 98.1847 34.0635 98.4787 33.6743 99.0668C33.288 99.6548 33.0934 100.48 33.0905 101.543H33.1587C33.3178 101.301 33.5067 101.095 33.7255 100.925C33.9471 100.751 34.1914 100.618 34.4584 100.524C34.7255 100.43 35.0081 100.384 35.3064 100.384C35.8064 100.384 36.2638 100.509 36.6786 100.759C37.0934 101.006 37.4258 101.348 37.6758 101.786C37.9258 102.22 38.0508 102.719 38.0508 103.281C38.0508 103.821 37.93 104.315 37.6885 104.764C37.4471 105.21 37.1076 105.565 36.6701 105.83C36.2354 106.091 35.7241 106.219 35.136 106.213ZM35.136 105.276C35.4939 105.276 35.815 105.186 36.0991 105.007C36.386 104.828 36.6118 104.588 36.7766 104.287C36.9442 103.986 37.028 103.651 37.028 103.281C37.028 102.92 36.9471 102.592 36.7851 102.297C36.626 101.999 36.4059 101.761 36.1246 101.585C35.8462 101.409 35.528 101.321 35.1701 101.321C34.9002 101.321 34.6488 101.375 34.4158 101.483C34.1829 101.588 33.9783 101.733 33.8022 101.918C33.6289 102.102 33.4925 102.314 33.3931 102.553C33.2937 102.788 33.2439 103.037 33.2439 103.298C33.2439 103.645 33.3249 103.969 33.4868 104.27C33.6516 104.571 33.876 104.814 34.1601 104.999C34.4471 105.183 34.7723 105.276 35.136 105.276ZM35.0731 121.213C34.4311 121.213 33.8842 121.038 33.4325 120.689C32.9808 120.337 32.6356 119.827 32.397 119.159C32.1584 118.489 32.039 117.679 32.039 116.73C32.039 115.787 32.1584 114.982 32.397 114.314C32.6385 113.643 32.9851 113.132 33.4368 112.78C33.8913 112.425 34.4368 112.247 35.0731 112.247C35.7095 112.247 36.2535 112.425 36.7052 112.78C37.1598 113.132 37.5064 113.643 37.745 114.314C37.9865 114.982 38.1072 115.787 38.1072 116.73C38.1072 117.679 37.9879 118.489 37.7493 119.159C37.5106 119.827 37.1655 120.337 36.7138 120.689C36.262 121.038 35.7152 121.213 35.0731 121.213ZM35.0731 120.276C35.7095 120.276 36.2038 119.969 36.5561 119.355C36.9084 118.741 37.0845 117.866 37.0845 116.73C37.0845 115.974 37.0035 115.331 36.8416 114.8C36.6825 114.268 36.4524 113.864 36.1513 113.585C35.853 113.307 35.4936 113.168 35.0731 113.168C34.4424 113.168 33.9495 113.479 33.5944 114.101C33.2393 114.72 33.0618 115.597 33.0618 116.73C33.0618 117.486 33.1413 118.128 33.3004 118.656C33.4595 119.185 33.6882 119.587 33.9865 119.862C34.2876 120.138 34.6498 120.276 35.0731 120.276Z" fill="#4F4F4F"/>
<path d="M10 73.7031H456" stroke="#ECECEC" stroke-width="2"/>
<path d="M62.4589 199.25V191.977H64.9163C65.4869 191.977 65.9532 192.08 66.3155 192.286C66.68 192.49 66.9499 192.766 67.1251 193.114C67.3003 193.462 67.3879 193.85 67.3879 194.278C67.3879 194.707 67.3003 195.096 67.1251 195.447C66.9523 195.797 66.6848 196.076 66.3226 196.285C65.9603 196.491 65.4963 196.594 64.9305 196.594H63.1692V195.812H64.9021C65.2927 195.812 65.6064 195.745 65.8432 195.61C66.0799 195.475 66.2515 195.293 66.3581 195.063C66.467 194.831 66.5214 194.57 66.5214 194.278C66.5214 193.987 66.467 193.727 66.3581 193.497C66.2515 193.268 66.0787 193.088 65.8396 192.957C65.6005 192.825 65.2833 192.759 64.8879 192.759H63.3396V199.25H62.4589ZM68.6929 199.25V193.795H69.5026V194.619H69.5594C69.6589 194.349 69.8388 194.13 70.0992 193.962C70.3596 193.794 70.6532 193.71 70.9799 193.71C71.0414 193.71 71.1184 193.711 71.2107 193.714C71.303 193.716 71.3729 193.72 71.4202 193.724V194.577C71.3918 194.57 71.3267 194.559 71.2249 194.545C71.1255 194.528 71.0201 194.52 70.9089 194.52C70.6437 194.52 70.407 194.576 70.1986 194.687C69.9927 194.796 69.8293 194.947 69.7086 195.141C69.5902 195.333 69.531 195.552 69.531 195.798V199.25H68.6929ZM74.4635 199.364C73.9711 199.364 73.5391 199.246 73.1674 199.012C72.7981 198.778 72.5092 198.45 72.3009 198.028C72.0949 197.607 71.992 197.115 71.992 196.551C71.992 195.983 72.0949 195.487 72.3009 195.063C72.5092 194.639 72.7981 194.31 73.1674 194.076C73.5391 193.842 73.9711 193.724 74.4635 193.724C74.956 193.724 75.3868 193.842 75.7562 194.076C76.1278 194.31 76.4167 194.639 76.6226 195.063C76.831 195.487 76.9351 195.983 76.9351 196.551C76.9351 197.115 76.831 197.607 76.6226 198.028C76.4167 198.45 76.1278 198.778 75.7562 199.012C75.3868 199.246 74.956 199.364 74.4635 199.364ZM74.4635 198.611C74.8376 198.611 75.1454 198.515 75.3868 198.323C75.6283 198.131 75.8071 197.879 75.9231 197.567C76.0391 197.254 76.0971 196.916 76.0971 196.551C76.0971 196.187 76.0391 195.847 75.9231 195.532C75.8071 195.217 75.6283 194.963 75.3868 194.768C75.1454 194.574 74.8376 194.477 74.4635 194.477C74.0895 194.477 73.7817 194.574 73.5403 194.768C73.2988 194.963 73.12 195.217 73.004 195.532C72.888 195.847 72.83 196.187 72.83 196.551C72.83 196.916 72.888 197.254 73.004 197.567C73.12 197.879 73.2988 198.131 73.5403 198.323C73.7817 198.515 74.0895 198.611 74.4635 198.611ZM80.2741 199.364C79.8195 199.364 79.4183 199.249 79.0703 199.019C78.7222 198.787 78.45 198.46 78.2535 198.039C78.057 197.615 77.9588 197.115 77.9588 196.537C77.9588 195.964 78.057 195.467 78.2535 195.045C78.45 194.624 78.7234 194.299 79.0738 194.069C79.4242 193.839 79.829 193.724 80.2883 193.724C80.6434 193.724 80.924 193.784 81.1299 193.902C81.3382 194.018 81.4969 194.151 81.6058 194.3C81.717 194.446 81.8034 194.567 81.865 194.662H81.936V191.977H82.7741V199.25H81.9644V198.412H81.865C81.8034 198.511 81.7159 198.637 81.6022 198.788C81.4886 198.937 81.3264 199.071 81.1157 199.19C80.905 199.306 80.6245 199.364 80.2741 199.364ZM80.3877 198.611C80.7239 198.611 81.008 198.523 81.24 198.348C81.472 198.17 81.6484 197.925 81.7691 197.613C81.8899 197.298 81.9502 196.935 81.9502 196.523C81.9502 196.116 81.891 195.759 81.7727 195.454C81.6543 195.146 81.4791 194.907 81.2471 194.737C81.0151 194.564 80.7286 194.477 80.3877 194.477C80.0326 194.477 79.7367 194.568 79.4999 194.751C79.2656 194.931 79.0892 195.176 78.9708 195.486C78.8548 195.794 78.7968 196.139 78.7968 196.523C78.7968 196.911 78.856 197.264 78.9744 197.581C79.0951 197.896 79.2727 198.147 79.507 198.334C79.7438 198.518 80.0373 198.611 80.3877 198.611ZM65.7828 209.02V205.795H66.6209V211.25H65.7828V210.327H65.726C65.5981 210.604 65.3993 210.839 65.1294 211.033C64.8595 211.225 64.5186 211.321 64.1067 211.321C63.7657 211.321 63.4627 211.246 63.1976 211.097C62.9324 210.946 62.7241 210.719 62.5726 210.415C62.4211 210.11 62.3453 209.725 62.3453 209.261V205.795H63.1834V209.205C63.1834 209.602 63.2946 209.92 63.5172 210.156C63.7421 210.393 64.0285 210.511 64.3765 210.511C64.5849 210.511 64.7968 210.458 65.0122 210.352C65.23 210.245 65.4123 210.082 65.5591 209.862C65.7082 209.641 65.7828 209.361 65.7828 209.02ZM70.3717 211.364C69.8604 211.364 69.42 211.243 69.0507 211.001C68.6814 210.76 68.3973 210.427 68.1985 210.004C67.9996 209.58 67.9002 209.096 67.9002 208.551C67.9002 207.997 68.002 207.508 68.2056 207.085C68.4115 206.658 68.698 206.326 69.0649 206.087C69.4342 205.845 69.8651 205.724 70.3575 205.724C70.7411 205.724 71.0867 205.795 71.3945 205.938C71.7022 206.08 71.9544 206.278 72.1509 206.534C72.3474 206.79 72.4693 207.088 72.5166 207.429H71.6786C71.6146 207.18 71.4726 206.96 71.2524 206.768C71.0346 206.574 70.7411 206.477 70.3717 206.477C70.045 206.477 69.7586 206.562 69.5124 206.733C69.2685 206.901 69.078 207.139 68.9406 207.447C68.8057 207.752 68.7382 208.111 68.7382 208.523C68.7382 208.944 68.8045 209.311 68.9371 209.624C69.072 209.936 69.2614 210.179 69.5053 210.352C69.7515 210.524 70.0403 210.611 70.3717 210.611C70.5896 210.611 70.7872 210.573 70.9648 210.497C71.1423 210.421 71.2927 210.312 71.4158 210.17C71.5389 210.028 71.6265 209.858 71.6786 209.659H72.5166C72.4693 209.981 72.3521 210.271 72.1651 210.529C71.9804 210.785 71.7354 210.988 71.43 211.14C71.127 211.289 70.7742 211.364 70.3717 211.364ZM76.1139 205.795V206.506H73.2872V205.795H76.1139ZM74.1111 204.489H74.9492V209.688C74.9492 209.924 74.9835 210.102 75.0521 210.22C75.1232 210.336 75.2131 210.414 75.322 210.455C75.4333 210.492 75.5505 210.511 75.6736 210.511C75.7659 210.511 75.8417 210.507 75.9009 210.497C75.9601 210.485 76.0074 210.476 76.0429 210.469L76.2134 211.222C76.1565 211.243 76.0772 211.264 75.9754 211.286C75.8736 211.309 75.7446 211.321 75.5884 211.321C75.3516 211.321 75.1196 211.27 74.8923 211.168C74.6674 211.067 74.4804 210.911 74.3313 210.703C74.1845 210.495 74.1111 210.232 74.1111 209.915V204.489ZM82.7297 203.977V211.25H81.849V204.901H81.8064L80.0308 206.08V205.185L81.849 203.977H82.7297Z" fill="#4F4F4F"/>
<rect x="46.4082" y="191.062" width="10.619" height="3.625" fill="#165BAA"/>
<path d="M116.565 199.25V191.977H119.023C119.593 191.977 120.06 192.08 120.422 192.286C120.787 192.49 121.057 192.766 121.232 193.114C121.407 193.462 121.494 193.85 121.494 194.278C121.494 194.707 121.407 195.096 121.232 195.447C121.059 195.797 120.791 196.076 120.429 196.285C120.067 196.491 119.603 196.594 119.037 196.594H117.276V195.812H119.009C119.399 195.812 119.713 195.745 119.95 195.61C120.186 195.475 120.358 195.293 120.465 195.063C120.574 194.831 120.628 194.57 120.628 194.278C120.628 193.987 120.574 193.727 120.465 193.497C120.358 193.268 120.185 193.088 119.946 192.957C119.707 192.825 119.39 192.759 118.994 192.759H117.446V199.25H116.565ZM122.8 199.25V193.795H123.609V194.619H123.666C123.765 194.349 123.945 194.13 124.206 193.962C124.466 193.794 124.76 193.71 125.086 193.71C125.148 193.71 125.225 193.711 125.317 193.714C125.41 193.716 125.479 193.72 125.527 193.724V194.577C125.498 194.57 125.433 194.559 125.331 194.545C125.232 194.528 125.127 194.52 125.015 194.52C124.75 194.52 124.514 194.576 124.305 194.687C124.099 194.796 123.936 194.947 123.815 195.141C123.697 195.333 123.638 195.552 123.638 195.798V199.25H122.8ZM128.57 199.364C128.078 199.364 127.646 199.246 127.274 199.012C126.905 198.778 126.616 198.45 126.407 198.028C126.202 197.607 126.099 197.115 126.099 196.551C126.099 195.983 126.202 195.487 126.407 195.063C126.616 194.639 126.905 194.31 127.274 194.076C127.646 193.842 128.078 193.724 128.57 193.724C129.063 193.724 129.493 193.842 129.863 194.076C130.234 194.31 130.523 194.639 130.729 195.063C130.938 195.487 131.042 195.983 131.042 196.551C131.042 197.115 130.938 197.607 130.729 198.028C130.523 198.45 130.234 198.778 129.863 199.012C129.493 199.246 129.063 199.364 128.57 199.364ZM128.57 198.611C128.944 198.611 129.252 198.515 129.493 198.323C129.735 198.131 129.914 197.879 130.03 197.567C130.146 197.254 130.204 196.916 130.204 196.551C130.204 196.187 130.146 195.847 130.03 195.532C129.914 195.217 129.735 194.963 129.493 194.768C129.252 194.574 128.944 194.477 128.57 194.477C128.196 194.477 127.888 194.574 127.647 194.768C127.405 194.963 127.227 195.217 127.111 195.532C126.995 195.847 126.937 196.187 126.937 196.551C126.937 196.916 126.995 197.254 127.111 197.567C127.227 197.879 127.405 198.131 127.647 198.323C127.888 198.515 128.196 198.611 128.57 198.611ZM134.381 199.364C133.926 199.364 133.525 199.249 133.177 199.019C132.829 198.787 132.557 198.46 132.36 198.039C132.164 197.615 132.065 197.115 132.065 196.537C132.065 195.964 132.164 195.467 132.36 195.045C132.557 194.624 132.83 194.299 133.18 194.069C133.531 193.839 133.936 193.724 134.395 193.724C134.75 193.724 135.031 193.784 135.236 193.902C135.445 194.018 135.603 194.151 135.712 194.3C135.824 194.446 135.91 194.567 135.972 194.662H136.043V191.977H136.881V199.25H136.071V198.412H135.972C135.91 198.511 135.822 198.637 135.709 198.788C135.595 198.937 135.433 199.071 135.222 199.19C135.012 199.306 134.731 199.364 134.381 199.364ZM134.494 198.611C134.83 198.611 135.115 198.523 135.347 198.348C135.579 198.17 135.755 197.925 135.876 197.613C135.996 197.298 136.057 196.935 136.057 196.523C136.057 196.116 135.998 195.759 135.879 195.454C135.761 195.146 135.586 194.907 135.354 194.737C135.122 194.564 134.835 194.477 134.494 194.477C134.139 194.477 133.843 194.568 133.607 194.751C133.372 194.931 133.196 195.176 133.077 195.486C132.961 195.794 132.903 196.139 132.903 196.523C132.903 196.911 132.963 197.264 133.081 197.581C133.202 197.896 133.379 198.147 133.614 198.334C133.85 198.518 134.144 198.611 134.494 198.611ZM119.889 209.02V205.795H120.727V211.25H119.889V210.327H119.833C119.705 210.604 119.506 210.839 119.236 211.033C118.966 211.225 118.625 211.321 118.213 211.321C117.872 211.321 117.569 211.246 117.304 211.097C117.039 210.946 116.831 210.719 116.679 210.415C116.528 210.11 116.452 209.725 116.452 209.261V205.795H117.29V209.205C117.29 209.602 117.401 209.92 117.624 210.156C117.849 210.393 118.135 210.511 118.483 210.511C118.691 210.511 118.903 210.458 119.119 210.352C119.337 210.245 119.519 210.082 119.666 209.862C119.815 209.641 119.889 209.361 119.889 209.02ZM124.478 211.364C123.967 211.364 123.527 211.243 123.157 211.001C122.788 210.76 122.504 210.427 122.305 210.004C122.106 209.58 122.007 209.096 122.007 208.551C122.007 207.997 122.109 207.508 122.312 207.085C122.518 206.658 122.805 206.326 123.171 206.087C123.541 205.845 123.972 205.724 124.464 205.724C124.848 205.724 125.193 205.795 125.501 205.938C125.809 206.08 126.061 206.278 126.257 206.534C126.454 206.79 126.576 207.088 126.623 207.429H125.785C125.721 207.18 125.579 206.96 125.359 206.768C125.141 206.574 124.848 206.477 124.478 206.477C124.152 206.477 123.865 206.562 123.619 206.733C123.375 206.901 123.185 207.139 123.047 207.447C122.912 207.752 122.845 208.111 122.845 208.523C122.845 208.944 122.911 209.311 123.044 209.624C123.179 209.936 123.368 210.179 123.612 210.352C123.858 210.524 124.147 210.611 124.478 210.611C124.696 210.611 124.894 210.573 125.071 210.497C125.249 210.421 125.399 210.312 125.522 210.17C125.645 210.028 125.733 209.858 125.785 209.659H126.623C126.576 209.981 126.459 210.271 126.272 210.529C126.087 210.785 125.842 210.988 125.537 211.14C125.234 211.289 124.881 211.364 124.478 211.364ZM130.221 205.795V206.506H127.394V205.795H130.221ZM128.218 204.489H129.056V209.688C129.056 209.924 129.09 210.102 129.159 210.22C129.23 210.336 129.32 210.414 129.429 210.455C129.54 210.492 129.657 210.511 129.78 210.511C129.872 210.511 129.948 210.507 130.007 210.497C130.067 210.485 130.114 210.476 130.149 210.469L130.32 211.222C130.263 211.243 130.184 211.264 130.082 211.286C129.98 211.309 129.851 211.321 129.695 211.321C129.458 211.321 129.226 211.27 128.999 211.168C128.774 211.067 128.587 210.911 128.438 210.703C128.291 210.495 128.218 210.232 128.218 209.915V204.489ZM134.279 211.25V210.611L136.68 207.983C136.962 207.675 137.194 207.408 137.376 207.18C137.558 206.951 137.693 206.735 137.781 206.534C137.871 206.33 137.916 206.117 137.916 205.895C137.916 205.639 137.854 205.418 137.731 205.231C137.61 205.044 137.445 204.899 137.234 204.798C137.023 204.696 136.787 204.645 136.524 204.645C136.244 204.645 136.001 204.703 135.792 204.819C135.586 204.933 135.426 205.092 135.313 205.298C135.202 205.504 135.146 205.746 135.146 206.023H134.308C134.308 205.597 134.406 205.223 134.603 204.901C134.799 204.579 135.067 204.328 135.405 204.148C135.746 203.968 136.128 203.878 136.552 203.878C136.978 203.878 137.356 203.968 137.685 204.148C138.014 204.328 138.272 204.57 138.459 204.876C138.646 205.181 138.74 205.521 138.74 205.895C138.74 206.162 138.691 206.424 138.594 206.68C138.499 206.933 138.334 207.216 138.097 207.528C137.863 207.839 137.537 208.217 137.12 208.665L135.487 210.412V210.469H138.868V211.25H134.279Z" fill="#4F4F4F"/>
<rect x="100.515" y="191.062" width="10.619" height="3.625" fill="#A155B9"/>
<path d="M170.672 199.25V191.977H173.129C173.7 191.977 174.166 192.08 174.529 192.286C174.893 192.49 175.163 192.766 175.338 193.114C175.513 193.462 175.601 193.85 175.601 194.278C175.601 194.707 175.513 195.096 175.338 195.447C175.165 195.797 174.898 196.076 174.536 196.285C174.173 196.491 173.709 196.594 173.144 196.594H171.382V195.812H173.115C173.506 195.812 173.82 195.745 174.056 195.61C174.293 195.475 174.465 195.293 174.571 195.063C174.68 194.831 174.735 194.57 174.735 194.278C174.735 193.987 174.68 193.727 174.571 193.497C174.465 193.268 174.292 193.088 174.053 192.957C173.814 192.825 173.496 192.759 173.101 192.759H171.553V199.25H170.672ZM176.906 199.25V193.795H177.716V194.619H177.773C177.872 194.349 178.052 194.13 178.312 193.962C178.573 193.794 178.866 193.71 179.193 193.71C179.255 193.71 179.332 193.711 179.424 193.714C179.516 193.716 179.586 193.72 179.633 193.724V194.577C179.605 194.57 179.54 194.559 179.438 194.545C179.339 194.528 179.233 194.52 179.122 194.52C178.857 194.52 178.62 194.576 178.412 194.687C178.206 194.796 178.042 194.947 177.922 195.141C177.803 195.333 177.744 195.552 177.744 195.798V199.25H176.906ZM182.677 199.364C182.184 199.364 181.752 199.246 181.381 199.012C181.011 198.778 180.722 198.45 180.514 198.028C180.308 197.607 180.205 197.115 180.205 196.551C180.205 195.983 180.308 195.487 180.514 195.063C180.722 194.639 181.011 194.31 181.381 194.076C181.752 193.842 182.184 193.724 182.677 193.724C183.169 193.724 183.6 193.842 183.969 194.076C184.341 194.31 184.63 194.639 184.836 195.063C185.044 195.487 185.148 195.983 185.148 196.551C185.148 197.115 185.044 197.607 184.836 198.028C184.63 198.45 184.341 198.778 183.969 199.012C183.6 199.246 183.169 199.364 182.677 199.364ZM182.677 198.611C183.051 198.611 183.358 198.515 183.6 198.323C183.841 198.131 184.02 197.879 184.136 197.567C184.252 197.254 184.31 196.916 184.31 196.551C184.31 196.187 184.252 195.847 184.136 195.532C184.02 195.217 183.841 194.963 183.6 194.768C183.358 194.574 183.051 194.477 182.677 194.477C182.303 194.477 181.995 194.574 181.753 194.768C181.512 194.963 181.333 195.217 181.217 195.532C181.101 195.847 181.043 196.187 181.043 196.551C181.043 196.916 181.101 197.254 181.217 197.567C181.333 197.879 181.512 198.131 181.753 198.323C181.995 198.515 182.303 198.611 182.677 198.611ZM188.487 199.364C188.033 199.364 187.631 199.249 187.283 199.019C186.935 198.787 186.663 198.46 186.467 198.039C186.27 197.615 186.172 197.115 186.172 196.537C186.172 195.964 186.27 195.467 186.467 195.045C186.663 194.624 186.937 194.299 187.287 194.069C187.637 193.839 188.042 193.724 188.501 193.724C188.857 193.724 189.137 193.784 189.343 193.902C189.551 194.018 189.71 194.151 189.819 194.3C189.93 194.446 190.017 194.567 190.078 194.662H190.149V191.977H190.987V199.25H190.178V198.412H190.078C190.017 198.511 189.929 198.637 189.815 198.788C189.702 198.937 189.54 199.071 189.329 199.19C189.118 199.306 188.838 199.364 188.487 199.364ZM188.601 198.611C188.937 198.611 189.221 198.523 189.453 198.348C189.685 198.17 189.862 197.925 189.982 197.613C190.103 197.298 190.163 196.935 190.163 196.523C190.163 196.116 190.104 195.759 189.986 195.454C189.867 195.146 189.692 194.907 189.46 194.737C189.228 194.564 188.942 194.477 188.601 194.477C188.246 194.477 187.95 194.568 187.713 194.751C187.479 194.931 187.302 195.176 187.184 195.486C187.068 195.794 187.01 196.139 187.01 196.523C187.01 196.911 187.069 197.264 187.188 197.581C187.308 197.896 187.486 198.147 187.72 198.334C187.957 198.518 188.25 198.611 188.601 198.611ZM173.996 212.02V208.795H174.834V214.25H173.996V213.327H173.939C173.811 213.604 173.612 213.839 173.343 214.033C173.073 214.225 172.732 214.321 172.32 214.321C171.979 214.321 171.676 214.246 171.411 214.097C171.146 213.946 170.937 213.719 170.786 213.415C170.634 213.11 170.558 212.725 170.558 212.261V208.795H171.396V212.205C171.396 212.602 171.508 212.92 171.73 213.156C171.955 213.393 172.242 213.511 172.59 213.511C172.798 213.511 173.01 213.458 173.225 213.352C173.443 213.245 173.625 213.082 173.772 212.862C173.921 212.641 173.996 212.361 173.996 212.02ZM178.585 214.364C178.074 214.364 177.633 214.243 177.264 214.001C176.895 213.76 176.61 213.427 176.412 213.004C176.213 212.58 176.113 212.096 176.113 211.551C176.113 210.997 176.215 210.508 176.419 210.085C176.625 209.658 176.911 209.326 177.278 209.087C177.647 208.845 178.078 208.724 178.571 208.724C178.954 208.724 179.3 208.795 179.608 208.938C179.915 209.08 180.168 209.278 180.364 209.534C180.56 209.79 180.682 210.088 180.73 210.429H179.892C179.828 210.18 179.686 209.96 179.466 209.768C179.248 209.574 178.954 209.477 178.585 209.477C178.258 209.477 177.972 209.562 177.726 209.733C177.482 209.901 177.291 210.139 177.154 210.447C177.019 210.752 176.951 211.111 176.951 211.523C176.951 211.944 177.018 212.311 177.15 212.624C177.285 212.936 177.475 213.179 177.718 213.352C177.965 213.524 178.253 213.611 178.585 213.611C178.803 213.611 179 213.573 179.178 213.497C179.355 213.421 179.506 213.312 179.629 213.17C179.752 213.028 179.84 212.858 179.892 212.659H180.73C180.682 212.981 180.565 213.271 180.378 213.529C180.194 213.785 179.949 213.988 179.643 214.14C179.34 214.289 178.987 214.364 178.585 214.364ZM184.327 208.795V209.506H181.5V208.795H184.327ZM182.324 207.489H183.162V212.688C183.162 212.924 183.197 213.102 183.265 213.22C183.336 213.336 183.426 213.414 183.535 213.455C183.646 213.492 183.764 213.511 183.887 213.511C183.979 213.511 184.055 213.507 184.114 213.497C184.173 213.485 184.221 213.476 184.256 213.469L184.427 214.222C184.37 214.243 184.29 214.264 184.189 214.286C184.087 214.309 183.958 214.321 183.802 214.321C183.565 214.321 183.333 214.27 183.105 214.168C182.881 214.067 182.694 213.911 182.544 213.703C182.398 213.495 182.324 213.232 182.324 212.915V207.489ZM192.048 214.369C191.485 214.369 190.984 214.273 190.544 214.08C190.106 213.886 189.758 213.618 189.5 213.274C189.244 212.928 189.105 212.526 189.082 212.068H190.156C190.179 212.349 190.275 212.592 190.446 212.797C190.616 212.999 190.839 213.155 191.115 213.266C191.39 213.376 191.696 213.432 192.031 213.432C192.406 213.432 192.738 213.366 193.028 213.236C193.318 213.105 193.545 212.923 193.71 212.69C193.875 212.457 193.957 212.188 193.957 211.881C193.957 211.56 193.877 211.277 193.718 211.033C193.559 210.786 193.326 210.592 193.02 210.453C192.713 210.314 192.338 210.244 191.895 210.244H191.196V209.307H191.895C192.241 209.307 192.545 209.244 192.806 209.119C193.071 208.994 193.277 208.818 193.424 208.591C193.575 208.364 193.65 208.097 193.65 207.79C193.65 207.494 193.585 207.237 193.454 207.018C193.324 206.8 193.139 206.629 192.9 206.507C192.664 206.385 192.386 206.324 192.065 206.324C191.764 206.324 191.48 206.379 191.213 206.49C190.949 206.598 190.733 206.756 190.565 206.963C190.397 207.168 190.306 207.415 190.292 207.705H189.27C189.287 207.247 189.424 206.847 189.683 206.503C189.941 206.156 190.279 205.886 190.697 205.693C191.118 205.5 191.579 205.403 192.082 205.403C192.622 205.403 193.085 205.513 193.471 205.732C193.858 205.947 194.154 206.233 194.362 206.588C194.569 206.943 194.673 207.327 194.673 207.739C194.673 208.23 194.544 208.649 194.285 208.996C194.029 209.342 193.681 209.582 193.241 209.716V209.784C193.792 209.875 194.223 210.109 194.532 210.487C194.842 210.862 194.997 211.327 194.997 211.881C194.997 212.355 194.868 212.781 194.609 213.159C194.353 213.534 194.004 213.83 193.561 214.045C193.118 214.261 192.613 214.369 192.048 214.369Z" fill="#4F4F4F"/>
<rect x="154.621" y="191.062" width="10.619" height="3.625" fill="#F765A3"/>
<path d="M75.8922 167.055H76.7729V172.254C76.7729 172.718 76.6876 173.112 76.5172 173.437C76.3467 173.761 76.1064 174.007 75.7963 174.175C75.4862 174.344 75.1204 174.428 74.699 174.428C74.3013 174.428 73.9473 174.355 73.6372 174.211C73.3271 174.064 73.0832 173.856 72.9057 173.586C72.7281 173.316 72.6393 172.995 72.6393 172.624H73.5058C73.5058 172.83 73.5567 173.009 73.6585 173.163C73.7627 173.315 73.9047 173.433 74.0847 173.518C74.2646 173.604 74.4694 173.646 74.699 173.646C74.9523 173.646 75.1677 173.593 75.3453 173.487C75.5229 173.38 75.6578 173.224 75.7501 173.018C75.8448 172.809 75.8922 172.555 75.8922 172.254V167.055ZM80.0293 174.456C79.6836 174.456 79.3699 174.391 79.0882 174.261C78.8065 174.128 78.5828 173.938 78.417 173.689C78.2513 173.438 78.1685 173.135 78.1685 172.78C78.1685 172.467 78.23 172.214 78.3531 172.02C78.4762 171.823 78.6408 171.67 78.8467 171.558C79.0527 171.447 79.28 171.364 79.5285 171.31C79.7795 171.253 80.0316 171.208 80.2849 171.175C80.6164 171.132 80.8851 171.1 81.091 171.079C81.2994 171.055 81.4509 171.016 81.5456 170.962C81.6427 170.907 81.6912 170.812 81.6912 170.678V170.649C81.6912 170.299 81.5953 170.027 81.4035 169.832C81.2142 169.638 80.9265 169.541 80.5406 169.541C80.1405 169.541 79.8268 169.629 79.5996 169.804C79.3723 169.979 79.2125 170.166 79.1202 170.365L78.3247 170.081C78.4668 169.75 78.6561 169.491 78.8929 169.307C79.132 169.12 79.3924 168.99 79.6741 168.916C79.9582 168.84 80.2376 168.803 80.5122 168.803C80.6874 168.803 80.8886 168.824 81.1159 168.866C81.3455 168.907 81.5669 168.991 81.78 169.119C81.9954 169.246 82.1741 169.439 82.3162 169.697C82.4582 169.955 82.5293 170.301 82.5293 170.734V174.328H81.6912V173.589H81.6486C81.5918 173.708 81.4971 173.835 81.3645 173.969C81.2319 174.104 81.0555 174.219 80.8354 174.314C80.6152 174.409 80.3465 174.456 80.0293 174.456ZM80.1571 173.703C80.4885 173.703 80.7679 173.638 80.9952 173.508C81.2248 173.378 81.3976 173.21 81.5136 173.004C81.632 172.798 81.6912 172.581 81.6912 172.354V171.587C81.6557 171.629 81.5775 171.668 81.4568 171.704C81.3384 171.737 81.2011 171.767 81.0449 171.793C80.891 171.816 80.7407 171.838 80.5939 171.857C80.4495 171.873 80.3323 171.887 80.2423 171.899C80.0245 171.928 79.8209 171.974 79.6315 172.038C79.4445 172.099 79.293 172.193 79.177 172.318C79.0633 172.441 79.0065 172.609 79.0065 172.822C79.0065 173.114 79.1142 173.334 79.3297 173.483C79.5475 173.63 79.8233 173.703 80.1571 173.703ZM76.4399 183.047V186.328H75.6019V180.874H76.4115V181.726H76.4826C76.6104 181.449 76.8045 181.226 77.0649 181.058C77.3254 180.888 77.6615 180.803 78.0735 180.803C78.4428 180.803 78.7659 180.878 79.0429 181.03C79.3199 181.179 79.5354 181.406 79.6892 181.712C79.8431 182.015 79.9201 182.398 79.9201 182.862V186.328H79.082V182.919C79.082 182.491 78.9707 182.157 78.7482 181.918C78.5256 181.676 78.2202 181.555 77.832 181.555C77.5645 181.555 77.3254 181.613 77.1147 181.729C76.9063 181.845 76.7418 182.015 76.6211 182.237C76.5003 182.46 76.4399 182.73 76.4399 183.047Z" fill="#4F4F4F"/>
<path d="M138.733 174.328V167.055H143.094V167.837H139.613V170.294H142.767V171.075H139.613V174.328H138.733ZM146.375 174.442C145.849 174.442 145.396 174.326 145.015 174.094C144.636 173.859 144.344 173.533 144.138 173.114C143.934 172.692 143.832 172.202 143.832 171.643C143.832 171.085 143.934 170.592 144.138 170.166C144.344 169.738 144.63 169.404 144.997 169.165C145.366 168.923 145.797 168.803 146.29 168.803C146.574 168.803 146.854 168.85 147.131 168.945C147.408 169.039 147.66 169.193 147.888 169.406C148.115 169.617 148.296 169.896 148.431 170.244C148.566 170.592 148.633 171.021 148.633 171.53V171.885H144.429V171.161H147.781C147.781 170.853 147.719 170.578 147.596 170.337C147.476 170.095 147.303 169.905 147.078 169.765C146.855 169.625 146.593 169.555 146.29 169.555C145.956 169.555 145.667 169.638 145.423 169.804C145.182 169.967 144.996 170.18 144.866 170.443C144.735 170.706 144.67 170.988 144.67 171.288V171.771C144.67 172.183 144.741 172.532 144.883 172.819C145.028 173.103 145.228 173.32 145.483 173.469C145.739 173.616 146.036 173.689 146.375 173.689C146.595 173.689 146.794 173.658 146.971 173.597C147.151 173.533 147.306 173.438 147.437 173.312C147.567 173.185 147.667 173.026 147.738 172.837L148.548 173.064C148.463 173.339 148.32 173.58 148.118 173.788C147.917 173.994 147.669 174.155 147.373 174.271C147.077 174.385 146.744 174.442 146.375 174.442ZM141.272 186.328V179.055H142.11V181.74H142.181C142.242 181.645 142.328 181.525 142.437 181.378C142.548 181.229 142.706 181.096 142.912 180.98C143.121 180.862 143.402 180.803 143.758 180.803C144.217 180.803 144.622 180.917 144.972 181.147C145.322 181.377 145.596 181.702 145.792 182.124C145.989 182.545 146.087 183.042 146.087 183.615C146.087 184.193 145.989 184.693 145.792 185.117C145.596 185.539 145.324 185.865 144.976 186.097C144.628 186.327 144.226 186.442 143.772 186.442C143.421 186.442 143.141 186.384 142.93 186.268C142.719 186.149 142.557 186.016 142.444 185.866C142.33 185.715 142.242 185.589 142.181 185.49H142.081V186.328H141.272ZM142.096 183.601C142.096 184.013 142.156 184.376 142.277 184.691C142.398 185.004 142.574 185.249 142.806 185.426C143.038 185.601 143.322 185.689 143.658 185.689C144.009 185.689 144.301 185.597 144.535 185.412C144.772 185.225 144.95 184.974 145.068 184.659C145.189 184.342 145.249 183.989 145.249 183.601C145.249 183.217 145.19 182.872 145.072 182.564C144.956 182.254 144.779 182.009 144.542 181.829C144.308 181.647 144.013 181.555 143.658 181.555C143.317 181.555 143.031 181.642 142.799 181.815C142.567 181.985 142.392 182.224 142.273 182.532C142.155 182.837 142.096 183.194 142.096 183.601Z" fill="#4F4F4F"/>
<path d="M205.666 167.055H206.717L209.189 173.092H209.274L211.746 167.055H212.797V174.328H211.973V168.803H211.902L209.629 174.328H208.834L206.561 168.803H206.49V174.328H205.666V167.055ZM206.928 186.456C206.582 186.456 206.269 186.391 205.987 186.261C205.705 186.128 205.481 185.938 205.316 185.689C205.15 185.438 205.067 185.135 205.067 184.78C205.067 184.467 205.129 184.214 205.252 184.02C205.375 183.823 205.539 183.67 205.745 183.558C205.951 183.447 206.179 183.364 206.427 183.31C206.678 183.253 206.93 183.208 207.184 183.175C207.515 183.132 207.784 183.1 207.99 183.079C208.198 183.055 208.35 183.016 208.444 182.962C208.541 182.907 208.59 182.812 208.59 182.678V182.649C208.59 182.299 208.494 182.027 208.302 181.832C208.113 181.638 207.825 181.541 207.439 181.541C207.039 181.541 206.726 181.629 206.498 181.804C206.271 181.979 206.111 182.166 206.019 182.365L205.223 182.081C205.365 181.75 205.555 181.491 205.792 181.307C206.031 181.12 206.291 180.99 206.573 180.916C206.857 180.84 207.136 180.803 207.411 180.803C207.586 180.803 207.787 180.824 208.015 180.866C208.244 180.907 208.466 180.991 208.679 181.119C208.894 181.246 209.073 181.439 209.215 181.697C209.357 181.955 209.428 182.301 209.428 182.734V186.328H208.59V185.589H208.547C208.49 185.708 208.396 185.835 208.263 185.969C208.131 186.104 207.954 186.219 207.734 186.314C207.514 186.409 207.245 186.456 206.928 186.456ZM207.056 185.703C207.387 185.703 207.667 185.638 207.894 185.508C208.124 185.378 208.296 185.21 208.412 185.004C208.531 184.798 208.59 184.581 208.59 184.354V183.587C208.554 183.629 208.476 183.668 208.356 183.704C208.237 183.737 208.1 183.767 207.944 183.793C207.79 183.816 207.639 183.838 207.493 183.857C207.348 183.873 207.231 183.887 207.141 183.899C206.923 183.928 206.72 183.974 206.53 184.038C206.343 184.099 206.192 184.193 206.076 184.318C205.962 184.441 205.905 184.609 205.905 184.822C205.905 185.114 206.013 185.334 206.228 185.483C206.446 185.63 206.722 185.703 207.056 185.703ZM210.958 186.328V180.874H211.767V181.697H211.824C211.924 181.428 212.103 181.209 212.364 181.04C212.624 180.872 212.918 180.788 213.245 180.788C213.306 180.788 213.383 180.79 213.475 180.792C213.568 180.794 213.638 180.798 213.685 180.803V181.655C213.656 181.648 213.591 181.637 213.49 181.623C213.39 181.606 213.285 181.598 213.174 181.598C212.908 181.598 212.672 181.654 212.463 181.765C212.257 181.874 212.094 182.025 211.973 182.219C211.855 182.411 211.796 182.63 211.796 182.876V186.328H210.958Z" fill="#4F4F4F"/>
<path d="M266.69 174.328H265.766L268.437 167.055H269.346L272.016 174.328H271.093L268.92 168.206H268.863L266.69 174.328ZM267.031 171.487H270.752V172.268H267.031V171.487ZM273.036 176.374V168.874H273.845V169.74H273.945C274.006 169.645 274.091 169.525 274.2 169.378C274.312 169.229 274.47 169.096 274.676 168.98C274.885 168.862 275.166 168.803 275.521 168.803C275.981 168.803 276.385 168.917 276.736 169.147C277.086 169.377 277.36 169.702 277.556 170.124C277.753 170.545 277.851 171.042 277.851 171.615C277.851 172.193 277.753 172.693 277.556 173.117C277.36 173.539 277.087 173.865 276.739 174.097C276.391 174.327 275.99 174.442 275.536 174.442C275.185 174.442 274.905 174.384 274.694 174.268C274.483 174.149 274.321 174.016 274.207 173.866C274.094 173.715 274.006 173.589 273.945 173.49H273.874V176.374H273.036ZM273.859 171.601C273.859 172.013 273.92 172.376 274.041 172.691C274.161 173.004 274.338 173.249 274.57 173.426C274.802 173.601 275.086 173.689 275.422 173.689C275.772 173.689 276.065 173.597 276.299 173.412C276.536 173.225 276.713 172.974 276.832 172.659C276.952 172.342 277.013 171.989 277.013 171.601C277.013 171.217 276.954 170.872 276.835 170.564C276.719 170.254 276.543 170.009 276.306 169.829C276.072 169.647 275.777 169.555 275.422 169.555C275.081 169.555 274.795 169.642 274.563 169.815C274.331 169.985 274.155 170.224 274.037 170.532C273.919 170.837 273.859 171.194 273.859 171.601ZM270.843 186.328V180.874H271.653V181.697H271.71C271.809 181.428 271.989 181.209 272.249 181.04C272.51 180.872 272.803 180.788 273.13 180.788C273.192 180.788 273.269 180.79 273.361 180.792C273.453 180.794 273.523 180.798 273.57 180.803V181.655C273.542 181.648 273.477 181.637 273.375 181.623C273.276 181.606 273.17 181.598 273.059 181.598C272.794 181.598 272.557 181.654 272.349 181.765C272.143 181.874 271.98 182.025 271.859 182.219C271.74 182.411 271.681 182.63 271.681 182.876V186.328H270.843Z" fill="#4F4F4F"/>
<path d="M336.634 167.055H337.685L340.157 173.092H340.242L342.714 167.055H343.765V174.328H342.941V168.803H342.87L340.597 174.328H339.802L337.529 168.803H337.458V174.328H336.634V167.055ZM338.57 186.456C338.224 186.456 337.911 186.391 337.629 186.261C337.347 186.128 337.124 185.938 336.958 185.689C336.792 185.438 336.709 185.135 336.709 184.78C336.709 184.467 336.771 184.214 336.894 184.02C337.017 183.823 337.182 183.67 337.388 183.558C337.594 183.447 337.821 183.364 338.069 183.31C338.32 183.253 338.572 183.208 338.826 183.175C339.157 183.132 339.426 183.1 339.632 183.079C339.84 183.055 339.992 183.016 340.086 182.962C340.183 182.907 340.232 182.812 340.232 182.678V182.649C340.232 182.299 340.136 182.027 339.944 181.832C339.755 181.638 339.467 181.541 339.081 181.541C338.681 181.541 338.368 181.629 338.14 181.804C337.913 181.979 337.753 182.166 337.661 182.365L336.866 182.081C337.008 181.75 337.197 181.491 337.434 181.307C337.673 181.12 337.933 180.99 338.215 180.916C338.499 180.84 338.778 180.803 339.053 180.803C339.228 180.803 339.429 180.824 339.657 180.866C339.886 180.907 340.108 180.991 340.321 181.119C340.536 181.246 340.715 181.439 340.857 181.697C340.999 181.955 341.07 182.301 341.07 182.734V186.328H340.232V185.589H340.189C340.133 185.708 340.038 185.835 339.905 185.969C339.773 186.104 339.596 186.219 339.376 186.314C339.156 186.409 338.887 186.456 338.57 186.456ZM338.698 185.703C339.029 185.703 339.309 185.638 339.536 185.508C339.766 185.378 339.938 185.21 340.054 185.004C340.173 184.798 340.232 184.581 340.232 184.354V183.587C340.196 183.629 340.118 183.668 339.998 183.704C339.879 183.737 339.742 183.767 339.586 183.793C339.432 183.816 339.281 183.838 339.135 183.857C338.99 183.873 338.873 183.887 338.783 183.899C338.565 183.928 338.362 183.974 338.172 184.038C337.985 184.099 337.834 184.193 337.718 184.318C337.604 184.441 337.547 184.609 337.547 184.822C337.547 185.114 337.655 185.334 337.87 185.483C338.088 185.63 338.364 185.703 338.698 185.703ZM342.6 186.328V180.874H343.438V186.328H342.6ZM343.026 179.964C342.863 179.964 342.722 179.909 342.603 179.798C342.487 179.686 342.429 179.553 342.429 179.396C342.429 179.24 342.487 179.106 342.603 178.995C342.722 178.884 342.863 178.828 343.026 178.828C343.189 178.828 343.329 178.884 343.445 178.995C343.563 179.106 343.622 179.24 343.622 179.396C343.622 179.553 343.563 179.686 343.445 179.798C343.329 179.909 343.189 179.964 343.026 179.964Z" fill="#4F4F4F"/>
<path d="M403.478 167.055H404.358V172.254C404.358 172.718 404.273 173.112 404.103 173.437C403.932 173.761 403.692 174.007 403.382 174.175C403.072 174.344 402.706 174.428 402.285 174.428C401.887 174.428 401.533 174.355 401.223 174.211C400.913 174.064 400.669 173.856 400.491 173.586C400.314 173.316 400.225 172.995 400.225 172.624H401.091C401.091 172.83 401.142 173.009 401.244 173.163C401.348 173.315 401.49 173.433 401.67 173.518C401.85 173.604 402.055 173.646 402.285 173.646C402.538 173.646 402.753 173.593 402.931 173.487C403.108 173.38 403.243 173.224 403.336 173.018C403.43 172.809 403.478 172.555 403.478 172.254V167.055ZM409.447 172.098V168.874H410.285V174.328H409.447V173.405H409.39C409.263 173.682 409.064 173.917 408.794 174.112C408.524 174.303 408.183 174.399 407.771 174.399C407.43 174.399 407.127 174.325 406.862 174.175C406.597 174.024 406.389 173.797 406.237 173.494C406.085 173.188 406.01 172.804 406.01 172.339V168.874H406.848V172.283C406.848 172.68 406.959 172.998 407.182 173.234C407.407 173.471 407.693 173.589 408.041 173.589C408.249 173.589 408.461 173.536 408.677 173.43C408.894 173.323 409.077 173.16 409.223 172.94C409.373 172.719 409.447 172.439 409.447 172.098ZM404.113 183.047V186.328H403.275V180.874H404.085V181.726H404.156C404.284 181.449 404.478 181.226 404.738 181.058C404.999 180.888 405.335 180.803 405.747 180.803C406.116 180.803 406.439 180.878 406.716 181.03C406.993 181.179 407.209 181.406 407.363 181.712C407.517 182.015 407.594 182.398 407.594 182.862V186.328H406.755V182.919C406.755 182.491 406.644 182.157 406.422 181.918C406.199 181.676 405.894 181.555 405.505 181.555C405.238 181.555 404.999 181.613 404.788 181.729C404.58 181.845 404.415 182.015 404.295 182.237C404.174 182.46 404.113 182.73 404.113 183.047Z" fill="#4F4F4F"/>
<ellipse cx="46.661" cy="148.695" rx="1.76984" ry="1.58594" fill="#165BAA"/>
<ellipse cx="112.398" cy="136.461" rx="1.76984" ry="1.58594" fill="#165BAA"/>
<ellipse cx="241.344" cy="99.7578" rx="1.76984" ry="1.58594" fill="#165BAA"/>
<ellipse cx="306.069" cy="124.227" rx="1.76984" ry="1.58594" fill="#165BAA"/>
<ellipse cx="370.795" cy="111.992" rx="1.76985" ry="1.58594" fill="#165BAA"/>
<ellipse cx="435.52" cy="148.695" rx="1.76984" ry="1.58594" fill="#165BAA"/>
<path d="M46.9138 148.922L113.263 136.234L177.177 148.922L241.699 99.9844L306.222 124L370.745 111.992L435.268 148.922" stroke="#165BAA" stroke-width="2"/>
<ellipse cx="46.661" cy="123.773" rx="1.76984" ry="1.58594" fill="#A155B9"/>
<ellipse cx="112.398" cy="111.992" rx="1.76984" ry="1.58594" fill="#A155B9"/>
<ellipse cx="241.344" cy="136.461" rx="1.76984" ry="1.58594" fill="#A155B9"/>
<ellipse cx="306.069" cy="149.148" rx="1.76984" ry="1.58594" fill="#A155B9"/>
<ellipse cx="370.795" cy="136.461" rx="1.76985" ry="1.58594" fill="#A155B9"/>
<ellipse cx="435.52" cy="124.227" rx="1.76984" ry="1.58594" fill="#A155B9"/>
<defs>
<filter id="filter0_d_185_12492" x="0" y="0" width="466" height="223" filterUnits="userSpaceOnUse" color-interpolation-filters="sRGB">
<feFlood flood-opacity="0" result="BackgroundImageFix"/>
<feColorMatrix in="SourceAlpha" type="matrix" values="0 0 0 0 0 0 0 0 0 0 0 0 0 0 0 0 0 0 127 0" result="hardAlpha"/>
<feOffset dy="2"/>
<feGaussianBlur stdDeviation="5"/>
<feComposite in2="hardAlpha" operator="out"/>
<feColorMatrix type="matrix" values="0 0 0 0 0 0 0 0 0 0 0 0 0 0 0 0 0 0 0.1 0"/>
<feBlend mode="normal" in2="BackgroundImageFix" result="effect1_dropShadow_185_12492"/>
<feBlend mode="normal" in="SourceGraphic" in2="effect1_dropShadow_185_12492" result="shape"/>
</filter>
</defs>
</svg>
