<svg width="547" height="306" viewBox="0 0 547 306" fill="none" xmlns="http://www.w3.org/2000/svg">
<g filter="url(#filter0_d_184_8111)">
<rect x="10" y="8" width="527" height="286" rx="6" fill="white"/>
</g>
<path d="M42.3487 36.7266H39.419V35.0391H42.3487C42.8279 35.0391 43.2159 34.9609 43.5128 34.8047C43.8148 34.6432 44.0362 34.4245 44.1768 34.1484C44.3174 33.8672 44.3878 33.5469 44.3878 33.1875C44.3878 32.8385 44.3174 32.513 44.1768 32.2109C44.0362 31.9089 43.8148 31.6641 43.5128 31.4766C43.2159 31.2891 42.8279 31.1953 42.3487 31.1953H40.1221V40.875H37.9737V29.5H42.3487C43.2341 29.5 43.9893 29.6589 44.6143 29.9766C45.2445 30.2891 45.7237 30.724 46.0518 31.2812C46.3852 31.8333 46.5518 32.4635 46.5518 33.1719C46.5518 33.9062 46.3852 34.5391 46.0518 35.0703C45.7237 35.6016 45.2445 36.0104 44.6143 36.2969C43.9893 36.5833 43.2341 36.7266 42.3487 36.7266ZM48.2393 29.5H52.3721C53.2367 29.5 53.9789 29.6302 54.5987 29.8906C55.2185 30.151 55.695 30.5365 56.0284 31.0469C56.3617 31.5573 56.5284 32.1849 56.5284 32.9297C56.5284 33.5182 56.4242 34.0286 56.2159 34.4609C56.0075 34.8932 55.7133 35.2552 55.3331 35.5469C54.9581 35.8385 54.5154 36.0677 54.0049 36.2344L53.3331 36.5781H49.6846L49.669 34.8828H52.3956C52.8383 34.8828 53.2055 34.8047 53.4971 34.6484C53.7888 34.4922 54.0075 34.276 54.1534 34C54.3044 33.724 54.3799 33.4089 54.3799 33.0547C54.3799 32.6745 54.307 32.3464 54.1612 32.0703C54.0154 31.7891 53.794 31.5729 53.4971 31.4219C53.2003 31.2708 52.8253 31.1953 52.3721 31.1953H50.3878V40.875H48.2393V29.5ZM54.6612 40.875L52.0284 35.7812L54.3018 35.7734L56.9659 40.7656V40.875H54.6612ZM60.7003 29.5V40.875H58.5518V29.5H60.7003ZM63.9581 29.5H65.8174L68.9268 38.0625L72.0284 29.5H73.8956L69.669 40.875H68.1768L63.9581 29.5ZM63.0206 29.5H64.8409L65.169 37.3672V40.875H63.0206V29.5ZM73.0049 29.5H74.8331V40.875H72.6846V37.3672L73.0049 29.5ZM81.6846 31.2266L78.4424 40.875H76.169L80.419 29.5H81.8721L81.6846 31.2266ZM84.3956 40.875L81.1378 31.2266L80.9424 29.5H82.4034L86.6768 40.875H84.3956ZM84.2471 36.6484V38.3438H78.1456V36.6484H84.2471ZM87.8487 29.5H91.9815C92.8461 29.5 93.5883 29.6302 94.2081 29.8906C94.8279 30.151 95.3044 30.5365 95.6378 31.0469C95.9711 31.5573 96.1378 32.1849 96.1378 32.9297C96.1378 33.5182 96.0336 34.0286 95.8253 34.4609C95.6169 34.8932 95.3227 35.2552 94.9424 35.5469C94.5674 35.8385 94.1247 36.0677 93.6143 36.2344L92.9424 36.5781H89.294L89.2784 34.8828H92.0049C92.4477 34.8828 92.8148 34.8047 93.1065 34.6484C93.3982 34.4922 93.6169 34.276 93.7628 34C93.9138 33.724 93.9893 33.4089 93.9893 33.0547C93.9893 32.6745 93.9164 32.3464 93.7706 32.0703C93.6247 31.7891 93.4034 31.5729 93.1065 31.4219C92.8096 31.2708 92.4346 31.1953 91.9815 31.1953H89.9971V40.875H87.8487V29.5ZM94.2706 40.875L91.6378 35.7812L93.9112 35.7734L96.5753 40.7656V40.875H94.2706ZM98.9737 29.5L101.474 34.8047L103.989 29.5H106.349L102.567 36.7109V40.875H100.388V36.7109L96.5987 29.5H98.9737ZM115.966 29.5V40.875H113.825V29.5H115.966ZM119.497 29.5V31.1953H110.333V29.5H119.497ZM128.466 39.1875V40.875H122.419V39.1875H128.466ZM123.075 29.5V40.875H120.927V29.5H123.075ZM127.677 34.1953V35.8438H122.419V34.1953H127.677ZM128.442 29.5V31.1953H122.419V29.5H128.442ZM131.669 29.5L133.942 33.5547L136.224 29.5H138.692L135.317 35.1406L138.778 40.875H136.286L133.942 36.7422L131.607 40.875H129.107L132.567 35.1406L129.192 29.5H131.669ZM144.982 29.5V40.875H142.841V29.5H144.982ZM148.513 29.5V31.1953H139.349V29.5H148.513Z" fill="#828282"/>
<path d="M39.192 48.2607L37.9732 47.9623L38.4747 43.3159H43.4576V44.6108H39.7442L39.4903 46.8769C39.6342 46.7923 39.8331 46.7097 40.087 46.6293C40.3409 46.5447 40.6308 46.5024 40.9566 46.5024C41.3925 46.5024 41.7818 46.5743 42.1246 46.7182C42.4716 46.8578 42.7657 47.0631 43.0069 47.3339C43.2481 47.6005 43.4322 47.9264 43.5591 48.3115C43.6861 48.6923 43.7496 49.1218 43.7496 49.6C43.7496 50.0274 43.6861 50.4273 43.5591 50.7997C43.4364 51.1721 43.2502 51.5001 43.0005 51.7836C42.7509 52.0672 42.4356 52.2893 42.0547 52.4501C41.6781 52.6067 41.2317 52.685 40.7154 52.685C40.3303 52.685 39.96 52.63 39.6046 52.52C39.2533 52.4057 38.938 52.2385 38.6588 52.0185C38.3795 51.7942 38.1552 51.5191 37.9859 51.1933C37.8166 50.8632 37.7193 50.4845 37.6939 50.0571H39.192C39.23 50.3575 39.3126 50.6135 39.4395 50.8251C39.5707 51.0325 39.7442 51.1912 39.96 51.3012C40.1758 51.4112 40.4255 51.4662 40.709 51.4662C40.9672 51.4662 41.1894 51.4218 41.3755 51.3329C41.5617 51.2398 41.7162 51.1087 41.8389 50.9394C41.9659 50.7659 42.059 50.5628 42.1182 50.33C42.1817 50.0973 42.2134 49.8391 42.2134 49.5556C42.2134 49.2848 42.1775 49.0372 42.1055 48.8129C42.0378 48.5886 41.9341 48.394 41.7945 48.2289C41.6591 48.0639 41.4877 47.937 41.2803 47.8481C41.073 47.755 40.8339 47.7084 40.563 47.7084C40.1991 47.7084 39.9198 47.7613 39.7252 47.8671C39.5347 47.9729 39.357 48.1041 39.192 48.2607ZM44.6395 51.7963C44.6395 51.5593 44.7199 51.3605 44.8807 51.1996C45.0415 51.0346 45.2595 50.9521 45.5345 50.9521C45.8138 50.9521 46.0318 51.0346 46.1883 51.1996C46.3491 51.3605 46.4296 51.5593 46.4296 51.7963C46.4296 52.0333 46.3491 52.2322 46.1883 52.393C46.0318 52.5538 45.8138 52.6342 45.5345 52.6342C45.2595 52.6342 45.0415 52.5538 44.8807 52.393C44.7199 52.2322 44.6395 52.0333 44.6395 51.7963ZM48.8493 51.352H48.9762C49.5602 51.352 50.0469 51.2758 50.4362 51.1235C50.8297 50.9669 51.1429 50.7511 51.3756 50.476C51.6084 50.2009 51.7755 49.8772 51.8771 49.5048C51.9787 49.1324 52.0295 48.7283 52.0295 48.2924V46.6992C52.0295 46.3225 51.9893 45.9925 51.9088 45.7089C51.8327 45.4212 51.7227 45.1821 51.5788 44.9916C51.4391 44.797 51.2762 44.651 51.09 44.5536C50.908 44.4563 50.7113 44.4077 50.4997 44.4077C50.2669 44.4077 50.0574 44.4606 49.8713 44.5663C49.6893 44.6679 49.5348 44.8097 49.4079 44.9916C49.2852 45.1694 49.1899 45.3788 49.1222 45.6201C49.0588 45.857 49.027 46.1109 49.027 46.3818C49.027 46.6357 49.0566 46.8811 49.1159 47.1181C49.1794 47.3509 49.2725 47.5582 49.3952 47.7402C49.5179 47.9221 49.6724 48.066 49.8586 48.1718C50.0448 48.2776 50.2627 48.3305 50.5124 48.3305C50.7493 48.3305 50.9673 48.2861 51.1662 48.1972C51.3651 48.1041 51.5386 47.9793 51.6867 47.8227C51.8348 47.6661 51.9512 47.4905 52.0358 47.2958C52.1204 47.1012 52.167 46.9023 52.1755 46.6992L52.7594 46.8769C52.7594 47.1985 52.6917 47.5159 52.5563 47.829C52.4251 48.138 52.241 48.4215 52.0041 48.6796C51.7713 48.9335 51.4984 49.1367 51.1852 49.289C50.8763 49.4413 50.5399 49.5175 50.1759 49.5175C49.7358 49.5175 49.3465 49.435 49.008 49.27C48.6737 49.1007 48.3944 48.8722 48.1701 48.5844C47.95 48.2967 47.785 47.9666 47.675 47.5942C47.5649 47.2218 47.5099 46.8303 47.5099 46.4199C47.5099 45.9755 47.5776 45.5587 47.713 45.1694C47.8485 44.78 48.0452 44.4373 48.3034 44.1411C48.5615 43.8406 48.8747 43.6078 49.2428 43.4428C49.6152 43.2735 50.0363 43.1889 50.506 43.1889C51.0054 43.1889 51.4434 43.2862 51.82 43.4809C52.1966 43.6756 52.514 43.9443 52.7721 44.287C53.0303 44.6298 53.2249 45.0276 53.3561 45.4804C53.4873 45.9332 53.5529 46.4199 53.5529 46.9404V47.4799C53.5529 48.0258 53.5042 48.5527 53.4069 49.0605C53.3096 49.5641 53.1509 50.0317 52.9308 50.4633C52.715 50.8907 52.4294 51.2674 52.0739 51.5932C51.7227 51.9148 51.291 52.1666 50.779 52.3486C50.2712 52.5263 49.6745 52.6152 48.9889 52.6152H48.8493V51.352ZM60.562 50.038C60.562 50.6135 60.4287 51.0981 60.1621 51.4916C59.8955 51.8852 59.5315 52.1835 59.0703 52.3867C58.6132 52.5856 58.097 52.685 57.5214 52.685C56.9459 52.685 56.4275 52.5856 55.9663 52.3867C55.505 52.1835 55.1411 51.8852 54.8745 51.4916C54.6079 51.0981 54.4746 50.6135 54.4746 50.038C54.4746 49.6572 54.5486 49.3123 54.6967 49.0034C54.8449 48.6902 55.0543 48.4215 55.3252 48.1972C55.6002 47.9687 55.9218 47.7931 56.29 47.6703C56.6624 47.5476 57.0686 47.4863 57.5088 47.4863C58.0927 47.4863 58.6154 47.5942 59.0766 47.81C59.5379 48.0258 59.8997 48.3242 60.1621 48.705C60.4287 49.0859 60.562 49.5302 60.562 50.038ZM59.0258 49.9619C59.0258 49.6529 58.9624 49.3821 58.8354 49.1494C58.7085 48.9166 58.5307 48.7368 58.3022 48.6098C58.0737 48.4828 57.8092 48.4194 57.5088 48.4194C57.2041 48.4194 56.9396 48.4828 56.7153 48.6098C56.491 48.7368 56.3154 48.9166 56.1884 49.1494C56.0657 49.3821 56.0044 49.6529 56.0044 49.9619C56.0044 50.275 56.0657 50.5458 56.1884 50.7744C56.3112 50.9986 56.4868 51.17 56.7153 51.2885C56.9438 51.407 57.2125 51.4662 57.5214 51.4662C57.8304 51.4662 58.097 51.407 58.3213 51.2885C58.5455 51.17 58.719 50.9986 58.8418 50.7744C58.9645 50.5458 59.0258 50.275 59.0258 49.9619ZM60.3525 45.747C60.3525 46.2083 60.2298 46.6188 59.9843 46.9785C59.7431 47.3382 59.4088 47.6217 58.9814 47.829C58.554 48.0322 58.0673 48.1337 57.5214 48.1337C56.9713 48.1337 56.4804 48.0322 56.0488 47.829C55.6214 47.6217 55.285 47.3382 55.0395 46.9785C54.7983 46.6188 54.6777 46.2083 54.6777 45.747C54.6777 45.1969 54.7983 44.7335 55.0395 44.3569C55.285 43.976 55.6214 43.6861 56.0488 43.4872C56.4762 43.2884 56.965 43.1889 57.5151 43.1889C58.0652 43.1889 58.554 43.2884 58.9814 43.4872C59.4088 43.6861 59.7431 43.976 59.9843 44.3569C60.2298 44.7335 60.3525 45.1969 60.3525 45.747ZM58.8227 45.7978C58.8227 45.5227 58.7677 45.2815 58.6577 45.0742C58.5519 44.8626 58.4017 44.6975 58.207 44.579C58.0123 44.4606 57.7817 44.4013 57.5151 44.4013C57.2485 44.4013 57.0179 44.4584 56.8232 44.5727C56.6285 44.687 56.4783 44.8478 56.3725 45.0551C56.2667 45.2625 56.2138 45.51 56.2138 45.7978C56.2138 46.0813 56.2667 46.3289 56.3725 46.5405C56.4783 46.7478 56.6285 46.9107 56.8232 47.0292C57.0221 47.1477 57.2548 47.207 57.5214 47.207C57.788 47.207 58.0187 47.1477 58.2133 47.0292C58.408 46.9107 58.5582 46.7478 58.664 46.5405C58.7698 46.3289 58.8227 46.0813 58.8227 45.7978ZM67.5584 43.3159V44.1537L63.864 52.558H62.2517L65.9397 44.5346H61.1536V43.3159H67.5584ZM69.8448 51.0854L69.8384 52.1772C69.8384 52.6088 69.7305 53.0532 69.5147 53.5102C69.2989 53.9672 69.0132 54.3439 68.6578 54.6401L67.8389 54.164C67.9574 53.9736 68.0653 53.781 68.1627 53.5864C68.26 53.3917 68.3383 53.1843 68.3975 52.9643C68.4568 52.7442 68.4864 52.5009 68.4864 52.2343V51.0854H69.8448ZM72.5375 47.2451H73.4515C73.807 47.2451 74.1011 47.1837 74.3339 47.061C74.5708 46.9383 74.7464 46.769 74.8607 46.5532C74.975 46.3373 75.0321 46.0898 75.0321 45.8105C75.0321 45.5185 74.9792 45.2688 74.8734 45.0615C74.7718 44.8499 74.6153 44.687 74.4037 44.5727C74.1963 44.4584 73.9318 44.4013 73.6102 44.4013C73.3394 44.4013 73.0939 44.4563 72.8739 44.5663C72.6581 44.6721 72.4867 44.8245 72.3597 45.0234C72.2328 45.218 72.1693 45.4508 72.1693 45.7216H70.6332C70.6332 45.2307 70.7622 44.7949 71.0204 44.414C71.2785 44.0331 71.6297 43.7348 72.0741 43.519C72.5227 43.2989 73.0262 43.1889 73.5848 43.1889C74.1815 43.1889 74.702 43.2884 75.1464 43.4872C75.5949 43.6819 75.944 43.9739 76.1937 44.3632C76.4434 44.7525 76.5682 45.235 76.5682 45.8105C76.5682 46.0729 76.5069 46.3395 76.3841 46.6103C76.2614 46.8811 76.0795 47.1287 75.8382 47.353C75.597 47.573 75.2966 47.7529 74.9369 47.8925C74.5772 48.0279 74.1603 48.0956 73.6864 48.0956H72.5375V47.2451ZM72.5375 48.4384V47.6005H73.6864C74.2281 47.6005 74.6893 47.664 75.0702 47.791C75.4553 47.9179 75.7684 48.0935 76.0096 48.3178C76.2508 48.5379 76.4265 48.7897 76.5365 49.0732C76.6507 49.3567 76.7079 49.6572 76.7079 49.9745C76.7079 50.4062 76.6296 50.7913 76.473 51.1298C76.3207 51.4641 76.1027 51.7477 75.8192 51.9804C75.5357 52.2132 75.2035 52.3888 74.8226 52.5073C74.446 52.6258 74.0355 52.685 73.5912 52.685C73.1934 52.685 72.8125 52.63 72.4486 52.52C72.0847 52.4099 71.7588 52.247 71.4711 52.0312C71.1833 51.8111 70.9548 51.5382 70.7855 51.2123C70.6205 50.8823 70.538 50.5014 70.538 50.0698H72.0677C72.0677 50.3448 72.1312 50.5882 72.2582 50.7997C72.3894 51.0071 72.5713 51.17 72.8041 51.2885C73.041 51.407 73.3119 51.4662 73.6166 51.4662C73.9382 51.4662 74.2154 51.4091 74.4481 51.2949C74.6809 51.1806 74.8586 51.0113 74.9813 50.787C75.1083 50.5628 75.1717 50.2919 75.1717 49.9745C75.1717 49.6148 75.1019 49.3229 74.9623 49.0986C74.8226 48.8743 74.6237 48.7092 74.3656 48.6035C74.1075 48.4934 73.8028 48.4384 73.4515 48.4384H72.5375ZM84.0089 49.2636V50.4824H77.3439L77.2931 49.562L81.2795 43.3159H82.5046L81.1779 45.5883L78.8864 49.2636H84.0089ZM82.8537 43.3159V52.558H81.3239V43.3159H82.8537Z" fill="#0B1354"/>
<path d="M43.3477 83.6005C43.3477 83.368 43.3113 83.163 43.2383 82.9852C43.17 82.8029 43.0469 82.6389 42.8692 82.493C42.696 82.3472 42.4545 82.2082 42.1446 82.076C41.8393 81.9439 41.4519 81.8094 40.9825 81.6727C40.4903 81.5269 40.046 81.3651 39.6495 81.1874C39.253 81.0051 38.9135 80.7977 38.6309 80.5653C38.3484 80.3329 38.1319 80.0663 37.9815 79.7655C37.8311 79.4647 37.7559 79.1206 37.7559 78.7333C37.7559 78.3459 37.8357 77.9882 37.9952 77.66C38.1547 77.3319 38.3825 77.0471 38.6788 76.8055C38.9796 76.5594 39.3373 76.368 39.752 76.2313C40.1667 76.0946 40.6293 76.0262 41.1397 76.0262C41.8871 76.0262 42.5206 76.1698 43.0401 76.4569C43.5642 76.7395 43.963 77.1109 44.2364 77.5712C44.5098 78.0269 44.6465 78.5145 44.6465 79.0341H43.334C43.334 78.6604 43.2543 78.33 43.0948 78.0428C42.9353 77.7512 42.6937 77.5233 42.3702 77.3593C42.0466 77.1906 41.6365 77.1063 41.1397 77.1063C40.6703 77.1063 40.2829 77.177 39.9776 77.3182C39.6723 77.4595 39.4444 77.6509 39.294 77.8925C39.1482 78.134 39.0753 78.4097 39.0753 78.7196C39.0753 78.9292 39.1186 79.1206 39.2051 79.2938C39.2963 79.4624 39.4353 79.6197 39.6221 79.7655C39.8135 79.9113 40.0551 80.0458 40.3467 80.1688C40.643 80.2919 40.9962 80.4104 41.4063 80.5243C41.9714 80.6838 42.459 80.8615 42.8692 81.0575C43.2794 81.2535 43.6166 81.4745 43.8809 81.7206C44.1498 81.9621 44.348 82.2378 44.4756 82.5477C44.6078 82.8531 44.6739 83.1994 44.6739 83.5868C44.6739 83.9924 44.5919 84.3593 44.4278 84.6874C44.2637 85.0155 44.029 85.2958 43.7237 85.5282C43.4184 85.7606 43.0515 85.9406 42.6231 86.0682C42.1993 86.1913 41.7253 86.2528 41.2012 86.2528C40.7409 86.2528 40.2875 86.189 39.8409 86.0614C39.3988 85.9338 38.9955 85.7424 38.6309 85.4872C38.2709 85.232 37.9815 84.9175 37.7628 84.5438C37.5486 84.1656 37.4415 83.7281 37.4415 83.2313H38.754C38.754 83.5731 38.82 83.8671 38.9522 84.1132C39.0844 84.3547 39.2644 84.5552 39.4922 84.7147C39.7247 84.8742 39.9867 84.9927 40.2784 85.0702C40.5746 85.1431 40.8822 85.1796 41.2012 85.1796C41.6615 85.1796 42.0512 85.1158 42.3702 84.9882C42.6892 84.8606 42.9307 84.6783 43.0948 84.4413C43.2634 84.2043 43.3477 83.924 43.3477 83.6005ZM49.2335 86.2528C48.7185 86.2528 48.2514 86.1662 47.8321 85.993C47.4174 85.8153 47.0596 85.5669 46.7589 85.2479C46.4626 84.9289 46.2348 84.5507 46.0753 84.1132C45.9158 83.6757 45.836 83.1971 45.836 82.6776V82.3905C45.836 81.7889 45.9249 81.2535 46.1026 80.7841C46.2803 80.3101 46.5219 79.9091 46.8272 79.5809C47.1325 79.2528 47.4789 79.0044 47.8663 78.8358C48.2536 78.6672 48.6547 78.5829 49.0694 78.5829C49.598 78.5829 50.0538 78.674 50.4366 78.8563C50.824 79.0386 51.1407 79.2938 51.3868 79.6219C51.6329 79.9455 51.8152 80.3283 51.9337 80.7704C52.0521 81.2079 52.1114 81.6864 52.1114 82.2059V82.7733H46.588V81.7411H50.8467V81.6454C50.8285 81.3173 50.7602 80.9983 50.6417 80.6884C50.5277 80.3785 50.3454 80.1233 50.0948 79.9227C49.8441 79.7222 49.5023 79.6219 49.0694 79.6219C48.7823 79.6219 48.518 79.6835 48.2764 79.8065C48.0349 79.925 47.8275 80.1027 47.6544 80.3397C47.4812 80.5767 47.3467 80.8661 47.251 81.2079C47.1553 81.5497 47.1075 81.9439 47.1075 82.3905V82.6776C47.1075 83.0285 47.1553 83.3589 47.251 83.6688C47.3513 83.9742 47.4949 84.243 47.6817 84.4755C47.8731 84.7079 48.1033 84.8902 48.3721 85.0223C48.6456 85.1545 48.9555 85.2206 49.3018 85.2206C49.7484 85.2206 50.1267 85.1294 50.4366 84.9471C50.7465 84.7649 51.0176 84.521 51.2501 84.2157L52.0157 84.8241C51.8562 85.0656 51.6534 85.2958 51.4073 85.5145C51.1612 85.7333 50.8581 85.911 50.4981 86.0477C50.1426 86.1844 49.7211 86.2528 49.2335 86.2528ZM56.5479 85.2137C56.8487 85.2137 57.1267 85.1522 57.3819 85.0292C57.6371 84.9061 57.8467 84.7375 58.0108 84.5233C58.1749 84.3046 58.2683 84.0562 58.2911 83.7782H59.4942C59.4714 84.2157 59.3233 84.6236 59.0499 85.0018C58.781 85.3755 58.4278 85.6786 57.9903 85.911C57.5528 86.1389 57.072 86.2528 56.5479 86.2528C55.9919 86.2528 55.5066 86.1548 55.0919 85.9589C54.6817 85.7629 54.3399 85.494 54.0665 85.1522C53.7976 84.8104 53.5948 84.4185 53.4581 83.9764C53.3259 83.5298 53.2598 83.0581 53.2598 82.5614V82.2743C53.2598 81.7775 53.3259 81.3081 53.4581 80.8661C53.5948 80.4195 53.7976 80.0253 54.0665 79.6835C54.3399 79.3417 54.6817 79.0728 55.0919 78.8768C55.5066 78.6809 55.9919 78.5829 56.5479 78.5829C57.1267 78.5829 57.6325 78.7014 58.0655 78.9384C58.4984 79.1708 58.838 79.4898 59.084 79.8954C59.3347 80.2964 59.4714 80.7522 59.4942 81.2626H58.2911C58.2683 80.9572 58.1817 80.6815 58.0313 80.4354C57.8855 80.1893 57.685 79.9934 57.4297 79.8475C57.1791 79.6971 56.8852 79.6219 56.5479 79.6219C56.1605 79.6219 55.8347 79.6994 55.5704 79.8544C55.3106 80.0048 55.1033 80.2098 54.9483 80.4696C54.7979 80.7248 54.6885 81.0096 54.6202 81.3241C54.5564 81.634 54.5245 81.9507 54.5245 82.2743V82.5614C54.5245 82.885 54.5564 83.204 54.6202 83.5184C54.684 83.8329 54.7911 84.1177 54.9415 84.3729C55.0964 84.6281 55.3038 84.8332 55.5635 84.9882C55.8279 85.1385 56.156 85.2137 56.5479 85.2137ZM60.5811 82.4999V82.3427C60.5811 81.8094 60.6586 81.315 60.8135 80.8593C60.9685 80.399 61.1918 80.0002 61.4835 79.663C61.7751 79.3212 62.1283 79.0568 62.543 78.87C62.9577 78.6786 63.4226 78.5829 63.9376 78.5829C64.4571 78.5829 64.9242 78.6786 65.3389 78.87C65.7582 79.0568 66.1137 79.3212 66.4053 79.663C66.7016 80.0002 66.9271 80.399 67.0821 80.8593C67.237 81.315 67.3145 81.8094 67.3145 82.3427V82.4999C67.3145 83.0331 67.237 83.5275 67.0821 83.9833C66.9271 84.439 66.7016 84.8378 66.4053 85.1796C66.1137 85.5168 65.7605 85.7811 65.3458 85.9725C64.9356 86.1594 64.4708 86.2528 63.9512 86.2528C63.4317 86.2528 62.9646 86.1594 62.5499 85.9725C62.1352 85.7811 61.7797 85.5168 61.4835 85.1796C61.1918 84.8378 60.9685 84.439 60.8135 83.9833C60.6586 83.5275 60.5811 83.0331 60.5811 82.4999ZM61.8458 82.3427V82.4999C61.8458 82.869 61.8891 83.2177 61.9756 83.5458C62.0622 83.8693 62.1921 84.1565 62.3653 84.4071C62.543 84.6578 62.7641 84.856 63.0284 85.0018C63.2927 85.1431 63.6003 85.2137 63.9512 85.2137C64.2976 85.2137 64.6006 85.1431 64.8604 85.0018C65.1247 84.856 65.3435 84.6578 65.5167 84.4071C65.6898 84.1565 65.8197 83.8693 65.9063 83.5458C65.9975 83.2177 66.043 82.869 66.043 82.4999V82.3427C66.043 81.9781 65.9975 81.634 65.9063 81.3104C65.8197 80.9823 65.6876 80.6929 65.5098 80.4423C65.3366 80.1871 65.1179 79.9865 64.8536 79.8407C64.5938 79.6949 64.2885 79.6219 63.9376 79.6219C63.5912 79.6219 63.2859 79.6949 63.0215 79.8407C62.7618 79.9865 62.543 80.1871 62.3653 80.4423C62.1921 80.6929 62.0622 80.9823 61.9756 81.3104C61.8891 81.634 61.8458 81.9781 61.8458 82.3427ZM70.1651 80.2987V86.1161H68.9005V78.7196H70.0967L70.1651 80.2987ZM69.8643 82.1376L69.338 82.1171C69.3425 81.6112 69.4177 81.1441 69.5635 80.7157C69.7094 80.2828 69.9144 79.9068 70.1788 79.5878C70.4431 79.2688 70.7575 79.0227 71.1221 78.8495C71.4913 78.6718 71.8991 78.5829 72.3458 78.5829C72.7103 78.5829 73.0385 78.633 73.3301 78.7333C73.6218 78.829 73.8702 78.9839 74.0753 79.1981C74.2849 79.4123 74.4444 79.6903 74.5538 80.0321C74.6631 80.3693 74.7178 80.7818 74.7178 81.2694V86.1161H73.4464V81.2557C73.4464 80.8684 73.3894 80.5585 73.2755 80.326C73.1615 80.0891 72.9952 79.9182 72.7764 79.8134C72.5577 79.704 72.2888 79.6493 71.9698 79.6493C71.6553 79.6493 71.3682 79.7154 71.1085 79.8475C70.8533 79.9797 70.6322 80.162 70.4454 80.3944C70.2631 80.6268 70.1195 80.8934 70.0147 81.1942C69.9144 81.4904 69.8643 81.8049 69.8643 82.1376ZM81.3008 84.6805V75.6161H82.5723V86.1161H81.4102L81.3008 84.6805ZM76.3243 82.4999V82.3563C76.3243 81.7912 76.3926 81.2785 76.5294 80.8182C76.6706 80.3534 76.8689 79.9546 77.1241 79.6219C77.3839 79.2893 77.6915 79.0341 78.0469 78.8563C78.407 78.674 78.808 78.5829 79.2501 78.5829C79.7149 78.5829 80.1205 78.6649 80.4669 78.829C80.8178 78.9885 81.114 79.2232 81.3555 79.5331C81.6016 79.8384 81.7953 80.2076 81.9366 80.6405C82.0779 81.0734 82.1758 81.5634 82.2305 82.1102V82.7391C82.1804 83.2815 82.0824 83.7691 81.9366 84.202C81.7953 84.635 81.6016 85.0041 81.3555 85.3094C81.114 85.6148 80.8178 85.8495 80.4669 86.0135C80.1159 86.1731 79.7058 86.2528 79.2364 86.2528C78.8034 86.2528 78.407 86.1594 78.0469 85.9725C77.6915 85.7857 77.3839 85.5236 77.1241 85.1864C76.8689 84.8492 76.6706 84.4527 76.5294 83.9969C76.3926 83.5367 76.3243 83.0376 76.3243 82.4999ZM77.5958 82.3563V82.4999C77.5958 82.869 77.6322 83.2154 77.7051 83.5389C77.7826 83.8625 77.9011 84.1473 78.0606 84.3934C78.2201 84.6395 78.4229 84.8332 78.669 84.9745C78.9151 85.1112 79.209 85.1796 79.5508 85.1796C79.9701 85.1796 80.3142 85.0907 80.5831 84.913C80.8565 84.7352 81.0753 84.5005 81.2393 84.2089C81.4034 83.9172 81.531 83.6005 81.6221 83.2587V81.6112C81.5674 81.3606 81.4877 81.119 81.3829 80.8866C81.2826 80.6496 81.1505 80.44 80.9864 80.2577C80.8269 80.0708 80.6286 79.9227 80.3917 79.8134C80.1592 79.704 79.8835 79.6493 79.5645 79.6493C79.2182 79.6493 78.9197 79.7222 78.669 79.868C78.4229 80.0093 78.2201 80.2053 78.0606 80.4559C77.9011 80.702 77.7826 80.9891 77.7051 81.3173C77.6322 81.6408 77.5958 81.9872 77.5958 82.3563ZM88.9024 84.8514V81.0438C88.9024 80.7522 88.8432 80.4992 88.7247 80.285C88.6107 80.0663 88.4376 79.8977 88.2051 79.7792C87.9727 79.6607 87.6856 79.6014 87.3438 79.6014C87.0248 79.6014 86.7445 79.6561 86.503 79.7655C86.266 79.8749 86.0792 80.0184 85.9424 80.1962C85.8103 80.3739 85.7442 80.5653 85.7442 80.7704H84.4796C84.4796 80.5061 84.5479 80.244 84.6846 79.9843C84.8214 79.7245 85.0173 79.4898 85.2725 79.2802C85.5323 79.066 85.8422 78.8973 86.2022 78.7743C86.5668 78.6467 86.9724 78.5829 87.419 78.5829C87.9568 78.5829 88.4307 78.674 88.8409 78.8563C89.2556 79.0386 89.5792 79.3143 89.8116 79.6835C90.0486 80.0481 90.1671 80.5061 90.1671 81.0575V84.5028C90.1671 84.7489 90.1876 85.0109 90.2286 85.2889C90.2741 85.5669 90.3402 85.8062 90.4268 86.0067V86.1161H89.1075C89.0437 85.9703 88.9936 85.7766 88.9571 85.535C88.9206 85.2889 88.9024 85.0611 88.9024 84.8514ZM89.1212 81.6317L89.1348 82.5204H87.8565C87.4965 82.5204 87.1752 82.55 86.8926 82.6093C86.6101 82.6639 86.3731 82.7483 86.1817 82.8622C85.9903 82.9761 85.8445 83.1197 85.7442 83.2928C85.6439 83.4615 85.5938 83.6597 85.5938 83.8876C85.5938 84.12 85.6462 84.3319 85.751 84.5233C85.8559 84.7147 86.0131 84.8674 86.2227 84.9813C86.4369 85.0907 86.699 85.1454 87.0089 85.1454C87.3962 85.1454 87.738 85.0634 88.0342 84.8993C88.3305 84.7352 88.5652 84.5347 88.7383 84.2977C88.9161 84.0608 89.0118 83.8306 89.0255 83.6073L89.5655 84.2157C89.5336 84.4071 89.447 84.619 89.3057 84.8514C89.1644 85.0839 88.9753 85.3072 88.7383 85.5214C88.5059 85.731 88.2279 85.9065 87.9044 86.0477C87.5853 86.1844 87.2253 86.2528 86.8243 86.2528C86.323 86.2528 85.8832 86.1548 85.5049 85.9589C85.1312 85.7629 84.8396 85.5009 84.6299 85.1727C84.4249 84.84 84.3223 84.4686 84.3223 84.0585C84.3223 83.662 84.3998 83.3134 84.5547 83.0126C84.7097 82.7072 84.933 82.4543 85.2247 82.2538C85.5163 82.0487 85.8672 81.8938 86.2774 81.7889C86.6876 81.6841 87.1456 81.6317 87.6514 81.6317H89.1212ZM93.421 79.8817V86.1161H92.1563V78.7196H93.3868L93.421 79.8817ZM95.7315 78.6786L95.7247 79.8544C95.6199 79.8316 95.5196 79.8179 95.4239 79.8134C95.3327 79.8042 95.2279 79.7997 95.1094 79.7997C94.8178 79.7997 94.5603 79.8453 94.337 79.9364C94.1137 80.0275 93.9245 80.1552 93.7696 80.3192C93.6146 80.4833 93.4916 80.6792 93.4005 80.9071C93.3139 81.1304 93.2569 81.3765 93.2296 81.6454L92.8741 81.8505C92.8741 81.4038 92.9174 80.9846 93.004 80.5927C93.0951 80.2007 93.2341 79.8544 93.421 79.5536C93.6078 79.2483 93.8448 79.0113 94.1319 78.8427C94.4236 78.6695 94.7699 78.5829 95.171 78.5829C95.2621 78.5829 95.3669 78.5943 95.4854 78.6171C95.6039 78.6353 95.6859 78.6558 95.7315 78.6786ZM99.1016 85.3505L101.159 78.7196H102.513L99.546 87.2577C99.4776 87.44 99.3865 87.6359 99.2725 87.8456C99.1631 88.0598 99.0219 88.2626 98.8487 88.454C98.6755 88.6454 98.4659 88.8003 98.2198 88.9188C97.9783 89.0419 97.6889 89.1034 97.3516 89.1034C97.2514 89.1034 97.1238 89.0897 96.9688 89.0624C96.8139 89.035 96.7045 89.0122 96.6407 88.994L96.6339 87.9686C96.6703 87.9732 96.7273 87.9777 96.8047 87.9823C96.8868 87.9914 96.9437 87.996 96.9756 87.996C97.2628 87.996 97.5066 87.9572 97.7071 87.8798C97.9076 87.8068 98.0762 87.6815 98.213 87.5038C98.3542 87.3306 98.475 87.0913 98.5753 86.786L99.1016 85.3505ZM97.5909 78.7196L99.5118 84.4618L99.8399 85.7948L98.9307 86.2596L96.21 78.7196H97.5909ZM110.224 78.7196V79.6903H106.225V78.7196H110.224ZM107.578 76.9218H108.843V84.2841C108.843 84.5347 108.882 84.7238 108.959 84.8514C109.037 84.979 109.137 85.0634 109.26 85.1044C109.383 85.1454 109.515 85.1659 109.656 85.1659C109.761 85.1659 109.871 85.1568 109.984 85.1385C110.103 85.1158 110.192 85.0975 110.251 85.0839L110.258 86.1161C110.158 86.148 110.025 86.1776 109.861 86.205C109.702 86.2369 109.508 86.2528 109.28 86.2528C108.97 86.2528 108.686 86.1913 108.426 86.0682C108.166 85.9452 107.959 85.7401 107.804 85.453C107.653 85.1613 107.578 84.7694 107.578 84.2772V76.9218ZM114.776 86.2528C114.261 86.2528 113.794 86.1662 113.375 85.993C112.96 85.8153 112.603 85.5669 112.302 85.2479C112.006 84.9289 111.778 84.5507 111.618 84.1132C111.459 83.6757 111.379 83.1971 111.379 82.6776V82.3905C111.379 81.7889 111.468 81.2535 111.646 80.7841C111.823 80.3101 112.065 79.9091 112.37 79.5809C112.676 79.2528 113.022 79.0044 113.409 78.8358C113.797 78.6672 114.198 78.5829 114.612 78.5829C115.141 78.5829 115.597 78.674 115.98 78.8563C116.367 79.0386 116.684 79.2938 116.93 79.6219C117.176 79.9455 117.358 80.3283 117.477 80.7704C117.595 81.2079 117.654 81.6864 117.654 82.2059V82.7733H112.131V81.7411H116.39V81.6454C116.371 81.3173 116.303 80.9983 116.185 80.6884C116.071 80.3785 115.888 80.1233 115.638 79.9227C115.387 79.7222 115.045 79.6219 114.612 79.6219C114.325 79.6219 114.061 79.6835 113.819 79.8065C113.578 79.925 113.371 80.1027 113.197 80.3397C113.024 80.5767 112.89 80.8661 112.794 81.2079C112.698 81.5497 112.65 81.9439 112.65 82.3905V82.6776C112.65 83.0285 112.698 83.3589 112.794 83.6688C112.894 83.9742 113.038 84.243 113.225 84.4755C113.416 84.7079 113.646 84.8902 113.915 85.0223C114.189 85.1545 114.498 85.2206 114.845 85.2206C115.291 85.2206 115.67 85.1294 115.98 84.9471C116.289 84.7649 116.561 84.521 116.793 84.2157L117.559 84.8241C117.399 85.0656 117.196 85.2958 116.95 85.5145C116.704 85.7333 116.401 85.911 116.041 86.0477C115.686 86.1844 115.264 86.2528 114.776 86.2528ZM119.985 78.7196L121.606 81.413L123.246 78.7196H124.73L122.31 82.37L124.805 86.1161H123.342L121.633 83.3407L119.924 86.1161H118.454L120.942 82.37L118.529 78.7196H119.985ZM129.173 78.7196V79.6903H125.174V78.7196H129.173ZM126.527 76.9218H127.792V84.2841C127.792 84.5347 127.831 84.7238 127.908 84.8514C127.986 84.979 128.086 85.0634 128.209 85.1044C128.332 85.1454 128.464 85.1659 128.606 85.1659C128.71 85.1659 128.82 85.1568 128.934 85.1385C129.052 85.1158 129.141 85.0975 129.2 85.0839L129.207 86.1161C129.107 86.148 128.975 86.1776 128.811 86.205C128.651 86.2369 128.457 86.2528 128.23 86.2528C127.92 86.2528 127.635 86.1913 127.375 86.0682C127.115 85.9452 126.908 85.7401 126.753 85.453C126.603 85.1613 126.527 84.7694 126.527 84.2772V76.9218Z" fill="#4F4F4F"/>
<ellipse cx="506.527" cy="33.5357" rx="7.17006" ry="7.66072" fill="#BDBDBD"/>
<rect x="505.332" y="31.8334" width="2.39001" height="6.80951" rx="1.19501" fill="white"/>
<rect x="505.332" y="28.4286" width="2.39001" height="2.55357" rx="1.19501" fill="white"/>
<rect x="53.5204" y="119.58" width="459.677" height="105.612" stroke="#ECECEC"/>
<path d="M53.0204 154.192H513.697" stroke="#ECECEC"/>
<path d="M53.0204 136.955H513.697" stroke="#ECECEC"/>
<path d="M53.0204 171.429H244.82" stroke="#ECECEC"/>
<path d="M53.0204 188.665H513.697" stroke="#ECECEC"/>
<path d="M53.0204 205.902H513.697" stroke="#ECECEC"/>
<path d="M130.696 119.08L130.696 225.692" stroke="#ECECEC"/>
<path d="M206.579 119.08L206.579 225.692" stroke="#ECECEC"/>
<path d="M282.463 119.08L282.463 225.692" stroke="#ECECEC"/>
<path d="M358.943 119.08L358.943 225.692" stroke="#ECECEC"/>
<path d="M434.827 119.08L434.827 225.692" stroke="#ECECEC"/>
<path d="M37.6306 225.199V226.136H33.8124V225.199H37.6306ZM42.4513 221.304V230.031H41.3945V222.412H41.3433L39.2127 223.827V222.753L41.3945 221.304H42.4513ZM32.8078 245.151C32.1658 245.151 31.6189 244.976 31.1672 244.626C30.7155 244.274 30.3703 243.764 30.1317 243.097C29.8931 242.426 29.7737 241.616 29.7737 240.668C29.7737 239.724 29.8931 238.919 30.1317 238.251C30.3732 237.581 30.7198 237.07 31.1715 236.717C31.626 236.362 32.1715 236.185 32.8078 236.185C33.4442 236.185 33.9882 236.362 34.4399 236.717C34.8945 237.07 35.2411 237.581 35.4797 238.251C35.7212 238.919 35.8419 239.724 35.8419 240.668C35.8419 241.616 35.7226 242.426 35.484 243.097C35.2453 243.764 34.9002 244.274 34.4485 244.626C33.9967 244.976 33.4499 245.151 32.8078 245.151ZM32.8078 244.213C33.4442 244.213 33.9385 243.906 34.2908 243.293C34.6431 242.679 34.8192 241.804 34.8192 240.668C34.8192 239.912 34.7382 239.268 34.5763 238.737C34.4172 238.206 34.1871 237.801 33.886 237.523C33.5877 237.244 33.2283 237.105 32.8078 237.105C32.1771 237.105 31.6842 237.416 31.3291 238.038C30.974 238.658 30.7965 239.534 30.7965 240.668C30.7965 241.423 30.876 242.065 31.0351 242.594C31.1942 243.122 31.4229 243.524 31.7212 243.8C32.0223 244.075 32.3845 244.213 32.8078 244.213ZM40.3078 245.151C39.6658 245.151 39.1189 244.976 38.6672 244.626C38.2155 244.274 37.8703 243.764 37.6317 243.097C37.3931 242.426 37.2737 241.616 37.2737 240.668C37.2737 239.724 37.3931 238.919 37.6317 238.251C37.8732 237.581 38.2198 237.07 38.6715 236.717C39.126 236.362 39.6715 236.185 40.3078 236.185C40.9442 236.185 41.4882 236.362 41.9399 236.717C42.3945 237.07 42.7411 237.581 42.9797 238.251C43.2212 238.919 43.3419 239.724 43.3419 240.668C43.3419 241.616 43.2226 242.426 42.984 243.097C42.7453 243.764 42.4002 244.274 41.9485 244.626C41.4967 244.976 40.9499 245.151 40.3078 245.151ZM40.3078 244.213C40.9442 244.213 41.4385 243.906 41.7908 243.293C42.1431 242.679 42.3192 241.804 42.3192 240.668C42.3192 239.912 42.2382 239.268 42.0763 238.737C41.9172 238.206 41.6871 237.801 41.386 237.523C41.0877 237.244 40.7283 237.105 40.3078 237.105C39.6771 237.105 39.1842 237.416 38.8291 238.038C38.474 238.658 38.2965 239.534 38.2965 240.668C38.2965 241.423 38.376 242.065 38.5351 242.594C38.6942 243.122 38.9229 243.524 39.2212 243.8C39.5223 244.075 39.8845 244.213 40.3078 244.213Z" fill="#4F4F4F"/>
<path d="M36.3533 188.172V189.11H32.5351V188.172H36.3533ZM37.6956 193.005V192.237L40.5763 189.084C40.9144 188.715 41.1928 188.394 41.4115 188.121C41.6303 187.845 41.7922 187.587 41.8973 187.345C42.0053 187.101 42.0592 186.845 42.0592 186.578C42.0592 186.272 41.9854 186.006 41.8377 185.782C41.6928 185.557 41.4939 185.384 41.2411 185.262C40.9882 185.139 40.7041 185.078 40.3888 185.078C40.0536 185.078 39.761 185.148 39.511 185.287C39.2638 185.424 39.072 185.615 38.9357 185.862C38.8021 186.11 38.7354 186.399 38.7354 186.732H37.7297C37.7297 186.22 37.8476 185.772 38.0834 185.385C38.3192 184.999 38.6402 184.698 39.0465 184.482C39.4556 184.266 39.9144 184.158 40.4229 184.158C40.9342 184.158 41.3874 184.266 41.7823 184.482C42.1771 184.698 42.4868 184.989 42.7112 185.355C42.9357 185.722 43.0479 186.13 43.0479 186.578C43.0479 186.899 42.9896 187.213 42.8732 187.52C42.7595 187.824 42.5607 188.164 42.2766 188.539C41.9953 188.911 41.6047 189.365 41.1047 189.902L39.1445 191.999V192.067H43.2013V193.005H37.6956ZM40.3078 208.124C39.6658 208.124 39.1189 207.949 38.6672 207.6C38.2155 207.247 37.8703 206.737 37.6317 206.07C37.3931 205.399 37.2737 204.59 37.2737 203.641C37.2737 202.698 37.3931 201.892 37.6317 201.225C37.8732 200.554 38.2198 200.043 38.6715 199.691C39.126 199.335 39.6715 199.158 40.3078 199.158C40.9442 199.158 41.4882 199.335 41.9399 199.691C42.3945 200.043 42.7411 200.554 42.9797 201.225C43.2212 201.892 43.3419 202.698 43.3419 203.641C43.3419 204.59 43.2226 205.399 42.984 206.07C42.7453 206.737 42.4002 207.247 41.9485 207.6C41.4967 207.949 40.9499 208.124 40.3078 208.124ZM40.3078 207.186C40.9442 207.186 41.4385 206.88 41.7908 206.266C42.1431 205.652 42.3192 204.777 42.3192 203.641C42.3192 202.885 42.2382 202.242 42.0763 201.71C41.9172 201.179 41.6871 200.774 41.386 200.496C41.0877 200.218 40.7283 200.078 40.3078 200.078C39.6771 200.078 39.1842 200.389 38.8291 201.012C38.474 201.631 38.2965 202.507 38.2965 203.641C38.2965 204.397 38.376 205.039 38.5351 205.567C38.6942 206.095 38.9229 206.497 39.2212 206.773C39.5223 207.049 39.8845 207.186 40.3078 207.186Z" fill="#4F4F4F"/>
<path d="M40.3078 176.526C39.6658 176.526 39.1189 176.351 38.6672 176.001C38.2155 175.649 37.8703 175.139 37.6317 174.472C37.3931 173.801 37.2737 172.991 37.2737 172.043C37.2737 171.099 37.3931 170.294 37.6317 169.626C37.8732 168.956 38.2198 168.445 38.6715 168.092C39.126 167.737 39.6715 167.56 40.3078 167.56C40.9442 167.56 41.4882 167.737 41.9399 168.092C42.3945 168.445 42.7411 168.956 42.9797 169.626C43.2212 170.294 43.3419 171.099 43.3419 172.043C43.3419 172.991 43.2226 173.801 42.984 174.472C42.7453 175.139 42.4002 175.649 41.9485 176.001C41.4967 176.351 40.9499 176.526 40.3078 176.526ZM40.3078 175.588C40.9442 175.588 41.4385 175.281 41.7908 174.668C42.1431 174.054 42.3192 173.179 42.3192 172.043C42.3192 171.287 42.2382 170.643 42.0763 170.112C41.9172 169.581 41.6871 169.176 41.386 168.898C41.0877 168.619 40.7283 168.48 40.3078 168.48C39.6771 168.48 39.1842 168.791 38.8291 169.413C38.474 170.033 38.2965 170.909 38.2965 172.043C38.2965 172.798 38.376 173.44 38.5351 173.969C38.6942 174.497 38.9229 174.899 39.2212 175.175C39.5223 175.45 39.8845 175.588 40.3078 175.588Z" fill="#4F4F4F"/>
<path d="M30.1956 158.531V157.764L33.0763 154.611C33.4144 154.241 33.6928 153.92 33.9115 153.648C34.1303 153.372 34.2922 153.114 34.3973 152.872C34.5053 152.628 34.5592 152.372 34.5592 152.105C34.5592 151.798 34.4854 151.533 34.3377 151.308C34.1928 151.084 33.9939 150.911 33.7411 150.788C33.4882 150.666 33.2041 150.605 32.8888 150.605C32.5536 150.605 32.261 150.675 32.011 150.814C31.7638 150.95 31.572 151.142 31.4357 151.389C31.3021 151.636 31.2354 151.926 31.2354 152.259H30.2297C30.2297 151.747 30.3476 151.298 30.5834 150.912C30.8192 150.526 31.1402 150.224 31.5465 150.009C31.9556 149.793 32.4144 149.685 32.9229 149.685C33.4342 149.685 33.8874 149.793 34.2823 150.009C34.6771 150.224 34.9868 150.516 35.2112 150.882C35.4357 151.249 35.5479 151.656 35.5479 152.105C35.5479 152.426 35.4896 152.74 35.3732 153.047C35.2595 153.351 35.0607 153.69 34.7766 154.065C34.4953 154.437 34.1047 154.892 33.6047 155.429L31.6445 157.526V157.594H35.7013V158.531H30.1956ZM40.3078 158.651C39.6658 158.651 39.1189 158.476 38.6672 158.126C38.2155 157.774 37.8703 157.264 37.6317 156.597C37.3931 155.926 37.2737 155.116 37.2737 154.168C37.2737 153.224 37.3931 152.419 37.6317 151.751C37.8732 151.081 38.2198 150.57 38.6715 150.217C39.126 149.862 39.6715 149.685 40.3078 149.685C40.9442 149.685 41.4882 149.862 41.9399 150.217C42.3945 150.57 42.7411 151.081 42.9797 151.751C43.2212 152.419 43.3419 153.224 43.3419 154.168C43.3419 155.116 43.2226 155.926 42.984 156.597C42.7453 157.264 42.4002 157.774 41.9485 158.126C41.4967 158.476 40.9499 158.651 40.3078 158.651ZM40.3078 157.713C40.9442 157.713 41.4385 157.406 41.7908 156.793C42.1431 156.179 42.3192 155.304 42.3192 154.168C42.3192 153.412 42.2382 152.768 42.0763 152.237C41.9172 151.706 41.6871 151.301 41.386 151.023C41.0877 150.744 40.7283 150.605 40.3078 150.605C39.6771 150.605 39.1842 150.916 38.8291 151.538C38.474 152.158 38.2965 153.034 38.2965 154.168C38.2965 154.923 38.376 155.565 38.5351 156.094C38.6942 156.622 38.9229 157.024 39.2212 157.3C39.5223 157.575 39.8845 157.713 40.3078 157.713Z" fill="#4F4F4F"/>
<path d="M32.8707 141.414C32.5127 141.408 32.1548 141.34 31.7968 141.209C31.4389 141.079 31.1122 140.859 30.8167 140.549C30.5212 140.236 30.284 139.815 30.1051 139.283C29.9261 138.749 29.8366 138.079 29.8366 137.272C29.8366 136.499 29.909 135.815 30.0539 135.218C30.1988 134.618 30.409 134.114 30.6846 133.705C30.9602 133.293 31.2926 132.981 31.6818 132.768C32.0738 132.555 32.5156 132.448 33.007 132.448C33.4957 132.448 33.9303 132.546 34.311 132.742C34.6945 132.935 35.007 133.205 35.2485 133.552C35.49 133.898 35.6462 134.297 35.7173 134.749H34.6775C34.5809 134.357 34.3934 134.032 34.115 133.773C33.8366 133.515 33.4673 133.386 33.007 133.386C32.3309 133.386 31.7982 133.68 31.409 134.268C31.0227 134.856 30.8281 135.681 30.8252 136.743H30.8934C31.0525 136.502 31.2414 136.296 31.4602 136.126C31.6818 135.952 31.9261 135.819 32.1931 135.725C32.4602 135.631 32.7428 135.584 33.0411 135.584C33.5411 135.584 33.9985 135.709 34.4133 135.959C34.8281 136.207 35.1605 136.549 35.4105 136.986C35.6605 137.421 35.7855 137.92 35.7855 138.482C35.7855 139.022 35.6647 139.516 35.4232 139.965C35.1818 140.411 34.8423 140.766 34.4048 141.03C33.9701 141.292 33.4587 141.42 32.8707 141.414ZM32.8707 140.476C33.2286 140.476 33.5497 140.387 33.8337 140.208C34.1207 140.029 34.3465 139.789 34.5113 139.488C34.6789 139.187 34.7627 138.851 34.7627 138.482C34.7627 138.121 34.6818 137.793 34.5198 137.498C34.3607 137.199 34.1406 136.962 33.8593 136.786C33.5809 136.61 33.2627 136.522 32.9048 136.522C32.6349 136.522 32.3835 136.576 32.1505 136.684C31.9176 136.789 31.713 136.934 31.5369 137.118C31.3636 137.303 31.2272 137.515 31.1278 137.753C31.0284 137.989 30.9786 138.238 30.9786 138.499C30.9786 138.846 31.0596 139.17 31.2215 139.471C31.3863 139.772 31.6107 140.015 31.8948 140.199C32.1818 140.384 32.507 140.476 32.8707 140.476ZM40.3078 141.414C39.6658 141.414 39.1189 141.239 38.6672 140.89C38.2155 140.538 37.8703 140.028 37.6317 139.36C37.3931 138.69 37.2737 137.88 37.2737 136.931C37.2737 135.988 37.3931 135.182 37.6317 134.515C37.8732 133.844 38.2198 133.333 38.6715 132.981C39.126 132.626 39.6715 132.448 40.3078 132.448C40.9442 132.448 41.4882 132.626 41.9399 132.981C42.3945 133.333 42.7411 133.844 42.9797 134.515C43.2212 135.182 43.3419 135.988 43.3419 136.931C43.3419 137.88 43.2226 138.69 42.984 139.36C42.7453 140.028 42.4002 140.538 41.9485 140.89C41.4967 141.239 40.9499 141.414 40.3078 141.414ZM40.3078 140.476C40.9442 140.476 41.4385 140.17 41.7908 139.556C42.1431 138.942 42.3192 138.067 42.3192 136.931C42.3192 136.175 42.2382 135.532 42.0763 135.001C41.9172 134.469 41.6871 134.065 41.386 133.786C41.0877 133.508 40.7283 133.368 40.3078 133.368C39.6771 133.368 39.1842 133.68 38.8291 134.302C38.474 134.921 38.2965 135.797 38.2965 136.931C38.2965 137.687 38.376 138.329 38.5351 138.857C38.6942 139.386 38.9229 139.788 39.2212 140.063C39.5223 140.339 39.8845 140.476 40.3078 140.476Z" fill="#4F4F4F"/>
<path d="M10 100.567H537" stroke="#ECECEC" stroke-width="2"/>
<path d="M72.0024 275.357V266.63H74.9513C75.6359 266.63 76.1956 266.753 76.6302 267.001C77.0677 267.245 77.3916 267.576 77.6018 267.994C77.8121 268.411 77.9172 268.877 77.9172 269.391C77.9172 269.905 77.8121 270.373 77.6018 270.793C77.3944 271.214 77.0734 271.549 76.6388 271.799C76.2041 272.046 75.6473 272.17 74.9683 272.17H72.8547V271.232H74.9342C75.403 271.232 75.7794 271.151 76.0635 270.989C76.3476 270.827 76.5535 270.609 76.6814 270.333C76.8121 270.055 76.8774 269.741 76.8774 269.391C76.8774 269.042 76.8121 268.729 76.6814 268.454C76.5535 268.178 76.3461 267.962 76.0592 267.806C75.7723 267.647 75.3916 267.567 74.9172 267.567H73.0592V275.357H72.0024ZM79.4832 275.357V268.812H80.4548V269.8H80.523C80.6423 269.476 80.8582 269.214 81.1707 269.012C81.4832 268.81 81.8355 268.709 82.2275 268.709C82.3014 268.709 82.3937 268.711 82.5045 268.714C82.6153 268.717 82.6991 268.721 82.7559 268.726V269.749C82.7219 269.741 82.6437 269.728 82.5216 269.711C82.4023 269.691 82.2758 269.681 82.1423 269.681C81.8241 269.681 81.54 269.748 81.29 269.881C81.0429 270.012 80.8469 270.194 80.702 270.427C80.5599 270.657 80.4889 270.92 80.4889 271.215V275.357H79.4832ZM86.4079 275.494C85.817 275.494 85.2986 275.353 84.8525 275.072C84.4094 274.79 84.0628 274.397 83.8128 273.891C83.5656 273.386 83.442 272.795 83.442 272.119C83.442 271.437 83.5656 270.842 83.8128 270.333C84.0628 269.825 84.4094 269.43 84.8525 269.148C85.2986 268.867 85.817 268.726 86.4079 268.726C86.9988 268.726 87.5159 268.867 87.9591 269.148C88.4051 269.43 88.7517 269.825 88.9988 270.333C89.2488 270.842 89.3738 271.437 89.3738 272.119C89.3738 272.795 89.2488 273.386 88.9988 273.891C88.7517 274.397 88.4051 274.79 87.9591 275.072C87.5159 275.353 86.9988 275.494 86.4079 275.494ZM86.4079 274.59C86.8568 274.59 87.2261 274.475 87.5159 274.245C87.8057 274.015 88.0202 273.712 88.1594 273.337C88.2986 272.962 88.3682 272.556 88.3682 272.119C88.3682 271.681 88.2986 271.273 88.1594 270.896C88.0202 270.518 87.8057 270.212 87.5159 269.979C87.2261 269.746 86.8568 269.63 86.4079 269.63C85.9591 269.63 85.5898 269.746 85.3 269.979C85.0102 270.212 84.7957 270.518 84.6565 270.896C84.5173 271.273 84.4477 271.681 84.4477 272.119C84.4477 272.556 84.5173 272.962 84.6565 273.337C84.7957 273.712 85.0102 274.015 85.3 274.245C85.5898 274.475 85.9591 274.59 86.4079 274.59ZM93.3806 275.494C92.8351 275.494 92.3536 275.356 91.936 275.08C91.5184 274.802 91.1917 274.41 90.9559 273.904C90.7201 273.396 90.6022 272.795 90.6022 272.101C90.6022 271.414 90.7201 270.817 90.9559 270.312C91.1917 269.806 91.5198 269.415 91.9403 269.14C92.3607 268.864 92.8465 268.726 93.3976 268.726C93.8238 268.726 94.1604 268.798 94.4076 268.94C94.6576 269.079 94.8479 269.238 94.9786 269.417C95.1121 269.593 95.2158 269.738 95.2897 269.851H95.3749V266.63H96.3806V275.357H95.409V274.351H95.2897C95.2158 274.471 95.1107 274.621 94.9743 274.803C94.838 274.982 94.6434 275.143 94.3905 275.285C94.1377 275.424 93.801 275.494 93.3806 275.494ZM93.517 274.59C93.9204 274.59 94.2613 274.485 94.5397 274.275C94.8181 274.062 95.0297 273.768 95.1746 273.393C95.3195 273.015 95.392 272.579 95.392 272.084C95.392 271.596 95.3209 271.168 95.1789 270.802C95.0368 270.432 94.8266 270.146 94.5482 269.941C94.2698 269.734 93.926 269.63 93.517 269.63C93.0908 269.63 92.7357 269.739 92.4516 269.958C92.1704 270.174 91.9587 270.468 91.8167 270.84C91.6775 271.209 91.6079 271.624 91.6079 272.084C91.6079 272.55 91.6789 272.974 91.8209 273.354C91.9658 273.732 92.1789 274.033 92.4601 274.258C92.7442 274.479 93.0965 274.59 93.517 274.59ZM75.991 287.681V283.812H76.9967V290.357H75.991V289.249H75.9229C75.7694 289.582 75.5308 289.864 75.2069 290.097C74.8831 290.327 74.474 290.442 73.9797 290.442C73.5706 290.442 73.2069 290.353 72.8888 290.174C72.5706 289.992 72.3206 289.719 72.1388 289.356C71.9569 288.989 71.866 288.528 71.866 287.971V283.812H72.8717V287.903C72.8717 288.38 73.0052 288.761 73.2723 289.045C73.5422 289.329 73.8859 289.471 74.3035 289.471C74.5535 289.471 74.8078 289.407 75.0663 289.279C75.3277 289.151 75.5464 288.955 75.7226 288.691C75.9015 288.427 75.991 288.09 75.991 287.681ZM81.4978 290.494C80.8841 290.494 80.3557 290.349 79.9126 290.059C79.4694 289.769 79.1285 289.37 78.8898 288.861C78.6512 288.353 78.5319 287.772 78.5319 287.119C78.5319 286.454 78.654 285.867 78.8983 285.359C79.1455 284.847 79.4893 284.448 79.9296 284.161C80.3728 283.871 80.8898 283.726 81.4807 283.726C81.941 283.726 82.3557 283.812 82.7251 283.982C83.0944 284.153 83.3969 284.391 83.6327 284.698C83.8685 285.005 84.0148 285.363 84.0716 285.772H83.066C82.9893 285.474 82.8188 285.209 82.5546 284.979C82.2932 284.746 81.941 284.63 81.4978 284.63C81.1057 284.63 80.762 284.732 80.4665 284.937C80.1739 285.138 79.9452 285.424 79.7805 285.793C79.6185 286.16 79.5376 286.59 79.5376 287.084C79.5376 287.59 79.6171 288.03 79.7762 288.405C79.9381 288.78 80.1654 289.072 80.458 289.279C80.7535 289.486 81.1001 289.59 81.4978 289.59C81.7591 289.59 81.9964 289.545 82.2094 289.454C82.4225 289.363 82.6029 289.232 82.7506 289.062C82.8983 288.891 83.0035 288.687 83.066 288.448H84.0716C84.0148 288.834 83.8742 289.182 83.6498 289.492C83.4282 289.799 83.1341 290.043 82.7677 290.225C82.404 290.404 81.9807 290.494 81.4978 290.494ZM88.3884 283.812V284.664H84.9964V283.812H88.3884ZM85.985 282.244H86.9907V288.482C86.9907 288.766 87.0319 288.979 87.1143 289.121C87.1995 289.261 87.3074 289.354 87.4381 289.403C87.5716 289.448 87.7123 289.471 87.86 289.471C87.9708 289.471 88.0617 289.465 88.1327 289.454C88.2037 289.44 88.2606 289.428 88.3032 289.42L88.5077 290.323C88.4395 290.349 88.3444 290.374 88.2222 290.4C88.1001 290.428 87.9452 290.442 87.7577 290.442C87.4736 290.442 87.1952 290.381 86.9225 290.259C86.6526 290.137 86.4282 289.951 86.2492 289.701C86.0731 289.451 85.985 289.136 85.985 288.755V282.244ZM96.3273 281.63V290.357H95.2705V282.738H95.2194L93.0887 284.153V283.079L95.2705 281.63H96.3273Z" fill="#4F4F4F"/>
<rect x="53.0204" y="265.911" width="12.5476" height="5.10715" fill="#09ADE2"/>
<path d="M134.143 275.357V266.63H137.092C137.777 266.63 138.336 266.753 138.771 267.001C139.208 267.245 139.532 267.576 139.742 267.994C139.953 268.411 140.058 268.877 140.058 269.391C140.058 269.905 139.953 270.373 139.742 270.793C139.535 271.214 139.214 271.549 138.779 271.799C138.345 272.046 137.788 272.17 137.109 272.17H134.995V271.232H137.075C137.544 271.232 137.92 271.151 138.204 270.989C138.488 270.827 138.694 270.609 138.822 270.333C138.953 270.055 139.018 269.741 139.018 269.391C139.018 269.042 138.953 268.729 138.822 268.454C138.694 268.178 138.487 267.962 138.2 267.806C137.913 267.647 137.532 267.567 137.058 267.567H135.2V275.357H134.143ZM141.624 275.357V268.812H142.595V269.8H142.664C142.783 269.476 142.999 269.214 143.311 269.012C143.624 268.81 143.976 268.709 144.368 268.709C144.442 268.709 144.534 268.711 144.645 268.714C144.756 268.717 144.84 268.721 144.897 268.726V269.749C144.862 269.741 144.784 269.728 144.662 269.711C144.543 269.691 144.416 269.681 144.283 269.681C143.965 269.681 143.681 269.748 143.431 269.881C143.183 270.012 142.987 270.194 142.843 270.427C142.701 270.657 142.629 270.92 142.629 271.215V275.357H141.624ZM148.549 275.494C147.958 275.494 147.439 275.353 146.993 275.072C146.55 274.79 146.203 274.397 145.953 273.891C145.706 273.386 145.583 272.795 145.583 272.119C145.583 271.437 145.706 270.842 145.953 270.333C146.203 269.825 146.55 269.43 146.993 269.148C147.439 268.867 147.958 268.726 148.549 268.726C149.139 268.726 149.656 268.867 150.1 269.148C150.546 269.43 150.892 269.825 151.139 270.333C151.389 270.842 151.514 271.437 151.514 272.119C151.514 272.795 151.389 273.386 151.139 273.891C150.892 274.397 150.546 274.79 150.1 275.072C149.656 275.353 149.139 275.494 148.549 275.494ZM148.549 274.59C148.997 274.59 149.367 274.475 149.656 274.245C149.946 274.015 150.161 273.712 150.3 273.337C150.439 272.962 150.509 272.556 150.509 272.119C150.509 271.681 150.439 271.273 150.3 270.896C150.161 270.518 149.946 270.212 149.656 269.979C149.367 269.746 148.997 269.63 148.549 269.63C148.1 269.63 147.73 269.746 147.441 269.979C147.151 270.212 146.936 270.518 146.797 270.896C146.658 271.273 146.588 271.681 146.588 272.119C146.588 272.556 146.658 272.962 146.797 273.337C146.936 273.712 147.151 274.015 147.441 274.245C147.73 274.475 148.1 274.59 148.549 274.59ZM155.521 275.494C154.976 275.494 154.494 275.356 154.077 275.08C153.659 274.802 153.332 274.41 153.096 273.904C152.861 273.396 152.743 272.795 152.743 272.101C152.743 271.414 152.861 270.817 153.096 270.312C153.332 269.806 153.66 269.415 154.081 269.14C154.501 268.864 154.987 268.726 155.538 268.726C155.964 268.726 156.301 268.798 156.548 268.94C156.798 269.079 156.989 269.238 157.119 269.417C157.253 269.593 157.356 269.738 157.43 269.851H157.515V266.63H158.521V275.357H157.55V274.351H157.43C157.356 274.471 157.251 274.621 157.115 274.803C156.979 274.982 156.784 275.143 156.531 275.285C156.278 275.424 155.942 275.494 155.521 275.494ZM155.658 274.59C156.061 274.59 156.402 274.485 156.68 274.275C156.959 274.062 157.17 273.768 157.315 273.393C157.46 273.015 157.533 272.579 157.533 272.084C157.533 271.596 157.462 271.168 157.319 270.802C157.177 270.432 156.967 270.146 156.689 269.941C156.41 269.734 156.067 269.63 155.658 269.63C155.231 269.63 154.876 269.739 154.592 269.958C154.311 270.174 154.099 270.468 153.957 270.84C153.818 271.209 153.748 271.624 153.748 272.084C153.748 272.55 153.819 272.974 153.962 273.354C154.106 273.732 154.319 274.033 154.601 274.258C154.885 274.479 155.237 274.59 155.658 274.59ZM138.132 287.681V283.812H139.137V290.357H138.132V289.249H138.063C137.91 289.582 137.671 289.864 137.348 290.097C137.024 290.327 136.615 290.442 136.12 290.442C135.711 290.442 135.348 290.353 135.029 290.174C134.711 289.992 134.461 289.719 134.279 289.356C134.098 288.989 134.007 288.528 134.007 287.971V283.812H135.012V287.903C135.012 288.38 135.146 288.761 135.413 289.045C135.683 289.329 136.027 289.471 136.444 289.471C136.694 289.471 136.948 289.407 137.207 289.279C137.468 289.151 137.687 288.955 137.863 288.691C138.042 288.427 138.132 288.09 138.132 287.681ZM143.638 290.494C143.025 290.494 142.496 290.349 142.053 290.059C141.61 289.769 141.269 289.37 141.03 288.861C140.792 288.353 140.672 287.772 140.672 287.119C140.672 286.454 140.795 285.867 141.039 285.359C141.286 284.847 141.63 284.448 142.07 284.161C142.513 283.871 143.03 283.726 143.621 283.726C144.082 283.726 144.496 283.812 144.866 283.982C145.235 284.153 145.538 284.391 145.773 284.698C146.009 285.005 146.155 285.363 146.212 285.772H145.207C145.13 285.474 144.959 285.209 144.695 284.979C144.434 284.746 144.082 284.63 143.638 284.63C143.246 284.63 142.903 284.732 142.607 284.937C142.315 285.138 142.086 285.424 141.921 285.793C141.759 286.16 141.678 286.59 141.678 287.084C141.678 287.59 141.758 288.03 141.917 288.405C142.079 288.78 142.306 289.072 142.599 289.279C142.894 289.486 143.241 289.59 143.638 289.59C143.9 289.59 144.137 289.545 144.35 289.454C144.563 289.363 144.743 289.232 144.891 289.062C145.039 288.891 145.144 288.687 145.207 288.448H146.212C146.155 288.834 146.015 289.182 145.79 289.492C145.569 289.799 145.275 290.043 144.908 290.225C144.545 290.404 144.121 290.494 143.638 290.494ZM150.529 283.812V284.664H147.137V283.812H150.529ZM148.126 282.244H149.131V288.482C149.131 288.766 149.172 288.979 149.255 289.121C149.34 289.261 149.448 289.354 149.579 289.403C149.712 289.448 149.853 289.471 150.001 289.471C150.111 289.471 150.202 289.465 150.273 289.454C150.344 289.44 150.401 289.428 150.444 289.42L150.648 290.323C150.58 290.349 150.485 290.374 150.363 290.4C150.241 290.428 150.086 290.442 149.898 290.442C149.614 290.442 149.336 290.381 149.063 290.259C148.793 290.137 148.569 289.951 148.39 289.701C148.214 289.451 148.126 289.136 148.126 288.755V282.244ZM155.4 290.357V289.59L158.28 286.437C158.618 286.067 158.897 285.746 159.116 285.474C159.334 285.198 159.496 284.94 159.601 284.698C159.709 284.454 159.763 284.198 159.763 283.931C159.763 283.624 159.69 283.359 159.542 283.134C159.397 282.91 159.198 282.736 158.945 282.614C158.692 282.492 158.408 282.431 158.093 282.431C157.758 282.431 157.465 282.501 157.215 282.64C156.968 282.776 156.776 282.968 156.64 283.215C156.506 283.462 156.44 283.752 156.44 284.084H155.434C155.434 283.573 155.552 283.124 155.788 282.738C156.023 282.351 156.344 282.05 156.751 281.834C157.16 281.619 157.618 281.511 158.127 281.511C158.638 281.511 159.091 281.619 159.486 281.834C159.881 282.05 160.191 282.342 160.415 282.708C160.64 283.075 160.752 283.482 160.752 283.931C160.752 284.252 160.694 284.566 160.577 284.873C160.464 285.177 160.265 285.516 159.981 285.891C159.699 286.263 159.309 286.718 158.809 287.255L156.849 289.351V289.42H160.905V290.357H155.4Z" fill="#4F4F4F"/>
<rect x="115.161" y="265.911" width="12.5476" height="5.10715" fill="#F2994A"/>
<path d="M199.271 275.357V266.63H202.22C202.905 266.63 203.464 266.753 203.899 267.001C204.336 267.245 204.66 267.576 204.871 267.994C205.081 268.411 205.186 268.877 205.186 269.391C205.186 269.905 205.081 270.373 204.871 270.793C204.663 271.214 204.342 271.549 203.907 271.799C203.473 272.046 202.916 272.17 202.237 272.17H200.123V271.232H202.203C202.672 271.232 203.048 271.151 203.332 270.989C203.616 270.827 203.822 270.609 203.95 270.333C204.081 270.055 204.146 269.741 204.146 269.391C204.146 269.042 204.081 268.729 203.95 268.454C203.822 268.178 203.615 267.962 203.328 267.806C203.041 267.647 202.66 267.567 202.186 267.567H200.328V275.357H199.271ZM206.752 275.357V268.812H207.724V269.8H207.792C207.911 269.476 208.127 269.214 208.439 269.012C208.752 268.81 209.104 268.709 209.496 268.709C209.57 268.709 209.662 268.711 209.773 268.714C209.884 268.717 209.968 268.721 210.025 268.726V269.749C209.991 269.741 209.912 269.728 209.79 269.711C209.671 269.691 209.545 269.681 209.411 269.681C209.093 269.681 208.809 269.748 208.559 269.881C208.312 270.012 208.116 270.194 207.971 270.427C207.829 270.657 207.758 270.92 207.758 271.215V275.357H206.752ZM213.677 275.494C213.086 275.494 212.567 275.353 212.121 275.072C211.678 274.79 211.331 274.397 211.081 273.891C210.834 273.386 210.711 272.795 210.711 272.119C210.711 271.437 210.834 270.842 211.081 270.333C211.331 269.825 211.678 269.43 212.121 269.148C212.567 268.867 213.086 268.726 213.677 268.726C214.268 268.726 214.785 268.867 215.228 269.148C215.674 269.43 216.02 269.825 216.268 270.333C216.518 270.842 216.643 271.437 216.643 272.119C216.643 272.795 216.518 273.386 216.268 273.891C216.02 274.397 215.674 274.79 215.228 275.072C214.785 275.353 214.268 275.494 213.677 275.494ZM213.677 274.59C214.126 274.59 214.495 274.475 214.785 274.245C215.074 274.015 215.289 273.712 215.428 273.337C215.567 272.962 215.637 272.556 215.637 272.119C215.637 271.681 215.567 271.273 215.428 270.896C215.289 270.518 215.074 270.212 214.785 269.979C214.495 269.746 214.126 269.63 213.677 269.63C213.228 269.63 212.858 269.746 212.569 269.979C212.279 270.212 212.064 270.518 211.925 270.896C211.786 271.273 211.716 271.681 211.716 272.119C211.716 272.556 211.786 272.962 211.925 273.337C212.064 273.712 212.279 274.015 212.569 274.245C212.858 274.475 213.228 274.59 213.677 274.59ZM220.649 275.494C220.104 275.494 219.622 275.356 219.205 275.08C218.787 274.802 218.46 274.41 218.225 273.904C217.989 273.396 217.871 272.795 217.871 272.101C217.871 271.414 217.989 270.817 218.225 270.312C218.46 269.806 218.788 269.415 219.209 269.14C219.629 268.864 220.115 268.726 220.666 268.726C221.092 268.726 221.429 268.798 221.676 268.94C221.926 269.079 222.117 269.238 222.247 269.417C222.381 269.593 222.485 269.738 222.558 269.851H222.644V266.63H223.649V275.357H222.678V274.351H222.558C222.485 274.471 222.379 274.621 222.243 274.803C222.107 274.982 221.912 275.143 221.659 275.285C221.406 275.424 221.07 275.494 220.649 275.494ZM220.786 274.59C221.189 274.59 221.53 274.485 221.808 274.275C222.087 274.062 222.298 273.768 222.443 273.393C222.588 273.015 222.661 272.579 222.661 272.084C222.661 271.596 222.59 271.168 222.448 270.802C222.306 270.432 222.095 270.146 221.817 269.941C221.538 269.734 221.195 269.63 220.786 269.63C220.36 269.63 220.004 269.739 219.72 269.958C219.439 270.174 219.227 270.468 219.085 270.84C218.946 271.209 218.877 271.624 218.877 272.084C218.877 272.55 218.948 272.974 219.09 273.354C219.235 273.732 219.448 274.033 219.729 274.258C220.013 274.479 220.365 274.59 220.786 274.59ZM203.26 287.681V283.812H204.265V290.357H203.26V289.249H203.192C203.038 289.582 202.8 289.864 202.476 290.097C202.152 290.327 201.743 290.442 201.248 290.442C200.839 290.442 200.476 290.353 200.157 290.174C199.839 289.992 199.589 289.719 199.407 289.356C199.226 288.989 199.135 288.528 199.135 287.971V283.812H200.14V287.903C200.14 288.38 200.274 288.761 200.541 289.045C200.811 289.329 201.155 289.471 201.572 289.471C201.822 289.471 202.076 289.407 202.335 289.279C202.596 289.151 202.815 288.955 202.991 288.691C203.17 288.427 203.26 288.09 203.26 287.681ZM208.766 290.494C208.153 290.494 207.624 290.349 207.181 290.059C206.738 289.769 206.397 289.37 206.159 288.861C205.92 288.353 205.801 287.772 205.801 287.119C205.801 286.454 205.923 285.867 206.167 285.359C206.414 284.847 206.758 284.448 207.198 284.161C207.641 283.871 208.159 283.726 208.749 283.726C209.21 283.726 209.624 283.812 209.994 283.982C210.363 284.153 210.666 284.391 210.901 284.698C211.137 285.005 211.284 285.363 211.34 285.772H210.335C210.258 285.474 210.088 285.209 209.823 284.979C209.562 284.746 209.21 284.63 208.766 284.63C208.374 284.63 208.031 284.732 207.735 284.937C207.443 285.138 207.214 285.424 207.049 285.793C206.887 286.16 206.806 286.59 206.806 287.084C206.806 287.59 206.886 288.03 207.045 288.405C207.207 288.78 207.434 289.072 207.727 289.279C208.022 289.486 208.369 289.59 208.766 289.59C209.028 289.59 209.265 289.545 209.478 289.454C209.691 289.363 209.872 289.232 210.019 289.062C210.167 288.891 210.272 288.687 210.335 288.448H211.34C211.284 288.834 211.143 289.182 210.918 289.492C210.697 289.799 210.403 290.043 210.036 290.225C209.673 290.404 209.249 290.494 208.766 290.494ZM215.657 283.812V284.664H212.265V283.812H215.657ZM213.254 282.244H214.259V288.482C214.259 288.766 214.301 288.979 214.383 289.121C214.468 289.261 214.576 289.354 214.707 289.403C214.84 289.448 214.981 289.471 215.129 289.471C215.239 289.471 215.33 289.465 215.401 289.454C215.472 289.44 215.529 289.428 215.572 289.42L215.776 290.323C215.708 290.349 215.613 290.374 215.491 290.4C215.369 290.428 215.214 290.442 215.026 290.442C214.742 290.442 214.464 290.381 214.191 290.259C213.921 290.137 213.697 289.951 213.518 289.701C213.342 289.451 213.254 289.136 213.254 288.755V282.244ZM223.477 290.476C222.914 290.476 222.413 290.38 221.972 290.187C221.535 289.994 221.187 289.725 220.928 289.381C220.673 289.035 220.534 288.633 220.511 288.175H221.585C221.607 288.457 221.704 288.7 221.874 288.904C222.045 289.106 222.268 289.262 222.543 289.373C222.819 289.484 223.124 289.539 223.46 289.539C223.835 289.539 224.167 289.474 224.457 289.343C224.747 289.212 224.974 289.03 225.139 288.798C225.303 288.565 225.386 288.295 225.386 287.988C225.386 287.667 225.306 287.384 225.147 287.14C224.988 286.893 224.755 286.7 224.448 286.56C224.141 286.421 223.766 286.351 223.323 286.351H222.624V285.414H223.323C223.67 285.414 223.974 285.351 224.235 285.226C224.499 285.101 224.705 284.925 224.853 284.698C225.004 284.471 225.079 284.204 225.079 283.897C225.079 283.601 225.014 283.344 224.883 283.126C224.752 282.907 224.568 282.736 224.329 282.614C224.093 282.492 223.815 282.431 223.494 282.431C223.193 282.431 222.909 282.486 222.641 282.597C222.377 282.705 222.161 282.863 221.994 283.07C221.826 283.275 221.735 283.522 221.721 283.812H220.698C220.715 283.354 220.853 282.954 221.112 282.61C221.37 282.263 221.708 281.994 222.126 281.8C222.546 281.607 223.008 281.511 223.511 281.511C224.051 281.511 224.514 281.62 224.9 281.839C225.286 282.055 225.583 282.34 225.791 282.695C225.998 283.05 226.102 283.434 226.102 283.846C226.102 284.337 225.972 284.756 225.714 285.103C225.458 285.45 225.11 285.69 224.67 285.823V285.891C225.221 285.982 225.651 286.217 225.961 286.594C226.271 286.969 226.426 287.434 226.426 287.988C226.426 288.462 226.296 288.888 226.038 289.266C225.782 289.641 225.433 289.937 224.989 290.153C224.546 290.369 224.042 290.476 223.477 290.476Z" fill="#4F4F4F"/>
<rect x="180.289" y="265.911" width="12.5476" height="5.10715" fill="#9B51E0"/>
<path d="M78.4022 230.973H79.2829V236.172C79.2829 236.636 79.1976 237.03 79.0272 237.354C78.8567 237.678 78.6164 237.925 78.3063 238.093C77.9962 238.261 77.6304 238.345 77.209 238.345C76.8113 238.345 76.4574 238.273 76.1472 238.128C75.8371 237.982 75.5932 237.773 75.4157 237.503C75.2381 237.233 75.1493 236.913 75.1493 236.541H76.0158C76.0158 236.747 76.0667 236.927 76.1685 237.081C76.2727 237.232 76.4147 237.351 76.5947 237.436C76.7746 237.521 76.9794 237.564 77.209 237.564C77.4623 237.564 77.6778 237.51 77.8553 237.404C78.0329 237.297 78.1678 237.141 78.2601 236.935C78.3548 236.727 78.4022 236.472 78.4022 236.172V230.973ZM82.5393 238.373C82.1936 238.373 81.8799 238.308 81.5982 238.178C81.3165 238.045 81.0928 237.855 80.927 237.606C80.7613 237.355 80.6785 237.052 80.6785 236.697C80.6785 236.385 80.74 236.131 80.8631 235.937C80.9862 235.741 81.1508 235.587 81.3567 235.476C81.5627 235.364 81.79 235.281 82.0386 235.227C82.2895 235.17 82.5416 235.125 82.7949 235.092C83.1264 235.049 83.3951 235.018 83.6011 234.996C83.8094 234.973 83.9609 234.933 84.0556 234.879C84.1527 234.825 84.2012 234.73 84.2012 234.595V234.567C84.2012 234.216 84.1053 233.944 83.9136 233.75C83.7242 233.556 83.4365 233.459 83.0506 233.459C82.6505 233.459 82.3368 233.546 82.1096 233.721C81.8823 233.897 81.7225 234.084 81.6302 234.282L80.8347 233.998C80.9768 233.667 81.1662 233.409 81.4029 233.224C81.642 233.037 81.9024 232.907 82.1842 232.834C82.4682 232.758 82.7476 232.72 83.0222 232.72C83.1974 232.72 83.3986 232.741 83.6259 232.784C83.8556 232.824 84.0769 232.908 84.29 233.036C84.5054 233.164 84.6842 233.357 84.8262 233.615C84.9682 233.873 85.0393 234.218 85.0393 234.652V238.245H84.2012V237.507H84.1586C84.1018 237.625 84.0071 237.752 83.8745 237.887C83.7419 238.022 83.5655 238.137 83.3454 238.231C83.1252 238.326 82.8565 238.373 82.5393 238.373ZM82.6671 237.62C82.9985 237.62 83.2779 237.555 83.5052 237.425C83.7348 237.295 83.9076 237.127 84.0236 236.921C84.142 236.715 84.2012 236.498 84.2012 236.271V235.504C84.1657 235.547 84.0876 235.586 83.9668 235.621C83.8484 235.654 83.7111 235.684 83.5549 235.71C83.401 235.734 83.2507 235.755 83.1039 235.774C82.9595 235.79 82.8423 235.805 82.7523 235.817C82.5345 235.845 82.3309 235.891 82.1415 235.955C81.9545 236.017 81.803 236.11 81.687 236.236C81.5734 236.359 81.5165 236.527 81.5165 236.74C81.5165 237.031 81.6243 237.251 81.8397 237.4C82.0575 237.547 82.3333 237.62 82.6671 237.62ZM87.407 234.964V238.245H86.5689V232.791H87.3786V233.643H87.4496C87.5774 233.366 87.7716 233.144 88.032 232.976C88.2924 232.805 88.6286 232.72 89.0405 232.72C89.4098 232.72 89.733 232.796 90.01 232.947C90.287 233.096 90.5024 233.324 90.6563 233.629C90.8102 233.932 90.8871 234.316 90.8871 234.78V238.245H90.049V234.836C90.049 234.408 89.9378 234.074 89.7152 233.835C89.4927 233.593 89.1873 233.473 88.799 233.473C88.5315 233.473 88.2924 233.531 88.0817 233.647C87.8734 233.763 87.7088 233.932 87.5881 234.155C87.4674 234.377 87.407 234.647 87.407 234.964Z" fill="#4F4F4F"/>
<path d="M164.353 238.245V230.973H168.714V231.754H165.234V234.211H168.388V234.993H165.234V238.245H164.353ZM171.996 238.359C171.47 238.359 171.017 238.243 170.635 238.011C170.257 237.777 169.964 237.45 169.758 237.031C169.555 236.61 169.453 236.12 169.453 235.561C169.453 235.002 169.555 234.51 169.758 234.084C169.964 233.655 170.251 233.321 170.618 233.082C170.987 232.841 171.418 232.72 171.91 232.72C172.194 232.72 172.475 232.767 172.752 232.862C173.029 232.957 173.281 233.111 173.508 233.324C173.736 233.534 173.917 233.814 174.052 234.162C174.187 234.51 174.254 234.938 174.254 235.447V235.802H170.049V235.078H173.402C173.402 234.77 173.34 234.495 173.217 234.254C173.096 234.013 172.924 233.822 172.699 233.682C172.476 233.543 172.213 233.473 171.91 233.473C171.576 233.473 171.288 233.556 171.044 233.721C170.802 233.885 170.616 234.098 170.486 234.361C170.356 234.623 170.291 234.905 170.291 235.206V235.689C170.291 236.101 170.362 236.45 170.504 236.736C170.648 237.02 170.848 237.237 171.104 237.386C171.36 237.533 171.657 237.606 171.996 237.606C172.216 237.606 172.415 237.576 172.592 237.514C172.772 237.45 172.927 237.355 173.057 237.23C173.188 237.102 173.288 236.943 173.359 236.754L174.169 236.981C174.084 237.256 173.94 237.497 173.739 237.706C173.538 237.912 173.289 238.073 172.993 238.189C172.697 238.302 172.365 238.359 171.996 238.359ZM175.643 238.245V230.973H176.481V233.657H176.552C176.613 233.563 176.698 233.442 176.807 233.295C176.919 233.146 177.077 233.013 177.283 232.897C177.491 232.779 177.773 232.72 178.128 232.72C178.588 232.72 178.992 232.835 179.343 233.064C179.693 233.294 179.967 233.62 180.163 234.041C180.36 234.462 180.458 234.959 180.458 235.532C180.458 236.11 180.36 236.611 180.163 237.035C179.967 237.456 179.694 237.783 179.346 238.015C178.998 238.244 178.597 238.359 178.143 238.359C177.792 238.359 177.512 238.301 177.301 238.185C177.09 238.067 176.928 237.933 176.814 237.784C176.701 237.632 176.613 237.507 176.552 237.407H176.452V238.245H175.643ZM176.466 235.518C176.466 235.93 176.527 236.294 176.648 236.608C176.768 236.921 176.945 237.166 177.177 237.343C177.409 237.519 177.693 237.606 178.029 237.606C178.379 237.606 178.672 237.514 178.906 237.329C179.143 237.142 179.32 236.891 179.439 236.576C179.559 236.259 179.62 235.906 179.62 235.518C179.62 235.135 179.561 234.789 179.442 234.481C179.326 234.171 179.15 233.926 178.913 233.746C178.679 233.564 178.384 233.473 178.029 233.473C177.688 233.473 177.402 233.559 177.17 233.732C176.938 233.902 176.762 234.142 176.644 234.449C176.526 234.755 176.466 235.111 176.466 235.518Z" fill="#4F4F4F"/>
<path d="M239.861 230.973H240.912L243.383 237.01H243.469L245.94 230.973H246.991V238.245H246.168V232.72H246.097L243.824 238.245H243.028L240.756 232.72H240.685V238.245H239.861V230.973ZM250.249 238.373C249.903 238.373 249.589 238.308 249.308 238.178C249.026 238.045 248.802 237.855 248.636 237.606C248.471 237.355 248.388 237.052 248.388 236.697C248.388 236.385 248.449 236.131 248.573 235.937C248.696 235.741 248.86 235.587 249.066 235.476C249.272 235.364 249.499 235.281 249.748 235.227C249.999 235.17 250.251 235.125 250.504 235.092C250.836 235.049 251.104 235.018 251.31 234.996C251.519 234.973 251.67 234.933 251.765 234.879C251.862 234.825 251.911 234.73 251.911 234.595V234.567C251.911 234.216 251.815 233.944 251.623 233.75C251.434 233.556 251.146 233.459 250.76 233.459C250.36 233.459 250.046 233.546 249.819 233.721C249.592 233.897 249.432 234.084 249.34 234.282L248.544 233.998C248.686 233.667 248.876 233.409 249.112 233.224C249.351 233.037 249.612 232.907 249.894 232.834C250.178 232.758 250.457 232.72 250.732 232.72C250.907 232.72 251.108 232.741 251.335 232.784C251.565 232.824 251.786 232.908 251.999 233.036C252.215 233.164 252.394 233.357 252.536 233.615C252.678 233.873 252.749 234.218 252.749 234.652V238.245H251.911V237.507H251.868C251.811 237.625 251.716 237.752 251.584 237.887C251.451 238.022 251.275 238.137 251.055 238.231C250.835 238.326 250.566 238.373 250.249 238.373ZM250.377 237.62C250.708 237.62 250.987 237.555 251.215 237.425C251.444 237.295 251.617 237.127 251.733 236.921C251.851 236.715 251.911 236.498 251.911 236.271V235.504C251.875 235.547 251.797 235.586 251.676 235.621C251.558 235.654 251.421 235.684 251.264 235.71C251.11 235.734 250.96 235.755 250.813 235.774C250.669 235.79 250.552 235.805 250.462 235.817C250.244 235.845 250.04 235.891 249.851 235.955C249.664 236.017 249.512 236.11 249.396 236.236C249.283 236.359 249.226 236.527 249.226 236.74C249.226 237.031 249.334 237.251 249.549 237.4C249.767 237.547 250.043 237.62 250.377 237.62ZM254.278 238.245V232.791H255.088V233.615H255.145C255.244 233.345 255.424 233.126 255.685 232.958C255.945 232.79 256.239 232.706 256.565 232.706C256.627 232.706 256.704 232.707 256.796 232.709C256.888 232.712 256.958 232.715 257.006 232.72V233.572C256.977 233.565 256.912 233.554 256.81 233.54C256.711 233.524 256.605 233.515 256.494 233.515C256.229 233.515 255.992 233.571 255.784 233.682C255.578 233.791 255.415 233.943 255.294 234.137C255.176 234.329 255.116 234.548 255.116 234.794V238.245H254.278Z" fill="#4F4F4F"/>
<path d="M315.687 238.245H314.764L317.434 230.973H318.343L321.014 238.245H320.09L317.917 232.123H317.86L315.687 238.245ZM316.028 235.405H319.75V236.186H316.028V235.405ZM322.033 240.291V232.791H322.843V233.657H322.942C323.004 233.563 323.089 233.442 323.198 233.295C323.309 233.146 323.468 233.013 323.674 232.897C323.882 232.779 324.164 232.72 324.519 232.72C324.978 232.72 325.383 232.835 325.733 233.064C326.084 233.294 326.357 233.62 326.554 234.041C326.75 234.462 326.848 234.959 326.848 235.532C326.848 236.11 326.75 236.611 326.554 237.035C326.357 237.456 326.085 237.783 325.737 238.015C325.389 238.244 324.987 238.359 324.533 238.359C324.183 238.359 323.902 238.301 323.691 238.185C323.481 238.067 323.318 237.933 323.205 237.784C323.091 237.632 323.004 237.507 322.942 237.407H322.871V240.291H322.033ZM322.857 235.518C322.857 235.93 322.917 236.294 323.038 236.608C323.159 236.921 323.335 237.166 323.567 237.343C323.799 237.519 324.083 237.606 324.419 237.606C324.77 237.606 325.062 237.514 325.296 237.329C325.533 237.142 325.711 236.891 325.829 236.576C325.95 236.259 326.01 235.906 326.01 235.518C326.01 235.135 325.951 234.789 325.833 234.481C325.717 234.171 325.54 233.926 325.304 233.746C325.069 233.564 324.774 233.473 324.419 233.473C324.078 233.473 323.792 233.559 323.56 233.732C323.328 233.902 323.153 234.142 323.034 234.449C322.916 234.755 322.857 235.111 322.857 235.518ZM328.127 238.245V232.791H328.936V233.615H328.993C329.093 233.345 329.273 233.126 329.533 232.958C329.793 232.79 330.087 232.706 330.414 232.706C330.475 232.706 330.552 232.707 330.644 232.709C330.737 232.712 330.807 232.715 330.854 232.72V233.572C330.826 233.565 330.76 233.554 330.659 233.54C330.559 233.524 330.454 233.515 330.343 233.515C330.077 233.515 329.841 233.571 329.632 233.682C329.426 233.791 329.263 233.943 329.142 234.137C329.024 234.329 328.965 234.548 328.965 234.794V238.245H328.127Z" fill="#4F4F4F"/>
<path d="M389.911 230.973H390.962L393.434 237.01H393.519L395.991 230.973H397.042V238.245H396.218V232.72H396.147L393.874 238.245H393.079L390.806 232.72H390.735V238.245H389.911V230.973ZM400.299 238.373C399.953 238.373 399.64 238.308 399.358 238.178C399.076 238.045 398.852 237.855 398.687 237.606C398.521 237.355 398.438 237.052 398.438 236.697C398.438 236.385 398.5 236.131 398.623 235.937C398.746 235.741 398.91 235.587 399.116 235.476C399.322 235.364 399.55 235.281 399.798 235.227C400.049 235.17 400.301 235.125 400.555 235.092C400.886 235.049 401.155 235.018 401.361 234.996C401.569 234.973 401.721 234.933 401.815 234.879C401.912 234.825 401.961 234.73 401.961 234.595V234.567C401.961 234.216 401.865 233.944 401.673 233.75C401.484 233.556 401.196 233.459 400.81 233.459C400.41 233.459 400.097 233.546 399.869 233.721C399.642 233.897 399.482 234.084 399.39 234.282L398.594 233.998C398.736 233.667 398.926 233.409 399.163 233.224C399.402 233.037 399.662 232.907 399.944 232.834C400.228 232.758 400.507 232.72 400.782 232.72C400.957 232.72 401.158 232.741 401.386 232.784C401.615 232.824 401.837 232.908 402.05 233.036C402.265 233.164 402.444 233.357 402.586 233.615C402.728 233.873 402.799 234.218 402.799 234.652V238.245H401.961V237.507H401.918C401.861 237.625 401.767 237.752 401.634 237.887C401.502 238.022 401.325 238.137 401.105 238.231C400.885 238.326 400.616 238.373 400.299 238.373ZM400.427 237.62C400.758 237.62 401.038 237.555 401.265 237.425C401.494 237.295 401.667 237.127 401.783 236.921C401.902 236.715 401.961 236.498 401.961 236.271V235.504C401.925 235.547 401.847 235.586 401.726 235.621C401.608 235.654 401.471 235.684 401.315 235.71C401.161 235.734 401.01 235.755 400.864 235.774C400.719 235.79 400.602 235.805 400.512 235.817C400.294 235.845 400.091 235.891 399.901 235.955C399.714 236.017 399.563 236.11 399.447 236.236C399.333 236.359 399.276 236.527 399.276 236.74C399.276 237.031 399.384 237.251 399.599 237.4C399.817 237.547 400.093 237.62 400.427 237.62ZM404.329 238.245V232.791H405.167V238.245H404.329ZM404.755 231.882C404.591 231.882 404.45 231.826 404.332 231.715C404.216 231.604 404.158 231.47 404.158 231.314C404.158 231.157 404.216 231.024 404.332 230.912C404.45 230.801 404.591 230.745 404.755 230.745C404.918 230.745 405.058 230.801 405.174 230.912C405.292 231.024 405.351 231.157 405.351 231.314C405.351 231.47 405.292 231.604 405.174 231.715C405.058 231.826 404.918 231.882 404.755 231.882Z" fill="#4F4F4F"/>
<path d="M470.278 230.973H471.159V236.172C471.159 236.636 471.073 237.03 470.903 237.354C470.733 237.678 470.492 237.925 470.182 238.093C469.872 238.261 469.506 238.345 469.085 238.345C468.687 238.345 468.333 238.273 468.023 238.128C467.713 237.982 467.469 237.773 467.292 237.503C467.114 237.233 467.025 236.913 467.025 236.541H467.892C467.892 236.747 467.943 236.927 468.044 237.081C468.149 237.232 468.291 237.351 468.47 237.436C468.65 237.521 468.855 237.564 469.085 237.564C469.338 237.564 469.554 237.51 469.731 237.404C469.909 237.297 470.044 237.141 470.136 236.935C470.231 236.727 470.278 236.472 470.278 236.172V230.973ZM476.247 236.015V232.791H477.086V238.245H476.247V237.322H476.191C476.063 237.599 475.864 237.835 475.594 238.029C475.324 238.221 474.983 238.317 474.571 238.317C474.23 238.317 473.927 238.242 473.662 238.093C473.397 237.941 473.189 237.714 473.037 237.411C472.886 237.106 472.81 236.721 472.81 236.257V232.791H473.648V236.2C473.648 236.598 473.759 236.915 473.982 237.152C474.207 237.388 474.493 237.507 474.841 237.507C475.05 237.507 475.261 237.454 475.477 237.347C475.695 237.241 475.877 237.077 476.024 236.857C476.173 236.637 476.247 236.356 476.247 236.015ZM479.459 234.964V238.245H478.621V232.791H479.43V233.643H479.501C479.629 233.366 479.823 233.144 480.084 232.976C480.344 232.805 480.68 232.72 481.092 232.72C481.461 232.72 481.785 232.796 482.062 232.947C482.339 233.096 482.554 233.324 482.708 233.629C482.862 233.932 482.939 234.316 482.939 234.78V238.245H482.101V234.836C482.101 234.408 481.989 234.074 481.767 233.835C481.544 233.593 481.239 233.473 480.851 233.473C480.583 233.473 480.344 233.531 480.133 233.647C479.925 233.763 479.76 233.932 479.64 234.155C479.519 234.377 479.459 234.647 479.459 234.964Z" fill="#4F4F4F"/>
<path d="M53.6179 136.955V171.429H359.541L281.983 119.719L206.579 136.955L130.458 153.873L53.6179 136.955Z" fill="#09ADE2"/>
<path d="M434.504 188.984L358.943 171.429H513.697V225.054L434.504 188.984Z" fill="#9D0000"/>
<ellipse cx="53.3192" cy="188.984" rx="2.09127" ry="2.23438" fill="#F2994A"/>
<ellipse cx="130.995" cy="154.511" rx="2.09127" ry="2.23438" fill="#F2994A"/>
<ellipse cx="206.878" cy="188.984" rx="2.09127" ry="2.23438" fill="#F2994A"/>
<ellipse cx="283.956" cy="205.583" rx="2.09126" ry="2.23438" fill="#F2994A"/>
<ellipse cx="359.242" cy="154.511" rx="2.09128" ry="2.23438" fill="#F2994A"/>
<ellipse cx="436.918" cy="137.275" rx="2.09126" ry="2.23438" fill="#F2994A"/>
<ellipse cx="512.801" cy="154.511" rx="2.09128" ry="2.23438" fill="#F2994A"/>
<path d="M53.6179 189.547L131.5 154.593L207.939 189.547L284.379 205.902L361.539 154.593L437.979 136.955L513.697 154.593" stroke="#F2994A" stroke-width="2"/>
<path d="M53.6179 171.429L130.458 188.665L208.734 171.429L281.983 152.277L356.668 136.955L434.944 154.192L512.502 171.429" stroke="#9B51E0" stroke-width="2" stroke-dasharray="4 4"/>
<ellipse cx="53.3192" cy="171.748" rx="2.09127" ry="2.23438" fill="#9B51E0"/>
<ellipse cx="130.995" cy="188.984" rx="2.09127" ry="2.23438" fill="#9B51E0"/>
<ellipse cx="206.878" cy="171.748" rx="2.09127" ry="2.23438" fill="#9B51E0"/>
<ellipse cx="282.761" cy="151.958" rx="2.09126" ry="2.23438" fill="#9B51E0"/>
<ellipse cx="359.242" cy="137.275" rx="2.09128" ry="2.23438" fill="#9B51E0"/>
<ellipse cx="435.125" cy="154.511" rx="2.09126" ry="2.23438" fill="#9B51E0"/>
<ellipse cx="512.801" cy="171.748" rx="2.09128" ry="2.23438" fill="#9B51E0"/>
<defs>
<filter id="filter0_d_184_8111" x="0" y="0" width="547" height="306" filterUnits="userSpaceOnUse" color-interpolation-filters="sRGB">
<feFlood flood-opacity="0" result="BackgroundImageFix"/>
<feColorMatrix in="SourceAlpha" type="matrix" values="0 0 0 0 0 0 0 0 0 0 0 0 0 0 0 0 0 0 127 0" result="hardAlpha"/>
<feOffset dy="2"/>
<feGaussianBlur stdDeviation="5"/>
<feComposite in2="hardAlpha" operator="out"/>
<feColorMatrix type="matrix" values="0 0 0 0 0 0 0 0 0 0 0 0 0 0 0 0 0 0 0.1 0"/>
<feBlend mode="normal" in2="BackgroundImageFix" result="effect1_dropShadow_184_8111"/>
<feBlend mode="normal" in="SourceGraphic" in2="effect1_dropShadow_184_8111" result="shape"/>
</filter>
</defs>
</svg>
