<svg width="238" height="223" viewBox="0 0 238 223" fill="none" xmlns="http://www.w3.org/2000/svg">
<g filter="url(#filter0_d_184_8667)">
<rect x="10" y="8" width="218" height="203" rx="6" fill="white"/>
</g>
<path d="M36.227 28.5818H34.396V27.5271H36.227C36.5265 27.5271 36.769 27.4783 36.9546 27.3806C37.1434 27.2797 37.2817 27.143 37.3696 26.9705C37.4575 26.7947 37.5014 26.5945 37.5014 26.3699C37.5014 26.1518 37.4575 25.9483 37.3696 25.7595C37.2817 25.5707 37.1434 25.4177 36.9546 25.3005C36.769 25.1833 36.5265 25.1248 36.227 25.1248H34.8354V31.1746H33.4927V24.0652H36.227C36.7804 24.0652 37.2524 24.1645 37.6431 24.363C38.0369 24.5583 38.3364 24.8302 38.5415 25.1785C38.7498 25.5235 38.854 25.9174 38.854 26.3601C38.854 26.8191 38.7498 27.2146 38.5415 27.5466C38.3364 27.8787 38.0369 28.1342 37.6431 28.3132C37.2524 28.4923 36.7804 28.5818 36.227 28.5818ZM39.9087 24.0652H42.4917C43.032 24.0652 43.4959 24.1466 43.8833 24.3093C44.2707 24.4721 44.5685 24.713 44.7768 25.032C44.9852 25.351 45.0893 25.7432 45.0893 26.2087C45.0893 26.5766 45.0242 26.8956 44.894 27.1658C44.7638 27.436 44.5799 27.6622 44.3423 27.8445C44.1079 28.0268 43.8312 28.17 43.5122 28.2742L43.0923 28.489H40.812L40.8022 27.4294H42.5063C42.783 27.4294 43.0125 27.3806 43.1948 27.283C43.3771 27.1853 43.5138 27.0502 43.605 26.8777C43.6994 26.7052 43.7466 26.5082 43.7466 26.2869C43.7466 26.0492 43.701 25.8442 43.6098 25.6716C43.5187 25.4958 43.3804 25.3608 43.1948 25.2664C43.0093 25.172 42.7749 25.1248 42.4917 25.1248H41.2514V31.1746H39.9087V24.0652ZM43.9223 31.1746L42.2768 27.991L43.6977 27.9861L45.3628 31.1062V31.1746H43.9223ZM47.6968 24.0652V31.1746H46.354V24.0652H47.6968ZM49.7329 24.0652H50.895L52.8384 29.4167L54.7768 24.0652H55.9438L53.3022 31.1746H52.3696L49.7329 24.0652ZM49.147 24.0652H50.2847L50.4897 28.9822V31.1746H49.147V24.0652ZM55.3872 24.0652H56.5298V31.1746H55.187V28.9822L55.3872 24.0652ZM60.812 25.1443L58.7856 31.1746H57.3647L60.021 24.0652H60.9292L60.812 25.1443ZM62.5063 31.1746L60.4702 25.1443L60.3481 24.0652H61.2612L63.9321 31.1746H62.5063ZM62.4136 28.533V29.5925H58.6001V28.533H62.4136ZM64.6645 24.0652H67.2475C67.7879 24.0652 68.2518 24.1466 68.6391 24.3093C69.0265 24.4721 69.3244 24.713 69.5327 25.032C69.741 25.351 69.8452 25.7432 69.8452 26.2087C69.8452 26.5766 69.7801 26.8956 69.6499 27.1658C69.5197 27.436 69.3358 27.6622 69.0981 27.8445C68.8638 28.0268 68.5871 28.17 68.2681 28.2742L67.8481 28.489H65.5679L65.5581 27.4294H67.2622C67.5389 27.4294 67.7684 27.3806 67.9507 27.283C68.133 27.1853 68.2697 27.0502 68.3608 26.8777C68.4552 26.7052 68.5024 26.5082 68.5024 26.2869C68.5024 26.0492 68.4569 25.8442 68.3657 25.6716C68.2746 25.4958 68.1362 25.3608 67.9507 25.2664C67.7651 25.172 67.5307 25.1248 67.2475 25.1248H66.0073V31.1746H64.6645V24.0652ZM68.6782 31.1746L67.0327 27.991L68.4536 27.9861L70.1186 31.1062V31.1746H68.6782ZM71.6177 24.0652L73.1802 27.3806L74.7524 24.0652H76.227L73.8638 28.572V31.1746H72.5014V28.572L70.1333 24.0652H71.6177ZM82.2378 24.0652V31.1746H80.8999V24.0652H82.2378ZM84.4448 24.0652V25.1248H78.7173V24.0652H84.4448ZM90.0503 30.1199V31.1746H86.271V30.1199H90.0503ZM86.6811 24.0652V31.1746H85.3384V24.0652H86.6811ZM89.5571 26.9998V28.03H86.271V26.9998H89.5571ZM90.0356 24.0652V25.1248H86.271V24.0652H90.0356ZM92.0522 24.0652L93.4731 26.5994L94.8989 24.0652H96.4419L94.3325 27.5906L96.4956 31.1746H94.938L93.4731 28.5916L92.0132 31.1746H90.4507L92.6138 27.5906L90.5044 24.0652H92.0522ZM100.373 24.0652V31.1746H99.0347V24.0652H100.373ZM102.58 24.0652V25.1248H96.852V24.0652H102.58Z" fill="#828282"/>
<path d="M35.4726 43.3657L34.0664 43.0215L34.645 37.6602H40.3945V39.1543H36.1098L35.8169 41.769C35.9829 41.6714 36.2124 41.5762 36.5054 41.4834C36.7983 41.3857 37.1328 41.3369 37.5088 41.3369C38.0117 41.3369 38.4609 41.4199 38.8564 41.5859C39.2568 41.7471 39.5962 41.9839 39.8745 42.2964C40.1528 42.604 40.3652 42.98 40.5117 43.4243C40.6582 43.8638 40.7314 44.3594 40.7314 44.9111C40.7314 45.4043 40.6582 45.8657 40.5117 46.2954C40.3701 46.7251 40.1553 47.1035 39.8672 47.4307C39.5791 47.7578 39.2153 48.0142 38.7759 48.1997C38.3413 48.3804 37.8262 48.4707 37.2305 48.4707C36.7861 48.4707 36.3589 48.4072 35.9487 48.2803C35.5434 48.1484 35.1797 47.9556 34.8574 47.7017C34.5351 47.4429 34.2764 47.1255 34.081 46.7495C33.8857 46.3687 33.7734 45.9316 33.7441 45.4385H35.4726C35.5166 45.7852 35.6118 46.0806 35.7583 46.3247C35.9097 46.564 36.1098 46.7471 36.3589 46.874C36.6079 47.001 36.896 47.0645 37.2231 47.0645C37.521 47.0645 37.7773 47.0132 37.9922 46.9106C38.207 46.8032 38.3852 46.6519 38.5268 46.4565C38.6733 46.2563 38.7807 46.022 38.8491 45.7534C38.9223 45.4849 38.959 45.187 38.959 44.8599C38.959 44.5474 38.9175 44.2617 38.8345 44.0029C38.7563 43.7441 38.6367 43.5195 38.4756 43.3291C38.3193 43.1387 38.1216 42.9922 37.8823 42.8896C37.6431 42.7822 37.3672 42.7285 37.0547 42.7285C36.6348 42.7285 36.3125 42.7896 36.0879 42.9116C35.8681 43.0337 35.6631 43.1851 35.4726 43.3657ZM41.7583 47.4453C41.7583 47.1719 41.8511 46.9424 42.0366 46.7568C42.2222 46.5664 42.4736 46.4712 42.791 46.4712C43.1133 46.4712 43.3647 46.5664 43.5454 46.7568C43.7309 46.9424 43.8237 47.1719 43.8237 47.4453C43.8237 47.7188 43.7309 47.9482 43.5454 48.1338C43.3647 48.3193 43.1133 48.4121 42.791 48.4121C42.4736 48.4121 42.2222 48.3193 42.0366 48.1338C41.8511 47.9482 41.7583 47.7188 41.7583 47.4453ZM46.6157 46.9326H46.7622C47.436 46.9326 47.9975 46.8447 48.4468 46.6689C48.9009 46.4883 49.2622 46.2393 49.5307 45.9219C49.7993 45.6045 49.9922 45.231 50.1094 44.8013C50.2265 44.3716 50.2851 43.9053 50.2851 43.4023V41.564C50.2851 41.1294 50.2388 40.7485 50.146 40.4214C50.0581 40.0894 49.9311 39.8135 49.7651 39.5938C49.604 39.3691 49.416 39.2007 49.2012 39.0884C48.9912 38.9761 48.7641 38.9199 48.52 38.9199C48.2514 38.9199 48.0098 38.981 47.7949 39.103C47.5849 39.2202 47.4067 39.3838 47.2602 39.5938C47.1186 39.7988 47.0088 40.0405 46.9306 40.3188C46.8574 40.5923 46.8208 40.8853 46.8208 41.1978C46.8208 41.4907 46.855 41.7739 46.9233 42.0474C46.9966 42.3159 47.104 42.5552 47.2456 42.7651C47.3872 42.9751 47.5654 43.1411 47.7803 43.2632C47.9951 43.3853 48.2466 43.4463 48.5347 43.4463C48.8081 43.4463 49.0596 43.395 49.289 43.2925C49.5185 43.1851 49.7187 43.041 49.8896 42.8604C50.0605 42.6797 50.1948 42.4771 50.2925 42.2524C50.3901 42.0278 50.4438 41.7983 50.4536 41.564L51.1274 41.769C51.1274 42.1401 51.0493 42.5063 50.8931 42.8677C50.7417 43.2241 50.5293 43.5513 50.2558 43.8491C49.9873 44.1421 49.6723 44.3765 49.311 44.5522C48.9546 44.728 48.5664 44.8159 48.1465 44.8159C47.6387 44.8159 47.1894 44.7207 46.7988 44.5303C46.4131 44.335 46.0908 44.0713 45.832 43.7393C45.5781 43.4072 45.3877 43.0264 45.2607 42.5967C45.1338 42.167 45.0703 41.7153 45.0703 41.2417C45.0703 40.729 45.1484 40.248 45.3047 39.7988C45.4609 39.3496 45.688 38.9541 45.9858 38.6123C46.2837 38.2656 46.645 37.9971 47.0698 37.8066C47.4995 37.6113 47.9853 37.5137 48.5273 37.5137C49.1035 37.5137 49.6089 37.626 50.0434 37.8506C50.478 38.0752 50.8442 38.3853 51.1421 38.7808C51.4399 39.1763 51.6645 39.6353 51.8159 40.1577C51.9673 40.6802 52.043 41.2417 52.043 41.8423V42.4648C52.043 43.0947 51.9868 43.7026 51.8745 44.2886C51.7622 44.8696 51.5791 45.4092 51.3252 45.9072C51.0762 46.4004 50.7466 46.835 50.3364 47.2109C49.9311 47.582 49.4331 47.8726 48.8423 48.0825C48.2563 48.2876 47.5679 48.3901 46.7768 48.3901H46.6157V46.9326ZM60.1304 45.4165C60.1304 46.0806 59.9765 46.6396 59.6689 47.0938C59.3613 47.5479 58.9414 47.8921 58.4092 48.1265C57.8818 48.356 57.2861 48.4707 56.6221 48.4707C55.958 48.4707 55.3598 48.356 54.8276 48.1265C54.2954 47.8921 53.8755 47.5479 53.5679 47.0938C53.2602 46.6396 53.1064 46.0806 53.1064 45.4165C53.1064 44.9771 53.1919 44.5791 53.3628 44.2227C53.5337 43.8613 53.7754 43.5513 54.0879 43.2925C54.4053 43.0288 54.7764 42.8262 55.2012 42.6846C55.6308 42.543 56.0996 42.4722 56.6074 42.4722C57.2812 42.4722 57.8843 42.5967 58.4165 42.8457C58.9487 43.0947 59.3662 43.439 59.6689 43.8784C59.9765 44.3179 60.1304 44.8306 60.1304 45.4165ZM58.3579 45.3286C58.3579 44.9722 58.2847 44.6597 58.1382 44.3911C57.9917 44.1226 57.7866 43.915 57.5229 43.7686C57.2593 43.6221 56.9541 43.5488 56.6074 43.5488C56.2558 43.5488 55.9507 43.6221 55.6919 43.7686C55.4331 43.915 55.2305 44.1226 55.084 44.3911C54.9424 44.6597 54.8716 44.9722 54.8716 45.3286C54.8716 45.6899 54.9424 46.0024 55.084 46.2661C55.2256 46.5249 55.4282 46.7227 55.6919 46.8594C55.9556 46.9961 56.2656 47.0645 56.6221 47.0645C56.9785 47.0645 57.2861 46.9961 57.5449 46.8594C57.8037 46.7227 58.0039 46.5249 58.1455 46.2661C58.2871 46.0024 58.3579 45.6899 58.3579 45.3286ZM59.8887 40.4653C59.8887 40.9976 59.7471 41.4712 59.4639 41.8862C59.1855 42.3013 58.7998 42.6284 58.3066 42.8677C57.8135 43.1021 57.2519 43.2192 56.6221 43.2192C55.9873 43.2192 55.4209 43.1021 54.9228 42.8677C54.4297 42.6284 54.0415 42.3013 53.7583 41.8862C53.48 41.4712 53.3408 40.9976 53.3408 40.4653C53.3408 39.8306 53.48 39.2959 53.7583 38.8613C54.0415 38.4219 54.4297 38.0874 54.9228 37.8579C55.416 37.6284 55.98 37.5137 56.6147 37.5137C57.2495 37.5137 57.8135 37.6284 58.3066 37.8579C58.7998 38.0874 59.1855 38.4219 59.4639 38.8613C59.7471 39.2959 59.8887 39.8306 59.8887 40.4653ZM58.1235 40.5239C58.1235 40.2065 58.06 39.9282 57.9331 39.689C57.811 39.4448 57.6377 39.2544 57.4131 39.1177C57.1885 38.981 56.9223 38.9126 56.6147 38.9126C56.3071 38.9126 56.041 38.9785 55.8164 39.1104C55.5918 39.2422 55.4184 39.4277 55.2964 39.667C55.1743 39.9062 55.1133 40.1919 55.1133 40.5239C55.1133 40.8511 55.1743 41.1367 55.2964 41.3809C55.4184 41.6201 55.5918 41.8081 55.8164 41.9448C56.0459 42.0815 56.3144 42.1499 56.6221 42.1499C56.9297 42.1499 57.1958 42.0815 57.4204 41.9448C57.645 41.8081 57.8183 41.6201 57.9404 41.3809C58.0625 41.1367 58.1235 40.8511 58.1235 40.5239ZM68.2031 37.6602V38.627L63.9404 48.3242H62.0801L66.3354 39.0664H60.813V37.6602H68.2031ZM70.8413 46.625L70.834 47.8848C70.834 48.3828 70.7095 48.8955 70.4604 49.4229C70.2114 49.9502 69.8818 50.3848 69.4717 50.7266L68.5268 50.1772C68.6636 49.9575 68.7881 49.7354 68.9004 49.5107C69.0127 49.2861 69.103 49.0469 69.1714 48.793C69.2397 48.5391 69.2739 48.2583 69.2739 47.9507V46.625H70.8413ZM73.9482 42.1938H75.0029C75.4131 42.1938 75.7524 42.123 76.021 41.9814C76.2944 41.8398 76.4971 41.6445 76.6289 41.3955C76.7607 41.1465 76.8266 40.8608 76.8266 40.5386C76.8266 40.2017 76.7656 39.9136 76.6435 39.6743C76.5264 39.4302 76.3457 39.2422 76.1015 39.1104C75.8623 38.9785 75.5571 38.9126 75.186 38.9126C74.8735 38.9126 74.5903 38.9761 74.3364 39.103C74.0874 39.2251 73.8896 39.4009 73.7431 39.6304C73.5967 39.855 73.5234 40.1235 73.5234 40.436H71.751C71.751 39.8696 71.8999 39.3667 72.1977 38.9272C72.4956 38.4878 72.9009 38.1436 73.4136 37.8945C73.9311 37.6406 74.5122 37.5137 75.1567 37.5137C75.8452 37.5137 76.4458 37.6284 76.9585 37.8579C77.4761 38.0825 77.8789 38.4194 78.167 38.8687C78.4551 39.3179 78.5991 39.8745 78.5991 40.5386C78.5991 40.8413 78.5283 41.1489 78.3867 41.4614C78.2451 41.7739 78.0351 42.0596 77.7568 42.3184C77.4785 42.5723 77.1318 42.7798 76.7168 42.9409C76.3017 43.0972 75.8208 43.1753 75.2739 43.1753H73.9482V42.1938ZM73.9482 43.5708V42.604H75.2739C75.8989 42.604 76.4311 42.6772 76.8706 42.8237C77.3149 42.9702 77.6763 43.1729 77.9546 43.4316C78.2329 43.6855 78.4355 43.9761 78.5625 44.3032C78.6943 44.6304 78.7602 44.9771 78.7602 45.3433C78.7602 45.8413 78.6699 46.2856 78.4892 46.6763C78.3135 47.062 78.062 47.3892 77.7348 47.6577C77.4077 47.9263 77.0244 48.1289 76.5849 48.2656C76.1504 48.4023 75.6767 48.4707 75.164 48.4707C74.7051 48.4707 74.2656 48.4072 73.8457 48.2803C73.4258 48.1533 73.0498 47.9653 72.7178 47.7163C72.3857 47.4624 72.1221 47.1475 71.9267 46.7715C71.7363 46.3906 71.6411 45.9512 71.6411 45.4531H73.4062C73.4062 45.7705 73.4795 46.0513 73.626 46.2954C73.7773 46.5347 73.9873 46.7227 74.2558 46.8594C74.5293 46.9961 74.8418 47.0645 75.1933 47.0645C75.5644 47.0645 75.8843 46.9985 76.1528 46.8667C76.4214 46.7349 76.6264 46.5396 76.7681 46.2808C76.9145 46.022 76.9878 45.7095 76.9878 45.3433C76.9878 44.9282 76.9072 44.5913 76.7461 44.3325C76.5849 44.0737 76.3555 43.8833 76.0576 43.7612C75.7598 43.6343 75.4082 43.5708 75.0029 43.5708H73.9482ZM87.1846 44.5229V45.9292H79.4941L79.4355 44.8672L84.0351 37.6602H85.4487L83.918 40.2822L81.2739 44.5229H87.1846ZM85.8515 37.6602V48.3242H84.0864V37.6602H85.8515Z" fill="#0B1354"/>
<path d="M37.4282 67.3452C37.4282 67.1792 37.4022 67.0327 37.3501 66.9058C37.3013 66.7756 37.2134 66.6584 37.0864 66.5542C36.9627 66.45 36.7902 66.3507 36.5688 66.2563C36.3507 66.1619 36.074 66.0659 35.7388 65.9683C35.3872 65.8641 35.0698 65.7485 34.7866 65.6216C34.5034 65.4914 34.2609 65.3433 34.0591 65.1772C33.8572 65.0112 33.7026 64.8208 33.5952 64.606C33.4878 64.3911 33.4341 64.1453 33.4341 63.8687C33.4341 63.592 33.491 63.3364 33.605 63.1021C33.7189 62.8677 33.8817 62.6642 34.0932 62.4917C34.3081 62.3159 34.5636 62.1792 34.8598 62.0815C35.1561 61.9839 35.4865 61.9351 35.8511 61.9351C36.3849 61.9351 36.8374 62.0376 37.2085 62.2427C37.5828 62.4445 37.8677 62.7098 38.063 63.0386C38.2583 63.3641 38.3559 63.7124 38.3559 64.0835H37.4184C37.4184 63.8166 37.3615 63.5806 37.2475 63.3755C37.1336 63.1672 36.9611 63.0044 36.73 62.8872C36.4988 62.7668 36.2059 62.7065 35.8511 62.7065C35.5158 62.7065 35.2391 62.757 35.021 62.8579C34.8029 62.9588 34.6401 63.0955 34.5327 63.2681C34.4285 63.4406 34.3764 63.6375 34.3764 63.8589C34.3764 64.0086 34.4074 64.1453 34.4692 64.269C34.5343 64.3895 34.6336 64.5018 34.7671 64.606C34.9038 64.7101 35.0763 64.8062 35.2847 64.894C35.4962 64.9819 35.7485 65.0666 36.0415 65.1479C36.4451 65.2619 36.7934 65.3888 37.0864 65.5288C37.3794 65.6688 37.6203 65.8267 37.8091 66.0024C38.0011 66.175 38.1427 66.3719 38.2339 66.5933C38.3283 66.8114 38.3755 67.0588 38.3755 67.3354C38.3755 67.6252 38.3169 67.8872 38.1997 68.1216C38.0825 68.356 37.9149 68.5562 37.6968 68.7222C37.4787 68.8882 37.2166 69.0168 36.9106 69.1079C36.6079 69.1958 36.2694 69.2397 35.895 69.2397C35.5662 69.2397 35.2423 69.1942 34.9233 69.103C34.6076 69.0119 34.3195 68.8752 34.0591 68.6929C33.8019 68.5106 33.5952 68.286 33.4389 68.019C33.286 67.7489 33.2095 67.4364 33.2095 67.0815H34.147C34.147 67.3257 34.1942 67.5356 34.2886 67.7114C34.383 67.884 34.5115 68.0272 34.6743 68.1411C34.8403 68.255 35.0275 68.3397 35.2358 68.395C35.4474 68.4471 35.6671 68.4731 35.895 68.4731C36.2238 68.4731 36.5021 68.4276 36.73 68.3364C36.9578 68.2453 37.1304 68.1151 37.2475 67.9458C37.368 67.7765 37.4282 67.5763 37.4282 67.3452ZM41.6323 69.2397C41.2645 69.2397 40.9308 69.1779 40.6313 69.0542C40.3351 68.9272 40.0796 68.7498 39.8647 68.522C39.6531 68.2941 39.4904 68.0239 39.3764 67.7114C39.2625 67.3989 39.2056 67.0571 39.2056 66.686V66.481C39.2056 66.0513 39.269 65.6688 39.396 65.3335C39.5229 64.995 39.6955 64.7085 39.9136 64.4741C40.1317 64.2397 40.3791 64.0623 40.6557 63.9419C40.9324 63.8215 41.2189 63.7612 41.5151 63.7612C41.8927 63.7612 42.2182 63.8263 42.4917 63.9565C42.7684 64.0868 42.9946 64.269 43.1704 64.5034C43.3462 64.7345 43.4764 65.008 43.561 65.3237C43.6457 65.6362 43.688 65.978 43.688 66.3491V66.7544H39.7427V66.0171H42.7847V65.9487C42.7716 65.7144 42.7228 65.4865 42.6382 65.2651C42.5568 65.0438 42.4266 64.8615 42.2475 64.7183C42.0685 64.575 41.8244 64.5034 41.5151 64.5034C41.31 64.5034 41.1212 64.5474 40.9487 64.6353C40.7762 64.7199 40.6281 64.8468 40.5044 65.0161C40.3807 65.1854 40.2847 65.3921 40.2163 65.6362C40.1479 65.8804 40.1138 66.1619 40.1138 66.481V66.686C40.1138 66.9367 40.1479 67.1727 40.2163 67.394C40.2879 67.6121 40.3904 67.8042 40.5239 67.9702C40.6606 68.1362 40.825 68.2664 41.0171 68.3608C41.2124 68.4552 41.4337 68.5024 41.6811 68.5024C42.0001 68.5024 42.2703 68.4373 42.4917 68.3071C42.713 68.1769 42.9067 68.0028 43.0727 67.7847L43.6196 68.2192C43.5057 68.3918 43.3608 68.5562 43.185 68.7124C43.0093 68.8687 42.7928 68.9956 42.5356 69.0933C42.2817 69.1909 41.9806 69.2397 41.6323 69.2397ZM46.8569 68.4976C47.0718 68.4976 47.2703 68.4536 47.4526 68.3657C47.6349 68.2778 47.7847 68.1574 47.9018 68.0044C48.019 67.8481 48.0858 67.6707 48.102 67.4722H48.9614C48.9451 67.7847 48.8393 68.076 48.644 68.3462C48.452 68.6131 48.1997 68.8296 47.8872 68.9956C47.5747 69.1584 47.2313 69.2397 46.8569 69.2397C46.4598 69.2397 46.1131 69.1698 45.8169 69.0298C45.5239 68.8898 45.2798 68.6978 45.0845 68.4536C44.8924 68.2095 44.7475 67.9295 44.6499 67.6138C44.5555 67.2948 44.5083 66.9578 44.5083 66.603V66.3979C44.5083 66.0431 44.5555 65.7078 44.6499 65.3921C44.7475 65.0731 44.8924 64.7915 45.0845 64.5474C45.2798 64.3032 45.5239 64.1112 45.8169 63.9712C46.1131 63.8312 46.4598 63.7612 46.8569 63.7612C47.2703 63.7612 47.6317 63.8459 47.9409 64.0151C48.2501 64.1812 48.4927 64.409 48.6684 64.6987C48.8475 64.9852 48.9451 65.3107 48.9614 65.6753H48.102C48.0858 65.4572 48.0239 65.2603 47.9165 65.0845C47.8123 64.9087 47.6691 64.7687 47.4868 64.6646C47.3078 64.5571 47.0978 64.5034 46.8569 64.5034C46.5802 64.5034 46.3475 64.5588 46.1587 64.6694C45.9731 64.7769 45.825 64.9233 45.7143 65.1089C45.6069 65.2912 45.5288 65.4946 45.48 65.7192C45.4344 65.9406 45.4116 66.1668 45.4116 66.3979V66.603C45.4116 66.8341 45.4344 67.062 45.48 67.2866C45.5255 67.5112 45.602 67.7147 45.7095 67.897C45.8201 68.0793 45.9682 68.2257 46.1538 68.3364C46.3426 68.4438 46.577 68.4976 46.8569 68.4976ZM49.7378 66.5591V66.4468C49.7378 66.0659 49.7931 65.7127 49.9038 65.3872C50.0145 65.0584 50.174 64.7736 50.3823 64.5327C50.5906 64.2886 50.8429 64.0998 51.1391 63.9663C51.4354 63.8296 51.7674 63.7612 52.1352 63.7612C52.5063 63.7612 52.84 63.8296 53.1362 63.9663C53.4357 64.0998 53.6896 64.2886 53.8979 64.5327C54.1095 64.7736 54.2707 65.0584 54.3813 65.3872C54.492 65.7127 54.5473 66.0659 54.5473 66.4468V66.5591C54.5473 66.9399 54.492 67.2931 54.3813 67.6187C54.2707 67.9442 54.1095 68.229 53.8979 68.4731C53.6896 68.714 53.4373 68.9028 53.1411 69.0396C52.8481 69.173 52.5161 69.2397 52.145 69.2397C51.7739 69.2397 51.4403 69.173 51.144 69.0396C50.8478 68.9028 50.5939 68.714 50.3823 68.4731C50.174 68.229 50.0145 67.9442 49.9038 67.6187C49.7931 67.2931 49.7378 66.9399 49.7378 66.5591ZM50.6411 66.4468V66.5591C50.6411 66.8228 50.672 67.0718 50.7339 67.3062C50.7957 67.5373 50.8885 67.7424 51.0122 67.9214C51.1391 68.1004 51.297 68.242 51.4858 68.3462C51.6746 68.4471 51.8944 68.4976 52.145 68.4976C52.3924 68.4976 52.6089 68.4471 52.7944 68.3462C52.9832 68.242 53.1395 68.1004 53.2632 67.9214C53.3869 67.7424 53.4796 67.5373 53.5415 67.3062C53.6066 67.0718 53.6391 66.8228 53.6391 66.5591V66.4468C53.6391 66.1864 53.6066 65.9406 53.5415 65.7095C53.4796 65.4751 53.3852 65.2684 53.2583 65.0894C53.1346 64.9071 52.9783 64.7638 52.7895 64.6597C52.604 64.5555 52.3859 64.5034 52.1352 64.5034C51.8878 64.5034 51.6697 64.5555 51.4809 64.6597C51.2954 64.7638 51.1391 64.9071 51.0122 65.0894C50.8885 65.2684 50.7957 65.4751 50.7339 65.7095C50.672 65.9406 50.6411 66.1864 50.6411 66.4468ZM56.5835 64.9868V69.1421H55.6802V63.8589H56.5347L56.5835 64.9868ZM56.3686 66.3003L55.9927 66.2856C55.9959 65.9243 56.0496 65.5907 56.1538 65.2847C56.258 64.9754 56.4044 64.7069 56.5932 64.479C56.782 64.2511 57.0067 64.0754 57.2671 63.9517C57.5307 63.8247 57.8221 63.7612 58.1411 63.7612C58.4015 63.7612 58.6359 63.797 58.8442 63.8687C59.0526 63.937 59.23 64.0477 59.3764 64.2007C59.5262 64.3537 59.6401 64.5522 59.7182 64.7964C59.7964 65.0373 59.8354 65.3319 59.8354 65.6802V69.1421H58.9272V65.6704C58.9272 65.3937 58.8865 65.1724 58.8052 65.0063C58.7238 64.8371 58.605 64.715 58.4487 64.6401C58.2925 64.562 58.1004 64.5229 57.8725 64.5229C57.6479 64.5229 57.4429 64.5701 57.2573 64.6646C57.075 64.759 56.9171 64.8892 56.7837 65.0552C56.6535 65.2212 56.5509 65.4116 56.4761 65.6265C56.4044 65.8381 56.3686 66.0627 56.3686 66.3003ZM64.5376 68.1167V61.6421H65.4458V69.1421H64.6157L64.5376 68.1167ZM60.9829 66.5591V66.4565C60.9829 66.0529 61.0317 65.6867 61.1294 65.3579C61.2303 65.0259 61.3719 64.741 61.5542 64.5034C61.7397 64.2658 61.9595 64.0835 62.2134 63.9565C62.4705 63.8263 62.757 63.7612 63.0727 63.7612C63.4048 63.7612 63.6945 63.8198 63.9419 63.937C64.1925 64.0509 64.4041 64.2186 64.5766 64.4399C64.7524 64.658 64.8908 64.9217 64.9917 65.231C65.0926 65.5402 65.1626 65.8901 65.2016 66.2808V66.73C65.1658 67.1174 65.0959 67.4657 64.9917 67.7749C64.8908 68.0841 64.7524 68.3478 64.5766 68.5659C64.4041 68.784 64.1925 68.9517 63.9419 69.0688C63.6912 69.1828 63.3983 69.2397 63.063 69.2397C62.7537 69.2397 62.4705 69.173 62.2134 69.0396C61.9595 68.9061 61.7397 68.7189 61.5542 68.478C61.3719 68.2371 61.2303 67.9539 61.1294 67.6284C61.0317 67.2996 60.9829 66.9432 60.9829 66.5591ZM61.8911 66.4565V66.5591C61.8911 66.8228 61.9171 67.0701 61.9692 67.3013C62.0246 67.5324 62.1092 67.7358 62.2231 67.9116C62.3371 68.0874 62.4819 68.2257 62.6577 68.3267C62.8335 68.4243 63.0434 68.4731 63.2876 68.4731C63.5871 68.4731 63.8328 68.4097 64.0249 68.2827C64.2202 68.1558 64.3764 67.9881 64.4936 67.7798C64.6108 67.5715 64.702 67.3452 64.7671 67.1011V65.9243C64.728 65.7453 64.671 65.5728 64.5962 65.4067C64.5246 65.2375 64.4302 65.0877 64.313 64.9575C64.199 64.8241 64.0574 64.7183 63.8882 64.6401C63.7222 64.562 63.5252 64.5229 63.2973 64.5229C63.05 64.5229 62.8367 64.575 62.6577 64.6792C62.4819 64.7801 62.3371 64.9201 62.2231 65.0991C62.1092 65.2749 62.0246 65.48 61.9692 65.7144C61.9171 65.9455 61.8911 66.1929 61.8911 66.4565ZM69.9673 68.2388V65.519C69.9673 65.3107 69.925 65.13 69.8403 64.9771C69.7589 64.8208 69.6352 64.7004 69.4692 64.6157C69.3032 64.5311 69.0981 64.4888 68.854 64.4888C68.6261 64.4888 68.4259 64.5278 68.2534 64.606C68.0841 64.6841 67.9507 64.7866 67.853 64.9136C67.7586 65.0405 67.7114 65.1772 67.7114 65.3237H66.8081C66.8081 65.1349 66.8569 64.9478 66.9546 64.7622C67.0522 64.5767 67.1922 64.409 67.3745 64.2593C67.56 64.1063 67.7814 63.9858 68.0386 63.8979C68.299 63.8068 68.5887 63.7612 68.9077 63.7612C69.2918 63.7612 69.6304 63.8263 69.9233 63.9565C70.2195 64.0868 70.4507 64.2837 70.6167 64.5474C70.786 64.8078 70.8706 65.1349 70.8706 65.5288V67.9897C70.8706 68.1655 70.8852 68.3527 70.9145 68.5513C70.9471 68.7498 70.9943 68.9207 71.0561 69.064V69.1421H70.1138C70.0682 69.0379 70.0324 68.8996 70.0063 68.7271C69.9803 68.5513 69.9673 68.3885 69.9673 68.2388ZM70.1235 65.939L70.1333 66.5737H69.2202C68.963 66.5737 68.7335 66.5949 68.5317 66.6372C68.3299 66.6763 68.1606 66.7365 68.0239 66.8179C67.8872 66.8993 67.783 67.0018 67.7114 67.1255C67.6398 67.2459 67.604 67.3875 67.604 67.5503C67.604 67.7163 67.6414 67.8677 67.7163 68.0044C67.7912 68.1411 67.9035 68.2502 68.0532 68.3315C68.2062 68.4097 68.3934 68.4487 68.6147 68.4487C68.8914 68.4487 69.1356 68.3901 69.3472 68.2729C69.5587 68.1558 69.7264 68.0125 69.8501 67.8433C69.977 67.674 70.0454 67.5096 70.0552 67.3501L70.4409 67.7847C70.4181 67.9214 70.3563 68.0728 70.2554 68.2388C70.1544 68.4048 70.0194 68.5643 69.8501 68.7173C69.6841 68.867 69.4855 68.9924 69.2544 69.0933C69.0265 69.1909 68.7694 69.2397 68.4829 69.2397C68.1248 69.2397 67.8107 69.1698 67.5405 69.0298C67.2736 68.8898 67.0653 68.7026 66.9155 68.4683C66.769 68.2306 66.6958 67.9653 66.6958 67.6724C66.6958 67.3892 66.7511 67.1401 66.8618 66.9253C66.9725 66.7072 67.132 66.5265 67.3403 66.3833C67.5487 66.2368 67.7993 66.1261 68.0923 66.0513C68.3852 65.9764 68.7124 65.939 69.0737 65.939H70.1235ZM73.1948 64.689V69.1421H72.2915V63.8589H73.1704L73.1948 64.689ZM74.8452 63.8296L74.8403 64.6694C74.7654 64.6532 74.6938 64.6434 74.6255 64.6401C74.5604 64.6336 74.4855 64.6304 74.4009 64.6304C74.1925 64.6304 74.0086 64.6629 73.8491 64.728C73.6896 64.7931 73.5545 64.8843 73.4438 65.0015C73.3332 65.1187 73.2453 65.2586 73.1802 65.4214C73.1183 65.5809 73.0776 65.7567 73.0581 65.9487L72.8042 66.0952C72.8042 65.7762 72.8351 65.4767 72.897 65.1968C72.9621 64.9168 73.0613 64.6694 73.1948 64.4546C73.3283 64.2365 73.4975 64.0672 73.7026 63.9468C73.911 63.8231 74.1584 63.7612 74.4448 63.7612C74.5099 63.7612 74.5848 63.7694 74.6694 63.7856C74.7541 63.7987 74.8126 63.8133 74.8452 63.8296ZM77.2524 68.5952L78.7222 63.8589H79.6889L77.5698 69.9575C77.521 70.0877 77.4559 70.2277 77.3745 70.3774C77.2964 70.5304 77.1955 70.6753 77.0718 70.812C76.9481 70.9487 76.7983 71.0594 76.6225 71.144C76.45 71.2319 76.2433 71.2759 76.0024 71.2759C75.9308 71.2759 75.8397 71.2661 75.729 71.2466C75.6183 71.2271 75.5402 71.2108 75.4946 71.1978L75.4897 70.4653C75.5158 70.4686 75.5565 70.4718 75.6118 70.4751C75.6704 70.4816 75.7111 70.4849 75.7339 70.4849C75.9389 70.4849 76.1131 70.4572 76.2563 70.4019C76.3996 70.3498 76.52 70.2603 76.6177 70.1333C76.7186 70.0096 76.8048 69.8387 76.8764 69.6206L77.2524 68.5952ZM76.1733 63.8589L77.5454 67.9604L77.7798 68.9126L77.1304 69.2446L75.187 63.8589H76.1733ZM85.1968 63.8589V64.5522H82.3403V63.8589H85.1968ZM83.3071 62.5747H84.2104V67.8335C84.2104 68.0125 84.2381 68.1476 84.2934 68.2388C84.3488 68.3299 84.4204 68.3901 84.5083 68.4194C84.5962 68.4487 84.6906 68.4634 84.7915 68.4634C84.8664 68.4634 84.9445 68.4569 85.0259 68.4438C85.1105 68.4276 85.174 68.4146 85.2163 68.4048L85.2212 69.1421C85.1496 69.1649 85.0552 69.186 84.938 69.2056C84.824 69.2284 84.6857 69.2397 84.5229 69.2397C84.3016 69.2397 84.0981 69.1958 83.9126 69.1079C83.727 69.02 83.5789 68.8735 83.4682 68.6685C83.3608 68.4601 83.3071 68.1802 83.3071 67.8286V62.5747ZM88.4487 69.2397C88.0809 69.2397 87.7472 69.1779 87.4477 69.0542C87.1515 68.9272 86.896 68.7498 86.6811 68.522C86.4695 68.2941 86.3068 68.0239 86.1929 67.7114C86.0789 67.3989 86.022 67.0571 86.022 66.686V66.481C86.022 66.0513 86.0854 65.6688 86.2124 65.3335C86.3393 64.995 86.5119 64.7085 86.73 64.4741C86.9481 64.2397 87.1955 64.0623 87.4722 63.9419C87.7488 63.8215 88.0353 63.7612 88.3315 63.7612C88.7091 63.7612 89.0347 63.8263 89.3081 63.9565C89.5848 64.0868 89.811 64.269 89.9868 64.5034C90.1626 64.7345 90.2928 65.008 90.3774 65.3237C90.4621 65.6362 90.5044 65.978 90.5044 66.3491V66.7544H86.5591V66.0171H89.6011V65.9487C89.588 65.7144 89.5392 65.4865 89.4546 65.2651C89.3732 65.0438 89.243 64.8615 89.0639 64.7183C88.8849 64.575 88.6408 64.5034 88.3315 64.5034C88.1264 64.5034 87.9376 64.5474 87.7651 64.6353C87.5926 64.7199 87.4445 64.8468 87.3208 65.0161C87.1971 65.1854 87.1011 65.3921 87.0327 65.6362C86.9643 65.8804 86.9302 66.1619 86.9302 66.481V66.686C86.9302 66.9367 86.9643 67.1727 87.0327 67.394C87.1043 67.6121 87.2069 67.8042 87.3403 67.9702C87.477 68.1362 87.6414 68.2664 87.8335 68.3608C88.0288 68.4552 88.2501 68.5024 88.4975 68.5024C88.8166 68.5024 89.0867 68.4373 89.3081 68.3071C89.5294 68.1769 89.7231 68.0028 89.8891 67.7847L90.436 68.2192C90.3221 68.3918 90.1772 68.5562 90.0014 68.7124C89.8257 68.8687 89.6092 68.9956 89.352 69.0933C89.0981 69.1909 88.797 69.2397 88.4487 69.2397ZM92.1694 63.8589L93.3266 65.7827L94.4985 63.8589H95.5581L93.8296 66.4663L95.6118 69.1421H94.5669L93.3462 67.1597L92.1255 69.1421H91.0757L92.853 66.4663L91.1294 63.8589H92.1694ZM98.7319 63.8589V64.5522H95.8755V63.8589H98.7319ZM96.8423 62.5747H97.7456V67.8335C97.7456 68.0125 97.7733 68.1476 97.8286 68.2388C97.8839 68.3299 97.9556 68.3901 98.0434 68.4194C98.1313 68.4487 98.2257 68.4634 98.3266 68.4634C98.4015 68.4634 98.4796 68.4569 98.561 68.4438C98.6457 68.4276 98.7091 68.4146 98.7514 68.4048L98.7563 69.1421C98.6847 69.1649 98.5903 69.186 98.4731 69.2056C98.3592 69.2284 98.2209 69.2397 98.0581 69.2397C97.8367 69.2397 97.6333 69.1958 97.4477 69.1079C97.2622 69.02 97.1141 68.8735 97.0034 68.6685C96.896 68.4601 96.8423 68.1802 96.8423 67.8286V62.5747Z" fill="#4F4F4F"/>
<ellipse cx="203.158" cy="28.2494" rx="6.08372" ry="6.07481" fill="#BDBDBD"/>
<rect x="202.144" y="26.8994" width="2.02791" height="5.39982" rx="1.01395" fill="white"/>
<rect x="202.144" y="24.1995" width="2.02791" height="2.02493" rx="1.01247" fill="white"/>
<path d="M10 81.9103H228" stroke="#ECECEC" stroke-width="2"/>
<path d="M166.835 103.661V98.5699H168.555C168.955 98.5699 169.281 98.6419 169.535 98.7861C169.79 98.9286 169.979 99.1217 170.101 99.3653C170.224 99.6089 170.285 99.8807 170.285 100.181C170.285 100.481 170.224 100.753 170.101 100.998C169.98 101.244 169.793 101.439 169.54 101.585C169.286 101.729 168.961 101.801 168.565 101.801H167.332V101.255H168.545C168.819 101.255 169.038 101.207 169.204 101.113C169.37 101.018 169.49 100.891 169.564 100.73C169.641 100.568 169.679 100.384 169.679 100.181C169.679 99.9768 169.641 99.7945 169.564 99.6338C169.49 99.473 169.369 99.3471 169.201 99.2559C169.034 99.1631 168.812 99.1167 168.535 99.1167H167.451V103.661H166.835ZM171.199 103.661V99.8426H171.766V100.419H171.805C171.875 100.23 172.001 100.077 172.183 99.9594C172.365 99.8418 172.571 99.7829 172.8 99.7829C172.843 99.7829 172.897 99.7838 172.961 99.7854C173.026 99.7871 173.075 99.7896 173.108 99.7929V100.389C173.088 100.384 173.042 100.377 172.971 100.367C172.902 100.355 172.828 100.35 172.75 100.35C172.564 100.35 172.399 100.389 172.253 100.467C172.109 100.543 171.994 100.649 171.91 100.785C171.827 100.919 171.785 101.072 171.785 101.245V103.661H171.199ZM175.238 103.74C174.894 103.74 174.591 103.658 174.331 103.494C174.072 103.33 173.87 103.101 173.724 102.806C173.58 102.511 173.508 102.166 173.508 101.772C173.508 101.374 173.58 101.027 173.724 100.73C173.87 100.433 174.072 100.203 174.331 100.039C174.591 99.8749 174.894 99.7929 175.238 99.7929C175.583 99.7929 175.885 99.8749 176.143 100.039C176.403 100.203 176.605 100.433 176.75 100.73C176.895 101.027 176.968 101.374 176.968 101.772C176.968 102.166 176.895 102.511 176.75 102.806C176.605 103.101 176.403 103.33 176.143 103.494C175.885 103.658 175.583 103.74 175.238 103.74ZM175.238 103.213C175.5 103.213 175.715 103.146 175.885 103.012C176.054 102.878 176.179 102.701 176.26 102.482C176.341 102.264 176.382 102.027 176.382 101.772C176.382 101.516 176.341 101.279 176.26 101.058C176.179 100.838 176.054 100.66 175.885 100.524C175.715 100.388 175.5 100.32 175.238 100.32C174.976 100.32 174.761 100.388 174.592 100.524C174.423 100.66 174.298 100.838 174.217 101.058C174.135 101.279 174.095 101.516 174.095 101.772C174.095 102.027 174.135 102.264 174.217 102.482C174.298 102.701 174.423 102.878 174.592 103.012C174.761 103.146 174.976 103.213 175.238 103.213ZM179.306 103.74C178.987 103.74 178.707 103.66 178.463 103.499C178.219 103.337 178.029 103.108 177.891 102.813C177.754 102.516 177.685 102.166 177.685 101.762C177.685 101.361 177.754 101.013 177.891 100.718C178.029 100.423 178.22 100.195 178.465 100.034C178.711 99.8732 178.994 99.7929 179.316 99.7929C179.564 99.7929 179.76 99.8343 179.905 99.9172C180.051 99.9984 180.162 100.091 180.238 100.196C180.316 100.298 180.376 100.383 180.419 100.449H180.469V98.5699H181.056V103.661H180.489V103.074H180.419C180.376 103.144 180.315 103.232 180.235 103.338C180.156 103.442 180.042 103.536 179.895 103.619C179.747 103.7 179.551 103.74 179.306 103.74ZM179.385 103.213C179.62 103.213 179.819 103.152 179.982 103.029C180.144 102.905 180.268 102.734 180.352 102.515C180.437 102.294 180.479 102.04 180.479 101.752C180.479 101.467 180.437 101.217 180.355 101.003C180.272 100.788 180.149 100.621 179.987 100.501C179.824 100.38 179.624 100.32 179.385 100.32C179.137 100.32 178.929 100.384 178.764 100.511C178.6 100.637 178.476 100.809 178.393 101.026C178.312 101.241 178.272 101.483 178.272 101.752C178.272 102.023 178.313 102.27 178.396 102.492C178.48 102.713 178.605 102.889 178.769 103.019C178.934 103.149 179.14 103.213 179.385 103.213ZM184.618 102.1V99.8426H185.204V103.661H184.618V103.014H184.578C184.488 103.208 184.349 103.373 184.16 103.509C183.971 103.643 183.733 103.71 183.444 103.71C183.206 103.71 182.994 103.658 182.808 103.554C182.622 103.448 182.477 103.289 182.371 103.077C182.265 102.863 182.211 102.594 182.211 102.269V99.8426H182.798V102.229C182.798 102.507 182.876 102.729 183.032 102.895C183.189 103.061 183.39 103.144 183.633 103.144C183.779 103.144 183.928 103.106 184.078 103.032C184.231 102.957 184.358 102.843 184.461 102.689C184.566 102.535 184.618 102.338 184.618 102.1ZM187.83 103.74C187.472 103.74 187.164 103.656 186.905 103.487C186.647 103.318 186.448 103.085 186.309 102.788C186.17 102.492 186.1 102.153 186.1 101.772C186.1 101.384 186.171 101.042 186.314 100.745C186.458 100.447 186.658 100.214 186.915 100.046C187.174 99.8774 187.475 99.7929 187.82 99.7929C188.089 99.7929 188.33 99.8426 188.546 99.942C188.761 100.041 188.938 100.181 189.075 100.36C189.213 100.539 189.298 100.747 189.331 100.986H188.745C188.7 100.812 188.601 100.658 188.446 100.524C188.294 100.388 188.089 100.32 187.83 100.32C187.601 100.32 187.401 100.38 187.228 100.499C187.058 100.616 186.924 100.783 186.828 100.998C186.734 101.212 186.687 101.463 186.687 101.752C186.687 102.047 186.733 102.304 186.826 102.522C186.92 102.741 187.053 102.911 187.223 103.032C187.396 103.153 187.598 103.213 187.83 103.213C187.982 103.213 188.121 103.187 188.245 103.134C188.369 103.081 188.475 103.005 188.561 102.905C188.647 102.806 188.708 102.686 188.745 102.547H189.331C189.298 102.773 189.216 102.976 189.085 103.156C188.956 103.335 188.785 103.478 188.571 103.584C188.359 103.688 188.112 103.74 187.83 103.74ZM191.85 99.8426V100.34H189.871V99.8426H191.85ZM190.448 98.9278H191.034V102.567C191.034 102.733 191.058 102.857 191.106 102.94C191.156 103.021 191.219 103.076 191.295 103.104C191.373 103.13 191.455 103.144 191.541 103.144C191.606 103.144 191.659 103.14 191.7 103.134C191.742 103.125 191.775 103.119 191.8 103.114L191.919 103.641C191.879 103.656 191.824 103.671 191.753 103.686C191.681 103.702 191.591 103.71 191.482 103.71C191.316 103.71 191.154 103.675 190.994 103.604C190.837 103.532 190.706 103.424 190.602 103.278C190.499 103.132 190.448 102.948 190.448 102.726V98.9278Z" fill="#4F4F4F"/>
<rect x="151.009" y="98.6857" width="10.6465" height="4.04987" fill="#219653"/>
<path d="M166.835 115.81V110.719H168.555C168.955 110.719 169.281 110.791 169.535 110.936C169.79 111.078 169.979 111.271 170.101 111.515C170.224 111.758 170.285 112.03 170.285 112.33C170.285 112.63 170.224 112.903 170.101 113.148C169.98 113.393 169.793 113.589 169.54 113.735C169.286 113.879 168.961 113.951 168.565 113.951H167.332V113.404H168.545C168.819 113.404 169.038 113.357 169.204 113.262C169.37 113.168 169.49 113.04 169.564 112.88C169.641 112.717 169.679 112.534 169.679 112.33C169.679 112.126 169.641 111.944 169.564 111.783C169.49 111.623 169.369 111.497 169.201 111.405C169.034 111.313 168.812 111.266 168.535 111.266H167.451V115.81H166.835ZM171.199 115.81V111.992H171.766V112.569H171.805C171.875 112.38 172.001 112.227 172.183 112.109C172.365 111.991 172.571 111.932 172.8 111.932C172.843 111.932 172.897 111.933 172.961 111.935C173.026 111.937 173.075 111.939 173.108 111.942V112.539C173.088 112.534 173.042 112.527 172.971 112.517C172.902 112.505 172.828 112.499 172.75 112.499C172.564 112.499 172.399 112.538 172.253 112.616C172.109 112.692 171.994 112.798 171.91 112.934C171.827 113.068 171.785 113.222 171.785 113.394V115.81H171.199ZM175.238 115.89C174.894 115.89 174.591 115.808 174.331 115.644C174.072 115.48 173.87 115.25 173.724 114.955C173.58 114.66 173.508 114.316 173.508 113.921C173.508 113.523 173.58 113.176 173.724 112.88C173.87 112.583 174.072 112.353 174.331 112.188C174.591 112.024 174.894 111.942 175.238 111.942C175.583 111.942 175.885 112.024 176.143 112.188C176.403 112.353 176.605 112.583 176.75 112.88C176.895 113.176 176.968 113.523 176.968 113.921C176.968 114.316 176.895 114.66 176.75 114.955C176.605 115.25 176.403 115.48 176.143 115.644C175.885 115.808 175.583 115.89 175.238 115.89ZM175.238 115.363C175.5 115.363 175.715 115.296 175.885 115.162C176.054 115.027 176.179 114.851 176.26 114.632C176.341 114.413 176.382 114.176 176.382 113.921C176.382 113.666 176.341 113.428 176.26 113.208C176.179 112.987 176.054 112.809 175.885 112.673C175.715 112.537 175.5 112.469 175.238 112.469C174.976 112.469 174.761 112.537 174.592 112.673C174.423 112.809 174.298 112.987 174.217 113.208C174.135 113.428 174.095 113.666 174.095 113.921C174.095 114.176 174.135 114.413 174.217 114.632C174.298 114.851 174.423 115.027 174.592 115.162C174.761 115.296 174.976 115.363 175.238 115.363ZM179.306 115.89C178.987 115.89 178.707 115.809 178.463 115.649C178.219 115.486 178.029 115.258 177.891 114.963C177.754 114.666 177.685 114.316 177.685 113.911C177.685 113.51 177.754 113.162 177.891 112.867C178.029 112.572 178.22 112.344 178.465 112.184C178.711 112.023 178.994 111.942 179.316 111.942C179.564 111.942 179.76 111.984 179.905 112.067C180.051 112.148 180.162 112.241 180.238 112.345C180.316 112.448 180.376 112.532 180.419 112.599H180.469V110.719H181.056V115.81H180.489V115.224H180.419C180.376 115.293 180.315 115.381 180.235 115.487C180.156 115.592 180.042 115.685 179.895 115.768C179.747 115.849 179.551 115.89 179.306 115.89ZM179.385 115.363C179.62 115.363 179.819 115.302 179.982 115.179C180.144 115.055 180.268 114.883 180.352 114.664C180.437 114.444 180.479 114.19 180.479 113.901C180.479 113.616 180.437 113.367 180.355 113.153C180.272 112.938 180.149 112.77 179.987 112.651C179.824 112.53 179.624 112.469 179.385 112.469C179.137 112.469 178.929 112.533 178.764 112.661C178.6 112.787 178.476 112.958 178.393 113.175C178.312 113.391 178.272 113.633 178.272 113.901C178.272 114.173 178.313 114.42 178.396 114.642C178.48 114.862 178.605 115.038 178.769 115.169C178.934 115.298 179.14 115.363 179.385 115.363ZM184.618 114.249V111.992H185.204V115.81H184.618V115.164H184.578C184.488 115.358 184.349 115.523 184.16 115.659C183.971 115.793 183.733 115.86 183.444 115.86C183.206 115.86 182.994 115.808 182.808 115.703C182.622 115.597 182.477 115.438 182.371 115.226C182.265 115.012 182.211 114.743 182.211 114.418V111.992H182.798V114.378C182.798 114.657 182.876 114.879 183.032 115.045C183.189 115.21 183.39 115.293 183.633 115.293C183.779 115.293 183.928 115.256 184.078 115.181C184.231 115.107 184.358 114.992 184.461 114.838C184.566 114.684 184.618 114.488 184.618 114.249ZM187.83 115.89C187.472 115.89 187.164 115.805 186.905 115.636C186.647 115.467 186.448 115.234 186.309 114.938C186.17 114.641 186.1 114.302 186.1 113.921C186.1 113.533 186.171 113.191 186.314 112.894C186.458 112.596 186.658 112.363 186.915 112.196C187.174 112.027 187.475 111.942 187.82 111.942C188.089 111.942 188.33 111.992 188.546 112.092C188.761 112.191 188.938 112.33 189.075 112.509C189.213 112.688 189.298 112.897 189.331 113.136H188.745C188.7 112.962 188.601 112.807 188.446 112.673C188.294 112.537 188.089 112.469 187.83 112.469C187.601 112.469 187.401 112.529 187.228 112.648C187.058 112.766 186.924 112.933 186.828 113.148C186.734 113.362 186.687 113.613 186.687 113.901C186.687 114.196 186.733 114.453 186.826 114.672C186.92 114.891 187.053 115.06 187.223 115.181C187.396 115.302 187.598 115.363 187.83 115.363C187.982 115.363 188.121 115.336 188.245 115.283C188.369 115.23 188.475 115.154 188.561 115.055C188.647 114.955 188.708 114.836 188.745 114.697H189.331C189.298 114.922 189.216 115.125 189.085 115.306C188.956 115.485 188.785 115.627 188.571 115.733C188.359 115.838 188.112 115.89 187.83 115.89ZM191.85 111.992V112.489H189.871V111.992H191.85ZM190.448 111.077H191.034V114.717C191.034 114.882 191.058 115.007 191.106 115.089C191.156 115.171 191.219 115.225 191.295 115.253C191.373 115.28 191.455 115.293 191.541 115.293C191.606 115.293 191.659 115.29 191.7 115.283C191.742 115.275 191.775 115.268 191.8 115.263L191.919 115.79C191.879 115.805 191.824 115.82 191.753 115.835C191.681 115.852 191.591 115.86 191.482 115.86C191.316 115.86 191.154 115.824 190.994 115.753C190.837 115.682 190.706 115.573 190.602 115.427C190.499 115.282 190.448 115.098 190.448 114.876V111.077Z" fill="#4F4F4F"/>
<rect x="151.009" y="110.835" width="10.6465" height="4.04988" fill="#F2994A"/>
<path d="M166.835 128.466V123.375H168.555C168.955 123.375 169.281 123.447 169.535 123.592C169.79 123.734 169.979 123.927 170.101 124.171C170.224 124.414 170.285 124.686 170.285 124.986C170.285 125.286 170.224 125.559 170.101 125.804C169.98 126.049 169.793 126.245 169.54 126.391C169.286 126.535 168.961 126.607 168.565 126.607H167.332V126.06H168.545C168.819 126.06 169.038 126.013 169.204 125.918C169.37 125.824 169.49 125.696 169.564 125.535C169.641 125.373 169.679 125.19 169.679 124.986C169.679 124.782 169.641 124.6 169.564 124.439C169.49 124.278 169.369 124.153 169.201 124.061C169.034 123.969 168.812 123.922 168.535 123.922H167.451V128.466H166.835ZM171.199 128.466V124.648H171.766V125.225H171.805C171.875 125.036 172.001 124.882 172.183 124.765C172.365 124.647 172.571 124.588 172.8 124.588C172.843 124.588 172.897 124.589 172.961 124.591C173.026 124.592 173.075 124.595 173.108 124.598V125.195C173.088 125.19 173.042 125.182 172.971 125.173C172.902 125.161 172.828 125.155 172.75 125.155C172.564 125.155 172.399 125.194 172.253 125.272C172.109 125.348 171.994 125.454 171.91 125.59C171.827 125.724 171.785 125.878 171.785 126.05V128.466H171.199ZM175.238 128.546C174.894 128.546 174.591 128.464 174.331 128.3C174.072 128.136 173.87 127.906 173.724 127.611C173.58 127.316 173.508 126.971 173.508 126.577C173.508 126.179 173.58 125.832 173.724 125.535C173.87 125.239 174.072 125.008 174.331 124.844C174.591 124.68 174.894 124.598 175.238 124.598C175.583 124.598 175.885 124.68 176.143 124.844C176.403 125.008 176.605 125.239 176.75 125.535C176.895 125.832 176.968 126.179 176.968 126.577C176.968 126.971 176.895 127.316 176.75 127.611C176.605 127.906 176.403 128.136 176.143 128.3C175.885 128.464 175.583 128.546 175.238 128.546ZM175.238 128.019C175.5 128.019 175.715 127.952 175.885 127.817C176.054 127.683 176.179 127.507 176.26 127.288C176.341 127.069 176.382 126.832 176.382 126.577C176.382 126.322 176.341 126.084 176.26 125.864C176.179 125.643 176.054 125.465 175.885 125.329C175.715 125.193 175.5 125.125 175.238 125.125C174.976 125.125 174.761 125.193 174.592 125.329C174.423 125.465 174.298 125.643 174.217 125.864C174.135 126.084 174.095 126.322 174.095 126.577C174.095 126.832 174.135 127.069 174.217 127.288C174.298 127.507 174.423 127.683 174.592 127.817C174.761 127.952 174.976 128.019 175.238 128.019ZM179.306 128.546C178.987 128.546 178.707 128.465 178.463 128.305C178.219 128.142 178.029 127.914 177.891 127.619C177.754 127.322 177.685 126.971 177.685 126.567C177.685 126.166 177.754 125.818 177.891 125.523C178.029 125.228 178.22 125 178.465 124.839C178.711 124.679 178.994 124.598 179.316 124.598C179.564 124.598 179.76 124.64 179.905 124.723C180.051 124.804 180.162 124.897 180.238 125.001C180.316 125.104 180.376 125.188 180.419 125.255H180.469V123.375H181.056V128.466H180.489V127.88H180.419C180.376 127.949 180.315 128.037 180.235 128.143C180.156 128.247 180.042 128.341 179.895 128.424C179.747 128.505 179.551 128.546 179.306 128.546ZM179.385 128.019C179.62 128.019 179.819 127.957 179.982 127.835C180.144 127.711 180.268 127.539 180.352 127.32C180.437 127.1 180.479 126.845 180.479 126.557C180.479 126.272 180.437 126.023 180.355 125.809C180.272 125.593 180.149 125.426 179.987 125.307C179.824 125.186 179.624 125.125 179.385 125.125C179.137 125.125 178.929 125.189 178.764 125.317C178.6 125.443 178.476 125.614 178.393 125.831C178.312 126.047 178.272 126.289 178.272 126.557C178.272 126.829 178.313 127.076 178.396 127.298C178.48 127.518 178.605 127.694 178.769 127.825C178.934 127.954 179.14 128.019 179.385 128.019ZM184.618 126.905V124.648H185.204V128.466H184.618V127.82H184.578C184.488 128.014 184.349 128.179 184.16 128.315C183.971 128.449 183.733 128.516 183.444 128.516C183.206 128.516 182.994 128.464 182.808 128.359C182.622 128.253 182.477 128.094 182.371 127.882C182.265 127.668 182.211 127.399 182.211 127.074V124.648H182.798V127.034C182.798 127.313 182.876 127.535 183.032 127.701C183.189 127.866 183.39 127.949 183.633 127.949C183.779 127.949 183.928 127.912 184.078 127.837C184.231 127.763 184.358 127.648 184.461 127.494C184.566 127.34 184.618 127.144 184.618 126.905ZM187.83 128.546C187.472 128.546 187.164 128.461 186.905 128.292C186.647 128.123 186.448 127.89 186.309 127.594C186.17 127.297 186.1 126.958 186.1 126.577C186.1 126.189 186.171 125.847 186.314 125.55C186.458 125.252 186.658 125.019 186.915 124.852C187.174 124.683 187.475 124.598 187.82 124.598C188.089 124.598 188.33 124.648 188.546 124.747C188.761 124.847 188.938 124.986 189.075 125.165C189.213 125.344 189.298 125.553 189.331 125.791H188.745C188.7 125.617 188.601 125.463 188.446 125.329C188.294 125.193 188.089 125.125 187.83 125.125C187.601 125.125 187.401 125.185 187.228 125.304C187.058 125.422 186.924 125.588 186.828 125.804C186.734 126.018 186.687 126.269 186.687 126.557C186.687 126.852 186.733 127.109 186.826 127.328C186.92 127.546 187.053 127.716 187.223 127.837C187.396 127.958 187.598 128.019 187.83 128.019C187.982 128.019 188.121 127.992 188.245 127.939C188.369 127.886 188.475 127.81 188.561 127.711C188.647 127.611 188.708 127.492 188.745 127.353H189.331C189.298 127.578 189.216 127.781 189.085 127.962C188.956 128.141 188.785 128.283 188.571 128.389C188.359 128.494 188.112 128.546 187.83 128.546ZM191.85 124.648V125.145H189.871V124.648H191.85ZM190.448 123.733H191.034V127.372C191.034 127.538 191.058 127.662 191.106 127.745C191.156 127.827 191.219 127.881 191.295 127.909C191.373 127.936 191.455 127.949 191.541 127.949C191.606 127.949 191.659 127.946 191.7 127.939C191.742 127.931 191.775 127.924 191.8 127.919L191.919 128.446C191.879 128.461 191.824 128.476 191.753 128.491C191.681 128.508 191.591 128.516 191.482 128.516C191.316 128.516 191.154 128.48 190.994 128.409C190.837 128.338 190.706 128.229 190.602 128.083C190.499 127.938 190.448 127.754 190.448 127.532V123.733Z" fill="#4F4F4F"/>
<rect x="151.009" y="123.491" width="10.6465" height="4.04988" fill="#9B51E0"/>
<path d="M132.758 140.956C132.758 148.242 131.159 155.439 128.074 162.041C124.989 168.643 120.493 174.49 114.901 179.17C109.31 183.85 102.759 187.25 95.7105 189.131C88.6617 191.011 81.2858 191.326 74.1017 190.054C66.9177 188.782 60.1001 185.954 54.1286 181.768C48.157 177.582 43.1766 172.14 39.5378 165.826C35.8989 159.511 33.6899 152.477 33.0664 145.218C32.4428 137.959 33.4197 130.652 35.9284 123.811L47.8418 128.167C45.9705 133.27 45.2418 138.721 45.7069 144.135C46.1721 149.55 47.8198 154.797 50.5342 159.507C53.2486 164.218 56.9637 168.277 61.4181 171.399C65.8725 174.522 70.9581 176.632 76.3169 177.581C81.6758 178.529 87.1778 178.294 92.4358 176.891C97.6938 175.489 102.58 172.953 106.751 169.461C110.922 165.97 114.276 161.609 116.577 156.684C118.878 151.759 120.071 146.391 120.071 140.956H132.758Z" fill="#219653"/>
<path d="M82.8208 190.82C75.5247 190.82 68.3173 189.224 61.7055 186.143C55.0938 183.063 49.2383 178.573 44.5512 172.99C39.8641 167.407 36.4591 160.866 34.5758 153.827C32.6926 146.789 32.3768 139.423 33.6507 132.25C34.9246 125.076 37.7573 118.269 41.9494 112.306C46.1415 106.343 51.5912 101.37 57.9151 97.7365C64.239 94.103 71.2834 91.8973 78.5528 91.2746C85.8222 90.6519 93.1399 91.6274 99.9912 94.1324L95.6105 106.079C90.5072 104.213 85.0565 103.486 79.6417 103.95C74.227 104.414 68.9798 106.057 64.2693 108.763C59.5588 111.47 55.4995 115.174 52.377 119.616C49.2544 124.057 47.1444 129.128 46.1955 134.471C45.2466 139.814 45.4819 145.301 46.8846 150.543C48.2874 155.786 50.8237 160.658 54.315 164.817C57.8063 168.976 62.1678 172.32 67.0927 174.615C72.0176 176.909 77.3862 178.098 82.8208 178.098L82.8208 190.82Z" fill="#9B51E0"/>
<path d="M34.5852 128.05C37.743 116.282 45.1063 106.076 55.2848 99.3577C65.4633 92.6398 77.7527 89.8752 89.8328 91.5859C101.913 93.2966 112.948 99.3643 120.854 108.643C128.761 117.922 132.992 129.771 132.748 141.951L119.801 141.693C119.981 132.671 116.847 123.896 110.991 117.023C105.135 110.15 96.9619 105.656 88.0144 104.389C79.067 103.122 69.9645 105.169 62.4256 110.145C54.8866 115.121 49.4329 122.681 47.0939 131.397L34.5852 128.05Z" fill="#F2994A"/>
<path d="M46.6827 131.287C48.6247 124.05 52.7009 117.564 58.382 112.67C64.0632 107.776 71.0867 104.7 78.5406 103.843C85.9944 102.986 93.5342 104.387 100.181 107.863C106.827 111.339 112.273 116.731 115.812 123.338L107.256 127.907C104.636 123.013 100.602 119.02 95.6788 116.445C90.7559 113.87 85.1714 112.833 79.6505 113.468C74.1297 114.102 68.9275 116.38 64.7196 120.005C60.5118 123.63 57.4926 128.434 56.0543 133.794L46.6827 131.287Z" fill="#1DDD8D"/>
<path d="M115.221 122.277C118.298 127.598 120.012 133.594 120.214 139.734C120.415 145.874 119.097 151.969 116.375 157.479C113.654 162.989 109.614 167.744 104.613 171.323C99.6118 174.901 93.804 177.193 87.7041 177.995C81.6041 178.797 75.4003 178.084 69.642 175.92C63.8838 173.756 58.7489 170.207 54.6922 165.588C50.6355 160.969 47.7823 155.422 46.3851 149.439C44.988 143.456 45.0902 137.222 46.6826 131.287L56.0542 133.795C54.8747 138.19 54.799 142.808 55.8339 147.239C56.8687 151.671 58.982 155.779 61.9867 159.2C64.9913 162.622 68.7946 165.25 73.0596 166.853C77.3246 168.456 81.9196 168.984 86.4377 168.39C90.9558 167.796 95.2574 166.098 98.9616 163.448C102.666 160.797 105.658 157.276 107.674 153.194C109.689 149.113 110.666 144.599 110.517 140.051C110.368 135.503 109.097 131.062 106.819 127.121L115.221 122.277Z" fill="#953BBF"/>
<path d="M34.5852 128.05C36.2825 121.725 39.2108 115.796 43.2029 110.601C47.1951 105.406 52.1729 101.046 57.8522 97.7724L64.2453 108.829C60.0202 111.265 56.317 114.508 53.347 118.373C50.377 122.238 48.1985 126.649 46.9358 131.355L34.5852 128.05Z" fill="#16BFD6"/>
<defs>
<filter id="filter0_d_184_8667" x="0" y="0" width="238" height="223" filterUnits="userSpaceOnUse" color-interpolation-filters="sRGB">
<feFlood flood-opacity="0" result="BackgroundImageFix"/>
<feColorMatrix in="SourceAlpha" type="matrix" values="0 0 0 0 0 0 0 0 0 0 0 0 0 0 0 0 0 0 127 0" result="hardAlpha"/>
<feOffset dy="2"/>
<feGaussianBlur stdDeviation="5"/>
<feComposite in2="hardAlpha" operator="out"/>
<feColorMatrix type="matrix" values="0 0 0 0 0 0 0 0 0 0 0 0 0 0 0 0 0 0 0.1 0"/>
<feBlend mode="normal" in2="BackgroundImageFix" result="effect1_dropShadow_184_8667"/>
<feBlend mode="normal" in="SourceGraphic" in2="effect1_dropShadow_184_8667" result="shape"/>
</filter>
</defs>
</svg>
