<svg width="326" height="306" viewBox="0 0 326 306" fill="none" xmlns="http://www.w3.org/2000/svg">
<g filter="url(#filter0_d_184_7562)">
<rect x="10" y="8" width="306" height="286" rx="6" fill="white"/>
</g>
<path d="M47.4842 38.772H44.5545V37.0845H47.4842C47.9634 37.0845 48.3514 37.0063 48.6483 36.8501C48.9503 36.6886 49.1717 36.4699 49.3123 36.1938C49.4529 35.9126 49.5233 35.5923 49.5233 35.2329C49.5233 34.884 49.4529 34.5584 49.3123 34.2563C49.1717 33.9543 48.9503 33.7095 48.6483 33.522C48.3514 33.3345 47.9634 33.2407 47.4842 33.2407H45.2576V42.9204H43.1092V31.5454H47.4842C48.3696 31.5454 49.1248 31.7043 49.7498 32.022C50.38 32.3345 50.8592 32.7694 51.1873 33.3267C51.5207 33.8787 51.6873 34.509 51.6873 35.2173C51.6873 35.9517 51.5207 36.5845 51.1873 37.1157C50.8592 37.647 50.38 38.0558 49.7498 38.3423C49.1248 38.6287 48.3696 38.772 47.4842 38.772ZM53.3748 31.5454H57.5076C58.3722 31.5454 59.1144 31.6756 59.7342 31.936C60.354 32.1965 60.8305 32.5819 61.1639 33.0923C61.4972 33.6027 61.6639 34.2303 61.6639 34.9751C61.6639 35.5636 61.5597 36.0741 61.3514 36.5063C61.143 36.9386 60.8488 37.3006 60.4686 37.5923C60.0936 37.884 59.6509 38.1131 59.1404 38.2798L58.4686 38.6235H54.8201L54.8045 36.9282H57.5311C57.9738 36.9282 58.341 36.8501 58.6326 36.6938C58.9243 36.5376 59.143 36.3215 59.2889 36.0454C59.4399 35.7694 59.5154 35.4543 59.5154 35.1001C59.5154 34.7199 59.4425 34.3918 59.2967 34.1157C59.1509 33.8345 58.9295 33.6183 58.6326 33.4673C58.3358 33.3162 57.9608 33.2407 57.5076 33.2407H55.5233V42.9204H53.3748V31.5454ZM59.7967 42.9204L57.1639 37.8267L59.4373 37.8188L62.1014 42.811V42.9204H59.7967ZM65.8358 31.5454V42.9204H63.6873V31.5454H65.8358ZM69.0936 31.5454H70.9529L74.0623 40.1079L77.1639 31.5454H79.0311L74.8045 42.9204H73.3123L69.0936 31.5454ZM68.1561 31.5454H69.9764L70.3045 39.4126V42.9204H68.1561V31.5454ZM78.1404 31.5454H79.9686V42.9204H77.8201V39.4126L78.1404 31.5454ZM86.8201 33.272L83.5779 42.9204H81.3045L85.5545 31.5454H87.0076L86.8201 33.272ZM89.5311 42.9204L86.2733 33.272L86.0779 31.5454H87.5389L91.8123 42.9204H89.5311ZM89.3826 38.6938V40.3892H83.2811V38.6938H89.3826ZM92.9842 31.5454H97.117C97.9816 31.5454 98.7238 31.6756 99.3436 31.936C99.9634 32.1965 100.44 32.5819 100.773 33.0923C101.107 33.6027 101.273 34.2303 101.273 34.9751C101.273 35.5636 101.169 36.0741 100.961 36.5063C100.752 36.9386 100.458 37.3006 100.078 37.5923C99.7029 37.884 99.2602 38.1131 98.7498 38.2798L98.0779 38.6235H94.4295L94.4139 36.9282H97.1404C97.5832 36.9282 97.9503 36.8501 98.242 36.6938C98.5337 36.5376 98.7524 36.3215 98.8983 36.0454C99.0493 35.7694 99.1248 35.4543 99.1248 35.1001C99.1248 34.7199 99.0519 34.3918 98.9061 34.1157C98.7602 33.8345 98.5389 33.6183 98.242 33.4673C97.9451 33.3162 97.5701 33.2407 97.117 33.2407H95.1326V42.9204H92.9842V31.5454ZM99.4061 42.9204L96.7733 37.8267L99.0467 37.8188L101.711 42.811V42.9204H99.4061ZM104.109 31.5454L106.609 36.8501L109.125 31.5454H111.484L107.703 38.7563V42.9204H105.523V38.7563L101.734 31.5454H104.109ZM121.101 31.5454V42.9204H118.961V31.5454H121.101ZM124.633 31.5454V33.2407H115.469V31.5454H124.633ZM133.601 41.2329V42.9204H127.555V41.2329H133.601ZM128.211 31.5454V42.9204H126.062V31.5454H128.211ZM132.812 36.2407V37.8892H127.555V36.2407H132.812ZM133.578 31.5454V33.2407H127.555V31.5454H133.578ZM136.805 31.5454L139.078 35.6001L141.359 31.5454H143.828L140.453 37.186L143.914 42.9204H141.422L139.078 38.7876L136.742 42.9204H134.242L137.703 37.186L134.328 31.5454H136.805ZM150.117 31.5454V42.9204H147.976V31.5454H150.117ZM153.648 31.5454V33.2407H144.484V31.5454H153.648Z" fill="#828282"/>
<path d="M48.4832 58.3252C48.4832 58.0928 48.4468 57.8877 48.3738 57.71C48.3055 57.5277 48.1824 57.3636 48.0047 57.2178C47.8315 57.0719 47.59 56.9329 47.2801 56.8008C46.9748 56.6686 46.5874 56.5342 46.118 56.3975C45.6258 56.2516 45.1815 56.0898 44.785 55.9121C44.3885 55.7298 44.049 55.5225 43.7664 55.29C43.4839 55.0576 43.2674 54.791 43.117 54.4902C42.9666 54.1895 42.8914 53.8454 42.8914 53.458C42.8914 53.0706 42.9712 52.7129 43.1307 52.3848C43.2902 52.0566 43.518 51.7718 43.8143 51.5303C44.1151 51.2842 44.4728 51.0928 44.8875 50.9561C45.3022 50.8193 45.7648 50.751 46.2752 50.751C47.0226 50.751 47.6561 50.8945 48.1756 51.1816C48.6997 51.4642 49.0984 51.8356 49.3719 52.2959C49.6453 52.7516 49.782 53.2393 49.782 53.7588H48.4695C48.4695 53.3851 48.3898 53.0547 48.2303 52.7676C48.0708 52.4759 47.8292 52.248 47.5057 52.084C47.1821 51.9154 46.772 51.8311 46.2752 51.8311C45.8058 51.8311 45.4184 51.9017 45.1131 52.043C44.8078 52.1842 44.5799 52.3757 44.4295 52.6172C44.2837 52.8587 44.2108 53.1344 44.2108 53.4443C44.2108 53.654 44.254 53.8454 44.3406 54.0186C44.4318 54.1872 44.5708 54.3444 44.7576 54.4902C44.949 54.6361 45.1906 54.7705 45.4822 54.8936C45.7785 55.0166 46.1317 55.1351 46.5418 55.249C47.1069 55.4085 47.5945 55.5863 48.0047 55.7822C48.4149 55.9782 48.7521 56.1992 49.0164 56.4453C49.2853 56.6868 49.4835 56.9626 49.6111 57.2725C49.7433 57.5778 49.8094 57.9242 49.8094 58.3115C49.8094 58.7171 49.7274 59.084 49.5633 59.4121C49.3992 59.7402 49.1645 60.0205 48.8592 60.2529C48.5539 60.4854 48.187 60.6654 47.7586 60.793C47.3348 60.916 46.8608 60.9775 46.3367 60.9775C45.8764 60.9775 45.423 60.9137 44.9764 60.7861C44.5343 60.6585 44.131 60.4671 43.7664 60.2119C43.4064 59.9567 43.117 59.6423 42.8983 59.2686C42.6841 58.8903 42.577 58.4528 42.577 57.9561H43.8895C43.8895 58.2979 43.9555 58.5918 44.0877 58.8379C44.2199 59.0794 44.3999 59.2799 44.6277 59.4395C44.8602 59.599 45.1222 59.7174 45.4139 59.7949C45.7101 59.8678 46.0177 59.9043 46.3367 59.9043C46.797 59.9043 47.1867 59.8405 47.5057 59.7129C47.8247 59.5853 48.0662 59.403 48.2303 59.166C48.3989 58.929 48.4832 58.6488 48.4832 58.3252ZM54.369 60.9775C53.854 60.9775 53.3869 60.891 52.9676 60.7178C52.5529 60.54 52.1951 60.2917 51.8943 59.9727C51.5981 59.6536 51.3703 59.2754 51.2108 58.8379C51.0512 58.4004 50.9715 57.9219 50.9715 57.4023V57.1152C50.9715 56.5137 51.0604 55.9782 51.2381 55.5088C51.4158 55.0348 51.6574 54.6338 51.9627 54.3057C52.268 53.9775 52.6144 53.7292 53.0018 53.5605C53.3891 53.3919 53.7902 53.3076 54.2049 53.3076C54.7335 53.3076 55.1893 53.3988 55.5721 53.5811C55.9595 53.7633 56.2762 54.0186 56.5223 54.3467C56.7684 54.6702 56.9507 55.0531 57.0692 55.4951C57.1876 55.9326 57.2469 56.4111 57.2469 56.9307V57.498H51.7234V56.4658H55.9822V56.3701C55.964 56.042 55.8957 55.723 55.7772 55.4131C55.6632 55.1032 55.4809 54.848 55.2303 54.6475C54.9796 54.4469 54.6378 54.3467 54.2049 54.3467C53.9178 54.3467 53.6535 54.4082 53.4119 54.5312C53.1704 54.6497 52.963 54.8275 52.7899 55.0645C52.6167 55.3014 52.4822 55.5908 52.3865 55.9326C52.2908 56.2744 52.243 56.6686 52.243 57.1152V57.4023C52.243 57.7533 52.2908 58.0837 52.3865 58.3936C52.4868 58.6989 52.6304 58.9678 52.8172 59.2002C53.0086 59.4326 53.2387 59.6149 53.5076 59.7471C53.7811 59.8792 54.091 59.9453 54.4373 59.9453C54.8839 59.9453 55.2622 59.8542 55.5721 59.6719C55.882 59.4896 56.1531 59.2458 56.3856 58.9404L57.1512 59.5488C56.9917 59.7904 56.7889 60.0205 56.5428 60.2393C56.2967 60.458 55.9936 60.6357 55.6336 60.7725C55.2781 60.9092 54.8566 60.9775 54.369 60.9775ZM61.6834 59.9385C61.9842 59.9385 62.2622 59.877 62.5174 59.7539C62.7726 59.6309 62.9822 59.4622 63.1463 59.248C63.3104 59.0293 63.4038 58.7809 63.4266 58.5029H64.6297C64.6069 58.9404 64.4588 59.3483 64.1854 59.7266C63.9165 60.1003 63.5633 60.4033 63.1258 60.6357C62.6883 60.8636 62.2075 60.9775 61.6834 60.9775C61.1274 60.9775 60.6421 60.8796 60.2274 60.6836C59.8172 60.4876 59.4754 60.2188 59.202 59.877C58.9331 59.5352 58.7303 59.1432 58.5936 58.7012C58.4614 58.2546 58.3953 57.7829 58.3953 57.2861V56.999C58.3953 56.5023 58.4614 56.0329 58.5936 55.5908C58.7303 55.1442 58.9331 54.75 59.202 54.4082C59.4754 54.0664 59.8172 53.7975 60.2274 53.6016C60.6421 53.4056 61.1274 53.3076 61.6834 53.3076C62.2622 53.3076 62.768 53.4261 63.201 53.6631C63.6339 53.8955 63.9734 54.2145 64.2195 54.6201C64.4702 55.0212 64.6069 55.4769 64.6297 55.9873H63.4266C63.4038 55.682 63.3172 55.4062 63.1668 55.1602C63.021 54.9141 62.8205 54.7181 62.5652 54.5723C62.3146 54.4219 62.0207 54.3467 61.6834 54.3467C61.296 54.3467 60.9702 54.4242 60.7059 54.5791C60.4461 54.7295 60.2387 54.9346 60.0838 55.1943C59.9334 55.4495 59.824 55.7344 59.7557 56.0488C59.6919 56.3587 59.66 56.6755 59.66 56.999V57.2861C59.66 57.6097 59.6919 57.9287 59.7557 58.2432C59.8195 58.5576 59.9266 58.8424 60.077 59.0977C60.2319 59.3529 60.4393 59.5579 60.699 59.7129C60.9634 59.8633 61.2915 59.9385 61.6834 59.9385ZM65.7166 57.2246V57.0674C65.7166 56.5342 65.7941 56.0397 65.949 55.584C66.104 55.1237 66.3273 54.7249 66.619 54.3877C66.9106 54.0459 67.2638 53.7816 67.6785 53.5947C68.0932 53.4033 68.5581 53.3076 69.0731 53.3076C69.5926 53.3076 70.0597 53.4033 70.4744 53.5947C70.8937 53.7816 71.2492 54.0459 71.5408 54.3877C71.8371 54.7249 72.0626 55.1237 72.2176 55.584C72.3725 56.0397 72.45 56.5342 72.45 57.0674V57.2246C72.45 57.7578 72.3725 58.2523 72.2176 58.708C72.0626 59.1637 71.8371 59.5625 71.5408 59.9043C71.2492 60.2415 70.896 60.5059 70.4813 60.6973C70.0711 60.8841 69.6063 60.9775 69.0867 60.9775C68.5672 60.9775 68.1001 60.8841 67.6854 60.6973C67.2707 60.5059 66.9152 60.2415 66.619 59.9043C66.3273 59.5625 66.104 59.1637 65.949 58.708C65.7941 58.2523 65.7166 57.7578 65.7166 57.2246ZM66.9813 57.0674V57.2246C66.9813 57.5938 67.0246 57.9424 67.1111 58.2705C67.1977 58.5941 67.3276 58.8812 67.5008 59.1318C67.6785 59.3825 67.8996 59.5807 68.1639 59.7266C68.4282 59.8678 68.7358 59.9385 69.0867 59.9385C69.4331 59.9385 69.7361 59.8678 69.9959 59.7266C70.2602 59.5807 70.479 59.3825 70.6522 59.1318C70.8253 58.8812 70.9552 58.5941 71.0418 58.2705C71.133 57.9424 71.1785 57.5938 71.1785 57.2246V57.0674C71.1785 56.7028 71.133 56.3587 71.0418 56.0352C70.9552 55.707 70.8231 55.4176 70.6453 55.167C70.4721 54.9118 70.2534 54.7113 69.9891 54.5654C69.7293 54.4196 69.424 54.3467 69.0731 54.3467C68.7267 54.3467 68.4214 54.4196 68.157 54.5654C67.8973 54.7113 67.6785 54.9118 67.5008 55.167C67.3276 55.4176 67.1977 55.707 67.1111 56.0352C67.0246 56.3587 66.9813 56.7028 66.9813 57.0674ZM75.3006 55.0234V60.8408H74.0359V53.4443H75.2322L75.3006 55.0234ZM74.9998 56.8623L74.4734 56.8418C74.478 56.3359 74.5532 55.8688 74.699 55.4404C74.8449 55.0075 75.0499 54.6315 75.3143 54.3125C75.5786 53.9935 75.893 53.7474 76.2576 53.5742C76.6268 53.3965 77.0346 53.3076 77.4813 53.3076C77.8458 53.3076 78.174 53.3577 78.4656 53.458C78.7573 53.5537 79.0057 53.7087 79.2108 53.9229C79.4204 54.137 79.5799 54.415 79.6893 54.7568C79.7986 55.0941 79.8533 55.5065 79.8533 55.9941V60.8408H78.5818V55.9805C78.5818 55.5931 78.5249 55.2832 78.4109 55.0508C78.297 54.8138 78.1307 54.6429 77.9119 54.5381C77.6932 54.4287 77.4243 54.374 77.1053 54.374C76.7908 54.374 76.5037 54.4401 76.244 54.5723C75.9887 54.7044 75.7677 54.8867 75.5809 55.1191C75.3986 55.3516 75.255 55.6182 75.1502 55.9189C75.0499 56.2152 74.9998 56.5296 74.9998 56.8623ZM86.4363 59.4053V50.3408H87.7078V60.8408H86.5457L86.4363 59.4053ZM81.4598 57.2246V57.0811C81.4598 56.516 81.5281 56.0033 81.6649 55.543C81.8061 55.0781 82.0044 54.6794 82.2596 54.3467C82.5193 54.014 82.827 53.7588 83.1824 53.5811C83.5425 53.3988 83.9435 53.3076 84.3856 53.3076C84.8504 53.3076 85.256 53.3896 85.6024 53.5537C85.9533 53.7132 86.2495 53.9479 86.491 54.2578C86.7371 54.5632 86.9308 54.9323 87.0721 55.3652C87.2134 55.7982 87.3113 56.2881 87.366 56.835V57.4639C87.3159 58.0062 87.2179 58.4938 87.0721 58.9268C86.9308 59.3597 86.7371 59.7288 86.491 60.0342C86.2495 60.3395 85.9533 60.5742 85.6024 60.7383C85.2514 60.8978 84.8413 60.9775 84.3719 60.9775C83.9389 60.9775 83.5425 60.8841 83.1824 60.6973C82.827 60.5104 82.5193 60.2484 82.2596 59.9111C82.0044 59.5739 81.8061 59.1774 81.6649 58.7217C81.5281 58.2614 81.4598 57.7624 81.4598 57.2246ZM82.7313 57.0811V57.2246C82.7313 57.5938 82.7677 57.9401 82.8406 58.2637C82.9181 58.5872 83.0366 58.8721 83.1961 59.1182C83.3556 59.3643 83.5584 59.5579 83.8045 59.6992C84.0506 59.8359 84.3445 59.9043 84.6863 59.9043C85.1056 59.9043 85.4497 59.8154 85.7186 59.6377C85.992 59.46 86.2108 59.2253 86.3748 58.9336C86.5389 58.6419 86.6665 58.3252 86.7576 57.9834V56.3359C86.7029 56.0853 86.6232 55.8438 86.5184 55.6113C86.4181 55.3743 86.2859 55.1647 86.1219 54.9824C85.9624 54.7956 85.7641 54.6475 85.5272 54.5381C85.2947 54.4287 85.019 54.374 84.7 54.374C84.3537 54.374 84.0552 54.4469 83.8045 54.5928C83.5584 54.734 83.3556 54.93 83.1961 55.1807C83.0366 55.4268 82.9181 55.7139 82.8406 56.042C82.7677 56.3656 82.7313 56.7119 82.7313 57.0811ZM94.0379 59.5762V55.7686C94.0379 55.4769 93.9787 55.224 93.8602 55.0098C93.7462 54.791 93.5731 54.6224 93.3406 54.5039C93.1082 54.3854 92.8211 54.3262 92.4793 54.3262C92.1603 54.3262 91.88 54.3809 91.6385 54.4902C91.4015 54.5996 91.2147 54.7432 91.0779 54.9209C90.9458 55.0986 90.8797 55.29 90.8797 55.4951H89.6151C89.6151 55.2308 89.6834 54.9688 89.8201 54.709C89.9568 54.4492 90.1528 54.2145 90.408 54.0049C90.6678 53.7907 90.9777 53.6221 91.3377 53.499C91.7023 53.3714 92.1079 53.3076 92.5545 53.3076C93.0923 53.3076 93.5662 53.3988 93.9764 53.5811C94.3911 53.7633 94.7147 54.0391 94.9471 54.4082C95.1841 54.7728 95.3026 55.2308 95.3026 55.7822V59.2275C95.3026 59.4736 95.3231 59.7357 95.3641 60.0137C95.4096 60.2917 95.4757 60.5309 95.5623 60.7314V60.8408H94.243C94.1792 60.695 94.129 60.5013 94.0926 60.2598C94.0561 60.0137 94.0379 59.7858 94.0379 59.5762ZM94.2567 56.3564L94.2703 57.2451H92.992C92.632 57.2451 92.3107 57.2747 92.0281 57.334C91.7456 57.3887 91.5086 57.473 91.3172 57.5869C91.1258 57.7008 90.98 57.8444 90.8797 58.0176C90.7794 58.1862 90.7293 58.3844 90.7293 58.6123C90.7293 58.8447 90.7817 59.0566 90.8865 59.248C90.9914 59.4395 91.1486 59.5921 91.3582 59.7061C91.5724 59.8154 91.8345 59.8701 92.1443 59.8701C92.5317 59.8701 92.8735 59.7881 93.1697 59.624C93.466 59.46 93.7007 59.2594 93.8738 59.0225C94.0516 58.7855 94.1473 58.5553 94.1609 58.332L94.701 58.9404C94.6691 59.1318 94.5825 59.3438 94.4412 59.5762C94.2999 59.8086 94.1108 60.0319 93.8738 60.2461C93.6414 60.4557 93.3634 60.6312 93.0399 60.7725C92.7208 60.9092 92.3608 60.9775 91.9598 60.9775C91.4585 60.9775 91.0187 60.8796 90.6404 60.6836C90.2667 60.4876 89.9751 60.2256 89.7654 59.8975C89.5604 59.5648 89.4578 59.1934 89.4578 58.7832C89.4578 58.3867 89.5353 58.0381 89.6902 57.7373C89.8452 57.432 90.0685 57.179 90.3602 56.9785C90.6518 56.7734 91.0027 56.6185 91.4129 56.5137C91.8231 56.4089 92.2811 56.3564 92.7869 56.3564H94.2567ZM98.5565 54.6064V60.8408H97.2918V53.4443H98.5223L98.5565 54.6064ZM100.867 53.4033L100.86 54.5791C100.755 54.5563 100.655 54.5426 100.559 54.5381C100.468 54.529 100.363 54.5244 100.245 54.5244C99.9533 54.5244 99.6958 54.57 99.4725 54.6611C99.2492 54.7523 99.06 54.8799 98.9051 55.0439C98.7501 55.208 98.6271 55.404 98.5359 55.6318C98.4494 55.8551 98.3924 56.1012 98.3651 56.3701L98.0096 56.5752C98.0096 56.1286 98.0529 55.7093 98.1395 55.3174C98.2306 54.9255 98.3696 54.5791 98.5565 54.2783C98.7433 53.973 98.9803 53.736 99.2674 53.5674C99.5591 53.3942 99.9054 53.3076 100.306 53.3076C100.398 53.3076 100.502 53.319 100.621 53.3418C100.739 53.36 100.821 53.3805 100.867 53.4033ZM104.237 60.0752L106.295 53.4443H107.648L104.681 61.9824C104.613 62.1647 104.522 62.3607 104.408 62.5703C104.299 62.7845 104.157 62.9873 103.984 63.1787C103.811 63.3701 103.601 63.5251 103.355 63.6436C103.114 63.7666 102.824 63.8281 102.487 63.8281C102.387 63.8281 102.259 63.8145 102.104 63.7871C101.949 63.7598 101.84 63.737 101.776 63.7188L101.769 62.6934C101.806 62.6979 101.863 62.7025 101.94 62.707C102.022 62.7161 102.079 62.7207 102.111 62.7207C102.398 62.7207 102.642 62.682 102.843 62.6045C103.043 62.5316 103.212 62.4062 103.348 62.2285C103.49 62.0553 103.61 61.8161 103.711 61.5107L104.237 60.0752ZM102.726 53.4443L104.647 59.1865L104.975 60.5195L104.066 60.9844L101.346 53.4443H102.726ZM115.359 53.4443V54.415H111.36V53.4443H115.359ZM112.714 51.6465H113.978V59.0088C113.978 59.2594 114.017 59.4486 114.095 59.5762C114.172 59.7038 114.272 59.7881 114.395 59.8291C114.518 59.8701 114.651 59.8906 114.792 59.8906C114.897 59.8906 115.006 59.8815 115.12 59.8633C115.238 59.8405 115.327 59.8223 115.387 59.8086L115.393 60.8408C115.293 60.8727 115.161 60.9023 114.997 60.9297C114.837 60.9616 114.644 60.9775 114.416 60.9775C114.106 60.9775 113.821 60.916 113.561 60.793C113.302 60.6699 113.094 60.4648 112.939 60.1777C112.789 59.8861 112.714 59.4941 112.714 59.002V51.6465ZM119.912 60.9775C119.397 60.9775 118.93 60.891 118.511 60.7178C118.096 60.54 117.738 60.2917 117.437 59.9727C117.141 59.6536 116.913 59.2754 116.754 58.8379C116.594 58.4004 116.514 57.9219 116.514 57.4023V57.1152C116.514 56.5137 116.603 55.9782 116.781 55.5088C116.959 55.0348 117.2 54.6338 117.506 54.3057C117.811 53.9775 118.157 53.7292 118.545 53.5605C118.932 53.3919 119.333 53.3076 119.748 53.3076C120.277 53.3076 120.732 53.3988 121.115 53.5811C121.502 53.7633 121.819 54.0186 122.065 54.3467C122.311 54.6702 122.494 55.0531 122.612 55.4951C122.731 55.9326 122.79 56.4111 122.79 56.9307V57.498H117.266V56.4658H121.525V56.3701C121.507 56.042 121.439 55.723 121.32 55.4131C121.206 55.1032 121.024 54.848 120.773 54.6475C120.523 54.4469 120.181 54.3467 119.748 54.3467C119.461 54.3467 119.196 54.4082 118.955 54.5312C118.713 54.6497 118.506 54.8275 118.333 55.0645C118.16 55.3014 118.025 55.5908 117.93 55.9326C117.834 56.2744 117.786 56.6686 117.786 57.1152V57.4023C117.786 57.7533 117.834 58.0837 117.93 58.3936C118.03 58.6989 118.173 58.9678 118.36 59.2002C118.552 59.4326 118.782 59.6149 119.051 59.7471C119.324 59.8792 119.634 59.9453 119.98 59.9453C120.427 59.9453 120.805 59.8542 121.115 59.6719C121.425 59.4896 121.696 59.2458 121.929 58.9404L122.694 59.5488C122.535 59.7904 122.332 60.0205 122.086 60.2393C121.84 60.458 121.537 60.6357 121.177 60.7725C120.821 60.9092 120.4 60.9775 119.912 60.9775ZM125.121 53.4443L126.741 56.1377L128.382 53.4443H129.865L127.445 57.0947L129.94 60.8408H128.477L126.768 58.0654L125.059 60.8408H123.59L126.078 57.0947L123.665 53.4443H125.121ZM134.308 53.4443V54.415H130.309V53.4443H134.308ZM131.663 51.6465H132.928V59.0088C132.928 59.2594 132.966 59.4486 133.044 59.5762C133.121 59.7038 133.221 59.7881 133.345 59.8291C133.468 59.8701 133.6 59.8906 133.741 59.8906C133.846 59.8906 133.955 59.8815 134.069 59.8633C134.188 59.8405 134.277 59.8223 134.336 59.8086L134.343 60.8408C134.242 60.8727 134.11 60.9023 133.946 60.9297C133.787 60.9616 133.593 60.9775 133.365 60.9775C133.055 60.9775 132.77 60.916 132.511 60.793C132.251 60.6699 132.043 60.4648 131.888 60.1777C131.738 59.8861 131.663 59.4941 131.663 59.002V51.6465Z" fill="#4F4F4F"/>
<ellipse cx="281.13" cy="36.4577" rx="8.53954" ry="8.53731" fill="#BDBDBD"/>
<rect x="279.707" y="34.5605" width="2.84653" height="7.58871" rx="1.42326" fill="white"/>
<rect x="279.707" y="30.7662" width="2.84653" height="2.84577" rx="1.42288" fill="white"/>
<rect x="61.7372" y="99.5647" width="227.433" height="117.811" stroke="#ECECEC"/>
<path d="M61.2372 138.194H289.67" stroke="#ECECEC"/>
<path d="M61.2372 118.985H289.67" stroke="#ECECEC"/>
<path d="M61.2372 157.403H289.67" stroke="#ECECEC"/>
<path d="M61.2372 176.612H289.67" stroke="#ECECEC"/>
<path d="M61.2372 195.821H289.67" stroke="#ECECEC"/>
<path d="M99.6651 99.0647L99.6651 217.876" stroke="#ECECEC"/>
<path d="M137.381 99.0647L137.381 217.876" stroke="#ECECEC"/>
<path d="M175.098 99.0647L175.098 217.876" stroke="#ECECEC"/>
<path d="M212.814 99.0647L212.814 217.876" stroke="#ECECEC"/>
<path d="M250.53 99.0647L250.53 217.876" stroke="#ECECEC"/>
<path d="M42.2254 194.451V195.389H38.4072V194.451H42.2254ZM46.8756 199.403C46.5177 199.397 46.1597 199.329 45.8018 199.198C45.4438 199.068 45.1171 198.847 44.8217 198.538C44.5262 198.225 44.289 197.803 44.11 197.272C43.931 196.738 43.8416 196.068 43.8416 195.261C43.8416 194.488 43.914 193.803 44.0589 193.207C44.2038 192.607 44.414 192.103 44.6896 191.694C44.9651 191.282 45.2975 190.97 45.6867 190.757C46.0788 190.544 46.5205 190.437 47.012 190.437C47.5006 190.437 47.9353 190.535 48.316 190.731C48.6995 190.924 49.012 191.194 49.2535 191.541C49.495 191.887 49.6512 192.286 49.7222 192.738H48.6825C48.5859 192.346 48.3984 192.021 48.12 191.762C47.8416 191.504 47.4722 191.374 47.012 191.374C46.3359 191.374 45.8032 191.669 45.414 192.257C45.0276 192.845 44.833 193.67 44.8302 194.732H44.8984C45.0575 194.491 45.2464 194.285 45.4651 194.115C45.6867 193.941 45.931 193.808 46.1981 193.714C46.4651 193.62 46.7478 193.573 47.0461 193.573C47.5461 193.573 48.0035 193.698 48.4183 193.948C48.833 194.196 49.1654 194.538 49.4154 194.975C49.6654 195.41 49.7904 195.909 49.7904 196.471C49.7904 197.011 49.6697 197.505 49.4282 197.954C49.1867 198.4 48.8472 198.755 48.4097 199.019C47.9751 199.281 47.4637 199.409 46.8756 199.403ZM46.8756 198.465C47.2336 198.465 47.5546 198.376 47.8387 198.197C48.1256 198.018 48.3515 197.778 48.5163 197.477C48.6839 197.176 48.7677 196.84 48.7677 196.471C48.7677 196.11 48.6867 195.782 48.5248 195.487C48.3657 195.188 48.1455 194.951 47.8643 194.775C47.5859 194.599 47.2677 194.511 46.9097 194.511C46.6398 194.511 46.3884 194.565 46.1555 194.673C45.9225 194.778 45.718 194.923 45.5418 195.107C45.3685 195.292 45.2322 195.504 45.1327 195.742C45.0333 195.978 44.9836 196.227 44.9836 196.488C44.9836 196.835 45.0646 197.159 45.2265 197.46C45.3913 197.761 45.6157 198.004 45.8998 198.188C46.1867 198.373 46.512 198.465 46.8756 198.465ZM46.8128 214.403C46.1707 214.403 45.6239 214.228 45.1722 213.879C44.7205 213.526 44.3753 213.017 44.1367 212.349C43.898 211.678 43.7787 210.869 43.7787 209.92C43.7787 208.977 43.898 208.171 44.1367 207.504C44.3781 206.833 44.7247 206.322 45.1764 205.97C45.631 205.615 46.1764 205.437 46.8128 205.437C47.4492 205.437 47.9932 205.615 48.4449 205.97C48.8994 206.322 49.246 206.833 49.4847 207.504C49.7261 208.171 49.8469 208.977 49.8469 209.92C49.8469 210.869 49.7276 211.678 49.4889 212.349C49.2503 213.017 48.9051 213.526 48.4534 213.879C48.0017 214.228 47.4548 214.403 46.8128 214.403ZM46.8128 213.465C47.4492 213.465 47.9435 213.159 48.2957 212.545C48.648 211.931 48.8242 211.056 48.8242 209.92C48.8242 209.164 48.7432 208.521 48.5813 207.99C48.4222 207.458 48.192 207.053 47.8909 206.775C47.5926 206.497 47.2332 206.357 46.8128 206.357C46.1821 206.357 45.6892 206.669 45.3341 207.291C44.979 207.91 44.8014 208.786 44.8014 209.92C44.8014 210.676 44.881 211.318 45.0401 211.846C45.1992 212.374 45.4278 212.776 45.7261 213.052C46.0273 213.328 46.3895 213.465 46.8128 213.465Z" fill="#4F4F4F"/>
<path d="M35.3582 175.242V176.18H31.5401V175.242H35.3582ZM36.7006 180.075V179.308L39.5813 176.154C39.9193 175.785 40.1977 175.464 40.4165 175.191C40.6352 174.915 40.7972 174.657 40.9023 174.415C41.0102 174.171 41.0642 173.915 41.0642 173.648C41.0642 173.342 40.9903 173.076 40.8426 172.852C40.6977 172.627 40.4989 172.454 40.246 172.332C39.9932 172.21 39.7091 172.148 39.3938 172.148C39.0585 172.148 38.7659 172.218 38.5159 172.357C38.2688 172.494 38.077 172.685 37.9406 172.933C37.8071 173.18 37.7403 173.469 37.7403 173.802H36.7347C36.7347 173.29 36.8526 172.842 37.0884 172.455C37.3242 172.069 37.6452 171.768 38.0514 171.552C38.4605 171.336 38.9193 171.228 39.4278 171.228C39.9392 171.228 40.3923 171.336 40.7872 171.552C41.1821 171.768 41.4918 172.059 41.7162 172.425C41.9406 172.792 42.0528 173.2 42.0528 173.648C42.0528 173.969 41.9946 174.283 41.8781 174.59C41.7645 174.894 41.5656 175.234 41.2815 175.609C41.0003 175.981 40.6097 176.435 40.1097 176.972L38.1494 179.069V179.137H42.2063V180.075H36.7006ZM46.8128 180.194C46.1707 180.194 45.6239 180.019 45.1722 179.67C44.7205 179.317 44.3753 178.808 44.1367 178.14C43.898 177.469 43.7787 176.66 43.7787 175.711C43.7787 174.768 43.898 173.962 44.1367 173.295C44.3781 172.624 44.7247 172.113 45.1764 171.761C45.631 171.406 46.1764 171.228 46.8128 171.228C47.4492 171.228 47.9932 171.406 48.4449 171.761C48.8994 172.113 49.246 172.624 49.4847 173.295C49.7261 173.962 49.8469 174.768 49.8469 175.711C49.8469 176.66 49.7276 177.469 49.4889 178.14C49.2503 178.808 48.9051 179.317 48.4534 179.67C48.0017 180.019 47.4548 180.194 46.8128 180.194ZM46.8128 179.256C47.4492 179.256 47.9435 178.95 48.2957 178.336C48.648 177.722 48.8242 176.847 48.8242 175.711C48.8242 174.955 48.7432 174.312 48.5813 173.781C48.4222 173.249 48.192 172.844 47.8909 172.566C47.5926 172.288 47.2332 172.148 46.8128 172.148C46.1821 172.148 45.6892 172.46 45.3341 173.082C44.979 173.701 44.8014 174.577 44.8014 175.711C44.8014 176.467 44.881 177.109 45.0401 177.637C45.1992 178.165 45.4278 178.567 45.7261 178.843C46.0273 179.119 46.3895 179.256 46.8128 179.256Z" fill="#4F4F4F"/>
<path d="M46.8128 161.696C46.1707 161.696 45.6239 161.522 45.1722 161.172C44.7205 160.82 44.3753 160.31 44.1367 159.642C43.898 158.972 43.7787 158.162 43.7787 157.214C43.7787 156.27 43.898 155.465 44.1367 154.797C44.3781 154.127 44.7247 153.616 45.1764 153.263C45.631 152.908 46.1764 152.731 46.8128 152.731C47.4492 152.731 47.9932 152.908 48.4449 153.263C48.8994 153.616 49.246 154.127 49.4847 154.797C49.7261 155.465 49.8469 156.27 49.8469 157.214C49.8469 158.162 49.7276 158.972 49.4889 159.642C49.2503 160.31 48.9051 160.82 48.4534 161.172C48.0017 161.522 47.4548 161.696 46.8128 161.696ZM46.8128 160.759C47.4492 160.759 47.9435 160.452 48.2957 159.839C48.648 159.225 48.8242 158.35 48.8242 157.214C48.8242 156.458 48.7432 155.814 48.5813 155.283C48.4222 154.752 48.192 154.347 47.8909 154.069C47.5926 153.79 47.2332 153.651 46.8128 153.651C46.1821 153.651 45.6892 153.962 45.3341 154.584C44.979 155.204 44.8014 156.08 44.8014 157.214C44.8014 157.969 44.881 158.611 45.0401 159.14C45.1992 159.668 45.4278 160.07 45.7261 160.346C46.0273 160.621 46.3895 160.759 46.8128 160.759Z" fill="#4F4F4F"/>
<path d="M36.7006 141.657V140.89L39.5813 137.736C39.9193 137.367 40.1977 137.046 40.4165 136.773C40.6352 136.498 40.7972 136.239 40.9023 135.998C41.0102 135.753 41.0642 135.498 41.0642 135.231C41.0642 134.924 40.9903 134.658 40.8426 134.434C40.6977 134.209 40.4989 134.036 40.246 133.914C39.9932 133.792 39.7091 133.731 39.3938 133.731C39.0585 133.731 38.7659 133.8 38.5159 133.939C38.2688 134.076 38.077 134.268 37.9406 134.515C37.8071 134.762 37.7403 135.052 37.7403 135.384H36.7347C36.7347 134.873 36.8526 134.424 37.0884 134.037C37.3242 133.651 37.6452 133.35 38.0514 133.134C38.4605 132.918 38.9193 132.81 39.4278 132.81C39.9392 132.81 40.3923 132.918 40.7872 133.134C41.1821 133.35 41.4918 133.641 41.7162 134.008C41.9406 134.374 42.0528 134.782 42.0528 135.231C42.0528 135.552 41.9946 135.866 41.8781 136.172C41.7645 136.476 41.5656 136.816 41.2815 137.191C41.0003 137.563 40.6097 138.018 40.1097 138.554L38.1494 140.651V140.719H42.2063V141.657H36.7006ZM46.8128 141.776C46.1707 141.776 45.6239 141.601 45.1722 141.252C44.7205 140.9 44.3753 140.39 44.1367 139.722C43.898 139.052 43.7787 138.242 43.7787 137.293C43.7787 136.35 43.898 135.545 44.1367 134.877C44.3781 134.206 44.7247 133.695 45.1764 133.343C45.631 132.988 46.1764 132.81 46.8128 132.81C47.4492 132.81 47.9932 132.988 48.4449 133.343C48.8994 133.695 49.246 134.206 49.4847 134.877C49.7261 135.545 49.8469 136.35 49.8469 137.293C49.8469 138.242 49.7276 139.052 49.4889 139.722C49.2503 140.39 48.9051 140.9 48.4534 141.252C48.0017 141.601 47.4548 141.776 46.8128 141.776ZM46.8128 140.839C47.4492 140.839 47.9435 140.532 48.2957 139.918C48.648 139.304 48.8242 138.429 48.8242 137.293C48.8242 136.537 48.7432 135.894 48.5813 135.363C48.4222 134.831 48.192 134.427 47.8909 134.148C47.5926 133.87 47.2332 133.731 46.8128 133.731C46.1821 133.731 45.6892 134.042 45.3341 134.664C44.979 135.283 44.8014 136.16 44.8014 137.293C44.8014 138.049 44.881 138.691 45.0401 139.219C45.1992 139.748 45.4278 140.15 45.7261 140.425C46.0273 140.701 46.3895 140.839 46.8128 140.839Z" fill="#4F4F4F"/>
<path d="M41.4563 94.5116V103.239H40.3994V95.6195H40.3483L38.2176 97.0343V95.9604L40.3994 94.5116H41.4563ZM46.8128 103.358C46.1707 103.358 45.6239 103.183 45.1722 102.834C44.7205 102.482 44.3753 101.972 44.1367 101.304C43.898 100.634 43.7787 99.8241 43.7787 98.8752C43.7787 97.932 43.898 97.1266 44.1367 96.459C44.3781 95.7885 44.7247 95.2772 45.1764 94.9249C45.631 94.5698 46.1764 94.3922 46.8128 94.3922C47.4492 94.3922 47.9932 94.5698 48.4449 94.9249C48.8994 95.2772 49.246 95.7885 49.4847 96.459C49.7261 97.1266 49.8469 97.932 49.8469 98.8752C49.8469 99.8241 49.7276 100.634 49.4889 101.304C49.2503 101.972 48.9051 102.482 48.4534 102.834C48.0017 103.183 47.4548 103.358 46.8128 103.358ZM46.8128 102.421C47.4492 102.421 47.9435 102.114 48.2957 101.5C48.648 100.887 48.8242 100.012 48.8242 98.8752C48.8242 98.1195 48.7432 97.476 48.5813 96.9448C48.4222 96.4135 48.192 96.0087 47.8909 95.7303C47.5926 95.4519 47.2332 95.3127 46.8128 95.3127C46.1821 95.3127 45.6892 95.6238 45.3341 96.2459C44.979 96.8653 44.8014 97.7417 44.8014 98.8752C44.8014 99.6309 44.881 100.273 45.0401 100.801C45.1992 101.33 45.4278 101.732 45.7261 102.007C46.0273 102.283 46.3895 102.421 46.8128 102.421ZM46.8128 118.358C46.1707 118.358 45.6239 118.183 45.1722 117.834C44.7205 117.482 44.3753 116.972 44.1367 116.304C43.898 115.634 43.7787 114.824 43.7787 113.875C43.7787 112.932 43.898 112.127 44.1367 111.459C44.3781 110.789 44.7247 110.277 45.1764 109.925C45.631 109.57 46.1764 109.392 46.8128 109.392C47.4492 109.392 47.9932 109.57 48.4449 109.925C48.8994 110.277 49.246 110.789 49.4847 111.459C49.7261 112.127 49.8469 112.932 49.8469 113.875C49.8469 114.824 49.7276 115.634 49.4889 116.304C49.2503 116.972 48.9051 117.482 48.4534 117.834C48.0017 118.183 47.4548 118.358 46.8128 118.358ZM46.8128 117.421C47.4492 117.421 47.9435 117.114 48.2957 116.5C48.648 115.887 48.8242 115.012 48.8242 113.875C48.8242 113.12 48.7432 112.476 48.5813 111.945C48.4222 111.414 48.192 111.009 47.8909 110.73C47.5926 110.452 47.2332 110.313 46.8128 110.313C46.1821 110.313 45.6892 110.624 45.3341 111.246C44.979 111.865 44.8014 112.742 44.8014 113.875C44.8014 114.631 44.881 115.273 45.0401 115.801C45.1992 116.33 45.4278 116.732 45.7261 117.007C46.0273 117.283 46.3895 117.421 46.8128 117.421Z" fill="#4F4F4F"/>
<path d="M10 78.4329H316" stroke="#ECECEC" stroke-width="2"/>
<path d="M83.4667 269.851V262.578H85.9241C86.4947 262.578 86.961 262.681 87.3233 262.887C87.6878 263.091 87.9577 263.366 88.1329 263.714C88.3081 264.062 88.3957 264.451 88.3957 264.879C88.3957 265.308 88.3081 265.697 88.1329 266.047C87.9601 266.398 87.6926 266.677 87.3304 266.886C86.9681 267.091 86.5041 267.194 85.9383 267.194H84.177V266.413H85.9099C86.3005 266.413 86.6142 266.346 86.851 266.211C87.0877 266.076 87.2593 265.894 87.3659 265.664C87.4748 265.432 87.5292 265.17 87.5292 264.879C87.5292 264.588 87.4748 264.328 87.3659 264.098C87.2593 263.868 87.0865 263.688 86.8474 263.558C86.6083 263.426 86.2911 263.359 85.8957 263.359H84.3474V269.851H83.4667ZM89.7007 269.851V264.396H90.5104V265.22H90.5672C90.6667 264.95 90.8466 264.731 91.107 264.563C91.3674 264.395 91.661 264.311 91.9877 264.311C92.0492 264.311 92.1262 264.312 92.2185 264.314C92.3108 264.317 92.3807 264.32 92.428 264.325V265.177C92.3996 265.17 92.3345 265.16 92.2327 265.145C92.1333 265.129 92.0279 265.121 91.9167 265.121C91.6515 265.121 91.4148 265.176 91.2064 265.287C91.0005 265.396 90.8371 265.548 90.7164 265.742C90.598 265.934 90.5388 266.153 90.5388 266.399V269.851H89.7007ZM95.4713 269.964C94.9789 269.964 94.5469 269.847 94.1752 269.613C93.8059 269.378 93.517 269.051 93.3087 268.629C93.1027 268.208 92.9998 267.715 92.9998 267.152C92.9998 266.584 93.1027 266.088 93.3087 265.664C93.517 265.24 93.8059 264.911 94.1752 264.677C94.5469 264.442 94.9789 264.325 95.4713 264.325C95.9638 264.325 96.3946 264.442 96.764 264.677C97.1356 264.911 97.4245 265.24 97.6304 265.664C97.8388 266.088 97.9429 266.584 97.9429 267.152C97.9429 267.715 97.8388 268.208 97.6304 268.629C97.4245 269.051 97.1356 269.378 96.764 269.613C96.3946 269.847 95.9638 269.964 95.4713 269.964ZM95.4713 269.212C95.8454 269.212 96.1532 269.116 96.3946 268.924C96.6361 268.732 96.8149 268.48 96.9309 268.167C97.0469 267.855 97.1049 267.516 97.1049 267.152C97.1049 266.787 97.0469 266.448 96.9309 266.133C96.8149 265.818 96.6361 265.563 96.3946 265.369C96.1532 265.175 95.8454 265.078 95.4713 265.078C95.0973 265.078 94.7895 265.175 94.548 265.369C94.3066 265.563 94.1278 265.818 94.0118 266.133C93.8958 266.448 93.8378 266.787 93.8378 267.152C93.8378 267.516 93.8958 267.855 94.0118 268.167C94.1278 268.48 94.3066 268.732 94.548 268.924C94.7895 269.116 95.0973 269.212 95.4713 269.212ZM101.282 269.964C100.827 269.964 100.426 269.85 100.078 269.62C99.73 269.388 99.4578 269.061 99.2613 268.64C99.0648 268.216 98.9665 267.715 98.9665 267.138C98.9665 266.565 99.0648 266.068 99.2613 265.646C99.4578 265.225 99.7312 264.899 100.082 264.67C100.432 264.44 100.837 264.325 101.296 264.325C101.651 264.325 101.932 264.384 102.138 264.503C102.346 264.619 102.505 264.751 102.614 264.9C102.725 265.047 102.811 265.168 102.873 265.263H102.944V262.578H103.782V269.851H102.972V269.013H102.873C102.811 269.112 102.724 269.238 102.61 269.389C102.496 269.538 102.334 269.672 102.124 269.79C101.913 269.906 101.632 269.964 101.282 269.964ZM101.396 269.212C101.732 269.212 102.016 269.124 102.248 268.949C102.48 268.771 102.656 268.526 102.777 268.214C102.898 267.899 102.958 267.535 102.958 267.123C102.958 266.716 102.899 266.36 102.78 266.055C102.662 265.747 102.487 265.508 102.255 265.337C102.023 265.164 101.736 265.078 101.396 265.078C101.04 265.078 100.744 265.169 100.508 265.351C100.273 265.531 100.097 265.776 99.9786 266.087C99.8626 266.394 99.8046 266.74 99.8046 267.123C99.8046 267.512 99.8638 267.864 99.9822 268.182C100.103 268.497 100.28 268.747 100.515 268.935C100.752 269.119 101.045 269.212 101.396 269.212ZM108.871 267.621V264.396H109.709V269.851H108.871V268.927H108.814C108.686 269.204 108.487 269.44 108.217 269.634C107.947 269.826 107.606 269.922 107.195 269.922C106.854 269.922 106.551 269.847 106.285 269.698C106.02 269.546 105.812 269.319 105.66 269.016C105.509 268.711 105.433 268.326 105.433 267.862V264.396H106.271V267.805C106.271 268.203 106.383 268.52 106.605 268.757C106.83 268.994 107.116 269.112 107.464 269.112C107.673 269.112 107.885 269.059 108.1 268.952C108.318 268.846 108.5 268.682 108.647 268.462C108.796 268.242 108.871 267.962 108.871 267.621ZM113.46 269.964C112.948 269.964 112.508 269.844 112.139 269.602C111.769 269.361 111.485 269.028 111.286 268.604C111.087 268.18 110.988 267.696 110.988 267.152C110.988 266.598 111.09 266.109 111.293 265.685C111.499 265.259 111.786 264.926 112.153 264.687C112.522 264.446 112.953 264.325 113.445 264.325C113.829 264.325 114.175 264.396 114.482 264.538C114.79 264.68 115.042 264.879 115.239 265.135C115.435 265.39 115.557 265.689 115.605 266.03H114.766C114.703 265.781 114.56 265.561 114.34 265.369C114.123 265.175 113.829 265.078 113.46 265.078C113.133 265.078 112.846 265.163 112.6 265.334C112.356 265.502 112.166 265.74 112.029 266.047C111.894 266.353 111.826 266.712 111.826 267.123C111.826 267.545 111.892 267.912 112.025 268.224C112.16 268.537 112.349 268.779 112.593 268.952C112.839 269.125 113.128 269.212 113.46 269.212C113.677 269.212 113.875 269.174 114.053 269.098C114.23 269.022 114.381 268.913 114.504 268.771C114.627 268.629 114.714 268.459 114.766 268.26H115.605C115.557 268.582 115.44 268.872 115.253 269.13C115.068 269.386 114.823 269.589 114.518 269.741C114.215 269.89 113.862 269.964 113.46 269.964ZM119.202 264.396V265.106H116.375V264.396H119.202ZM117.199 263.089H118.037V268.288C118.037 268.525 118.071 268.703 118.14 268.821C118.211 268.937 118.301 269.015 118.41 269.055C118.521 269.093 118.638 269.112 118.761 269.112C118.854 269.112 118.93 269.107 118.989 269.098C119.048 269.086 119.095 269.077 119.131 269.069L119.301 269.822C119.244 269.844 119.165 269.865 119.063 269.886C118.962 269.91 118.832 269.922 118.676 269.922C118.44 269.922 118.207 269.871 117.98 269.769C117.755 269.667 117.568 269.512 117.419 269.304C117.272 269.095 117.199 268.833 117.199 268.515V263.089ZM123.005 262.578V269.851H122.124V263.501H122.082L120.306 264.68V263.785L122.124 262.578H123.005Z" fill="#4F4F4F"/>
<rect x="61.2372" y="262.697" width="14.9442" height="5.69154" fill="#165BAA"/>
<path d="M71.3891 223.449H72.2698V228.648C72.2698 229.112 72.1846 229.506 72.0141 229.83C71.8437 230.154 71.6034 230.401 71.2932 230.569C70.9831 230.737 70.6174 230.821 70.1959 230.821C69.7982 230.821 69.4443 230.749 69.1342 230.604C68.824 230.457 68.5802 230.249 68.4026 229.979C68.2251 229.709 68.1363 229.389 68.1363 229.017H69.0028C69.0028 229.223 69.0537 229.403 69.1555 229.557C69.2596 229.708 69.4017 229.827 69.5816 229.912C69.7615 229.997 69.9663 230.04 70.1959 230.04C70.4493 230.04 70.6647 229.986 70.8423 229.88C71.0198 229.773 71.1548 229.617 71.2471 229.411C71.3418 229.203 71.3891 228.948 71.3891 228.648V223.449ZM75.5262 230.849C75.1806 230.849 74.8669 230.784 74.5852 230.654C74.3034 230.521 74.0797 230.331 73.914 230.082C73.7483 229.831 73.6654 229.528 73.6654 229.173C73.6654 228.861 73.727 228.607 73.8501 228.413C73.9732 228.217 74.1377 228.063 74.3437 227.952C74.5496 227.84 74.7769 227.757 75.0255 227.703C75.2764 227.646 75.5286 227.601 75.7819 227.568C76.1133 227.525 76.382 227.493 76.588 227.472C76.7963 227.448 76.9478 227.409 77.0425 227.355C77.1396 227.301 77.1881 227.206 77.1881 227.071V227.042C77.1881 226.692 77.0923 226.42 76.9005 226.226C76.7111 226.032 76.4235 225.935 76.0376 225.935C75.6375 225.935 75.3238 226.022 75.0965 226.197C74.8692 226.372 74.7094 226.56 74.6171 226.758L73.8217 226.474C73.9637 226.143 74.1531 225.885 74.3898 225.7C74.629 225.513 74.8894 225.383 75.1711 225.31C75.4552 225.234 75.7345 225.196 76.0092 225.196C76.1843 225.196 76.3856 225.217 76.6129 225.26C76.8425 225.3 77.0638 225.384 77.2769 225.512C77.4924 225.64 77.6711 225.833 77.8131 226.091C77.9552 226.349 78.0262 226.694 78.0262 227.128V230.721H77.1881V229.983H77.1455C77.0887 230.101 76.994 230.228 76.8614 230.363C76.7289 230.498 76.5525 230.613 76.3323 230.707C76.1121 230.802 75.8434 230.849 75.5262 230.849ZM75.654 230.096C75.9855 230.096 76.2648 230.031 76.4921 229.901C76.7218 229.771 76.8946 229.603 77.0106 229.397C77.129 229.191 77.1881 228.974 77.1881 228.747V227.98C77.1526 228.023 77.0745 228.062 76.9538 228.097C76.8354 228.13 76.6981 228.16 76.5418 228.186C76.3879 228.21 76.2376 228.231 76.0908 228.25C75.9464 228.266 75.8292 228.281 75.7393 228.292C75.5215 228.321 75.3179 228.367 75.1285 228.431C74.9415 228.493 74.7899 228.586 74.6739 228.711C74.5603 228.835 74.5035 229.003 74.5035 229.216C74.5035 229.507 74.6112 229.727 74.8266 229.876C75.0444 230.023 75.3202 230.096 75.654 230.096ZM80.3939 227.44V230.721H79.5559V225.267H80.3655V226.119H80.4365C80.5644 225.842 80.7585 225.62 81.0189 225.452C81.2793 225.281 81.6155 225.196 82.0274 225.196C82.3968 225.196 82.7199 225.272 82.9969 225.423C83.2739 225.572 83.4893 225.8 83.6432 226.105C83.7971 226.408 83.874 226.792 83.874 227.256V230.721H83.036V227.312C83.036 226.884 82.9247 226.55 82.7022 226.311C82.4796 226.069 82.1742 225.949 81.786 225.949C81.5185 225.949 81.2793 226.007 81.0686 226.123C80.8603 226.239 80.6958 226.408 80.575 226.631C80.4543 226.853 80.3939 227.123 80.3939 227.44Z" fill="#4F4F4F"/>
<path d="M112.433 230.721V223.449H116.794V224.23H113.314V226.687H116.467V227.469H113.314V230.721H112.433ZM120.075 230.835C119.549 230.835 119.096 230.719 118.715 230.487C118.336 230.253 118.044 229.926 117.838 229.507C117.634 229.086 117.532 228.595 117.532 228.037C117.532 227.478 117.634 226.986 117.838 226.56C118.044 226.131 118.33 225.797 118.697 225.558C119.067 225.317 119.497 225.196 119.99 225.196C120.274 225.196 120.554 225.243 120.831 225.338C121.108 225.433 121.361 225.586 121.588 225.8C121.815 226.01 121.996 226.29 122.131 226.638C122.266 226.986 122.334 227.414 122.334 227.923V228.278H118.129V227.554H121.481C121.481 227.246 121.42 226.971 121.297 226.73C121.176 226.488 121.003 226.298 120.778 226.158C120.556 226.019 120.293 225.949 119.99 225.949C119.656 225.949 119.367 226.032 119.123 226.197C118.882 226.361 118.696 226.574 118.566 226.836C118.436 227.099 118.371 227.381 118.371 227.682V228.165C118.371 228.577 118.442 228.926 118.584 229.212C118.728 229.496 118.928 229.713 119.184 229.862C119.439 230.009 119.737 230.082 120.075 230.082C120.295 230.082 120.494 230.051 120.672 229.99C120.852 229.926 121.007 229.831 121.137 229.706C121.267 229.578 121.368 229.419 121.439 229.23L122.248 229.457C122.163 229.732 122.02 229.973 121.819 230.182C121.617 230.388 121.369 230.549 121.073 230.665C120.777 230.778 120.444 230.835 120.075 230.835ZM123.722 230.721V223.449H124.56V226.133H124.631C124.693 226.039 124.778 225.918 124.887 225.771C124.998 225.622 125.157 225.489 125.363 225.373C125.571 225.255 125.853 225.196 126.208 225.196C126.667 225.196 127.072 225.311 127.422 225.54C127.773 225.77 128.046 226.095 128.243 226.517C128.439 226.938 128.537 227.435 128.537 228.008C128.537 228.586 128.439 229.087 128.243 229.51C128.046 229.932 127.774 230.259 127.426 230.491C127.078 230.72 126.677 230.835 126.222 230.835C125.872 230.835 125.591 230.777 125.38 230.661C125.17 230.543 125.008 230.409 124.894 230.26C124.78 230.108 124.693 229.983 124.631 229.883H124.532V230.721H123.722ZM124.546 227.994C124.546 228.406 124.606 228.769 124.727 229.084C124.848 229.397 125.024 229.642 125.256 229.819C125.488 229.995 125.772 230.082 126.108 230.082C126.459 230.082 126.751 229.99 126.986 229.805C127.222 229.618 127.4 229.367 127.518 229.052C127.639 228.735 127.699 228.382 127.699 227.994C127.699 227.611 127.64 227.265 127.522 226.957C127.406 226.647 127.229 226.402 126.993 226.222C126.758 226.04 126.464 225.949 126.108 225.949C125.768 225.949 125.481 226.035 125.249 226.208C125.017 226.378 124.842 226.618 124.723 226.925C124.605 227.231 124.546 227.587 124.546 227.994Z" fill="#4F4F4F"/>
<path d="M149.773 223.449H150.824L153.296 229.486H153.381L155.853 223.449H156.904V230.721H156.08V225.196H156.009L153.736 230.721H152.941L150.668 225.196H150.597V230.721H149.773V223.449ZM160.161 230.849C159.816 230.849 159.502 230.784 159.22 230.654C158.939 230.521 158.715 230.331 158.549 230.082C158.383 229.831 158.3 229.528 158.3 229.173C158.3 228.861 158.362 228.607 158.485 228.413C158.608 228.217 158.773 228.063 158.979 227.952C159.185 227.84 159.412 227.757 159.661 227.703C159.912 227.646 160.164 227.601 160.417 227.568C160.748 227.525 161.017 227.493 161.223 227.472C161.431 227.448 161.583 227.409 161.678 227.355C161.775 227.301 161.823 227.206 161.823 227.071V227.042C161.823 226.692 161.727 226.42 161.536 226.226C161.346 226.032 161.059 225.935 160.673 225.935C160.273 225.935 159.959 226.022 159.732 226.197C159.504 226.372 159.345 226.56 159.252 226.758L158.457 226.474C158.599 226.143 158.788 225.885 159.025 225.7C159.264 225.513 159.524 225.383 159.806 225.31C160.09 225.234 160.37 225.196 160.644 225.196C160.819 225.196 161.021 225.217 161.248 225.26C161.478 225.3 161.699 225.384 161.912 225.512C162.127 225.64 162.306 225.833 162.448 226.091C162.59 226.349 162.661 226.694 162.661 227.128V230.721H161.823V229.983H161.781C161.724 230.101 161.629 230.228 161.497 230.363C161.364 230.498 161.188 230.613 160.967 230.707C160.747 230.802 160.479 230.849 160.161 230.849ZM160.289 230.096C160.621 230.096 160.9 230.031 161.127 229.901C161.357 229.771 161.53 229.603 161.646 229.397C161.764 229.191 161.823 228.974 161.823 228.747V227.98C161.788 228.023 161.71 228.062 161.589 228.097C161.47 228.13 161.333 228.16 161.177 228.186C161.023 228.21 160.873 228.231 160.726 228.25C160.581 228.266 160.464 228.281 160.374 228.292C160.157 228.321 159.953 228.367 159.764 228.431C159.577 228.493 159.425 228.586 159.309 228.711C159.195 228.835 159.139 229.003 159.139 229.216C159.139 229.507 159.246 229.727 159.462 229.876C159.68 230.023 159.955 230.096 160.289 230.096ZM164.191 230.721V225.267H165.001V226.091H165.057C165.157 225.821 165.337 225.602 165.597 225.434C165.858 225.266 166.151 225.182 166.478 225.182C166.539 225.182 166.616 225.183 166.709 225.185C166.801 225.188 166.871 225.191 166.918 225.196V226.048C166.89 226.041 166.825 226.03 166.723 226.016C166.623 226 166.518 225.991 166.407 225.991C166.142 225.991 165.905 226.047 165.697 226.158C165.491 226.267 165.327 226.419 165.207 226.613C165.088 226.805 165.029 227.024 165.029 227.27V230.721H164.191Z" fill="#4F4F4F"/>
<path d="M187.916 230.721H186.993L189.663 223.449H190.572L193.243 230.721H192.32L190.146 224.599H190.089L187.916 230.721ZM188.257 227.881H191.979V228.662H188.257V227.881ZM194.262 232.767V225.267H195.072V226.133H195.171C195.233 226.039 195.318 225.918 195.427 225.771C195.538 225.622 195.697 225.489 195.903 225.373C196.111 225.255 196.393 225.196 196.748 225.196C197.207 225.196 197.612 225.311 197.962 225.54C198.313 225.77 198.586 226.095 198.783 226.517C198.979 226.938 199.077 227.435 199.077 228.008C199.077 228.586 198.979 229.087 198.783 229.51C198.586 229.932 198.314 230.259 197.966 230.491C197.618 230.72 197.217 230.835 196.762 230.835C196.412 230.835 196.131 230.777 195.92 230.661C195.71 230.543 195.547 230.409 195.434 230.26C195.32 230.108 195.233 229.983 195.171 229.883H195.1V232.767H194.262ZM195.086 227.994C195.086 228.406 195.146 228.769 195.267 229.084C195.388 229.397 195.564 229.642 195.796 229.819C196.028 229.995 196.312 230.082 196.648 230.082C196.999 230.082 197.291 229.99 197.525 229.805C197.762 229.618 197.94 229.367 198.058 229.052C198.179 228.735 198.239 228.382 198.239 227.994C198.239 227.611 198.18 227.265 198.062 226.957C197.946 226.647 197.769 226.402 197.533 226.222C197.298 226.04 197.003 225.949 196.648 225.949C196.307 225.949 196.021 226.035 195.789 226.208C195.557 226.378 195.382 226.618 195.263 226.925C195.145 227.231 195.086 227.587 195.086 227.994ZM200.356 230.721V225.267H201.165V226.091H201.222C201.322 225.821 201.502 225.602 201.762 225.434C202.022 225.266 202.316 225.182 202.643 225.182C202.704 225.182 202.781 225.183 202.873 225.185C202.966 225.188 203.036 225.191 203.083 225.196V226.048C203.055 226.041 202.989 226.03 202.888 226.016C202.788 226 202.683 225.991 202.572 225.991C202.306 225.991 202.07 226.047 201.861 226.158C201.655 226.267 201.492 226.419 201.371 226.613C201.253 226.805 201.194 227.024 201.194 227.27V230.721H200.356Z" fill="#4F4F4F"/>
<path d="M224.456 223.449H225.508L227.979 229.486H228.064L230.536 223.449H231.587V230.721H230.763V225.196H230.692L228.42 230.721H227.624L225.351 225.196H225.28V230.721H224.456V223.449ZM234.844 230.849C234.499 230.849 234.185 230.784 233.903 230.654C233.622 230.521 233.398 230.331 233.232 230.082C233.066 229.831 232.984 229.528 232.984 229.173C232.984 228.861 233.045 228.607 233.168 228.413C233.291 228.217 233.456 228.063 233.662 227.952C233.868 227.84 234.095 227.757 234.344 227.703C234.595 227.646 234.847 227.601 235.1 227.568C235.432 227.525 235.7 227.493 235.906 227.472C236.115 227.448 236.266 227.409 236.361 227.355C236.458 227.301 236.506 227.206 236.506 227.071V227.042C236.506 226.692 236.41 226.42 236.219 226.226C236.029 226.032 235.742 225.935 235.356 225.935C234.956 225.935 234.642 226.022 234.415 226.197C234.187 226.372 234.028 226.56 233.935 226.758L233.14 226.474C233.282 226.143 233.471 225.885 233.708 225.7C233.947 225.513 234.208 225.383 234.489 225.31C234.773 225.234 235.053 225.196 235.327 225.196C235.503 225.196 235.704 225.217 235.931 225.26C236.161 225.3 236.382 225.384 236.595 225.512C236.811 225.64 236.989 225.833 237.131 226.091C237.273 226.349 237.344 226.694 237.344 227.128V230.721H236.506V229.983H236.464C236.407 230.101 236.312 230.228 236.18 230.363C236.047 230.498 235.871 230.613 235.651 230.707C235.43 230.802 235.162 230.849 234.844 230.849ZM234.972 230.096C235.304 230.096 235.583 230.031 235.81 229.901C236.04 229.771 236.213 229.603 236.329 229.397C236.447 229.191 236.506 228.974 236.506 228.747V227.98C236.471 228.023 236.393 228.062 236.272 228.097C236.154 228.13 236.016 228.16 235.86 228.186C235.706 228.21 235.556 228.231 235.409 228.25C235.265 228.266 235.147 228.281 235.057 228.292C234.84 228.321 234.636 228.367 234.447 228.431C234.26 228.493 234.108 228.586 233.992 228.711C233.878 228.835 233.822 229.003 233.822 229.216C233.822 229.507 233.929 229.727 234.145 229.876C234.363 230.023 234.638 230.096 234.972 230.096ZM238.874 230.721V225.267H239.712V230.721H238.874ZM239.3 224.358C239.137 224.358 238.996 224.302 238.878 224.191C238.762 224.08 238.704 223.946 238.704 223.79C238.704 223.633 238.762 223.5 238.878 223.388C238.996 223.277 239.137 223.221 239.3 223.221C239.464 223.221 239.603 223.277 239.719 223.388C239.838 223.5 239.897 223.633 239.897 223.79C239.897 223.946 239.838 224.08 239.719 224.191C239.603 224.302 239.464 224.358 239.3 224.358Z" fill="#4F4F4F"/>
<path d="M265.576 223.449H266.456V228.648C266.456 229.112 266.371 229.506 266.201 229.83C266.03 230.154 265.79 230.401 265.48 230.569C265.17 230.737 264.804 230.821 264.382 230.821C263.985 230.821 263.631 230.749 263.321 230.604C263.011 230.457 262.767 230.249 262.589 229.979C262.412 229.709 262.323 229.389 262.323 229.017H263.189C263.189 229.223 263.24 229.403 263.342 229.557C263.446 229.708 263.588 229.827 263.768 229.912C263.948 229.997 264.153 230.04 264.382 230.04C264.636 230.04 264.851 229.986 265.029 229.88C265.206 229.773 265.341 229.617 265.434 229.411C265.528 229.203 265.576 228.948 265.576 228.648V223.449ZM271.545 228.491V225.267H272.383V230.721H271.545V229.798H271.488C271.36 230.075 271.162 230.311 270.892 230.505C270.622 230.697 270.281 230.792 269.869 230.792C269.528 230.792 269.225 230.718 268.96 230.569C268.695 230.417 268.486 230.19 268.335 229.887C268.183 229.582 268.108 229.197 268.108 228.733V225.267H268.946V228.676C268.946 229.074 269.057 229.391 269.28 229.628C269.504 229.864 269.791 229.983 270.139 229.983C270.347 229.983 270.559 229.93 270.775 229.823C270.992 229.716 271.175 229.553 271.321 229.333C271.471 229.113 271.545 228.832 271.545 228.491ZM274.756 227.44V230.721H273.918V225.267H274.728V226.119H274.799C274.927 225.842 275.121 225.62 275.381 225.452C275.642 225.281 275.978 225.196 276.39 225.196C276.759 225.196 277.082 225.272 277.359 225.423C277.636 225.572 277.852 225.8 278.006 226.105C278.159 226.408 278.236 226.792 278.236 227.256V230.721H277.398V227.312C277.398 226.884 277.287 226.55 277.064 226.311C276.842 226.069 276.537 225.949 276.148 225.949C275.881 225.949 275.642 226.007 275.431 226.123C275.223 226.239 275.058 226.408 274.937 226.631C274.817 226.853 274.756 227.123 274.756 227.44Z" fill="#4F4F4F"/>
<path d="M109.84 118.985C109.84 124.21 105.603 128.445 100.377 128.445C95.1505 128.445 90.914 124.21 90.914 118.985C90.914 113.761 95.1505 109.525 100.377 109.525C105.603 109.525 109.84 113.761 109.84 118.985Z" fill="#63ABFD" stroke="#165BAA"/>
<path d="M124.784 159.537C124.784 162.012 122.777 164.017 120.302 164.017C117.827 164.017 115.821 162.012 115.821 159.537C115.821 157.063 117.827 155.057 120.302 155.057C122.777 155.057 124.784 157.063 124.784 159.537Z" fill="#63ABFD" stroke="#165BAA"/>
<path d="M212.314 173.055C212.314 175.529 210.308 177.535 207.833 177.535C205.357 177.535 203.351 175.529 203.351 173.055C203.351 170.581 205.357 168.575 207.833 168.575C210.308 168.575 212.314 170.581 212.314 173.055Z" fill="#63ABFD" stroke="#165BAA"/>
<path d="M208.044 129.301C208.044 132.757 205.241 135.56 201.784 135.56C198.326 135.56 195.523 132.757 195.523 129.301C195.523 125.845 198.326 123.042 201.784 123.042C205.241 123.042 208.044 125.845 208.044 129.301Z" fill="#63ABFD" stroke="#165BAA"/>
<path d="M161.077 196.177C161.077 199.633 158.274 202.435 154.816 202.435C151.359 202.435 148.556 199.633 148.556 196.177C148.556 192.72 151.359 189.918 154.816 189.918C158.274 189.918 161.077 192.72 161.077 196.177Z" fill="#63ABFD" stroke="#165BAA"/>
<path d="M85.6442 196.177C85.6442 199.633 82.8414 202.435 79.3837 202.435C75.926 202.435 73.1233 199.633 73.1233 196.177C73.1233 192.72 75.926 189.918 79.3837 189.918C82.8414 189.918 85.6442 192.72 85.6442 196.177Z" fill="#63ABFD" stroke="#165BAA"/>
<path d="M269.956 147.087C269.956 150.544 267.153 153.346 263.695 153.346C260.238 153.346 257.435 150.544 257.435 147.087C257.435 143.631 260.238 140.828 263.695 140.828C267.153 140.828 269.956 143.631 269.956 147.087Z" fill="#63ABFD" stroke="#165BAA"/>
<defs>
<filter id="filter0_d_184_7562" x="0" y="0" width="326" height="306" filterUnits="userSpaceOnUse" color-interpolation-filters="sRGB">
<feFlood flood-opacity="0" result="BackgroundImageFix"/>
<feColorMatrix in="SourceAlpha" type="matrix" values="0 0 0 0 0 0 0 0 0 0 0 0 0 0 0 0 0 0 127 0" result="hardAlpha"/>
<feOffset dy="2"/>
<feGaussianBlur stdDeviation="5"/>
<feComposite in2="hardAlpha" operator="out"/>
<feColorMatrix type="matrix" values="0 0 0 0 0 0 0 0 0 0 0 0 0 0 0 0 0 0 0.1 0"/>
<feBlend mode="normal" in2="BackgroundImageFix" result="effect1_dropShadow_184_7562"/>
<feBlend mode="normal" in="SourceGraphic" in2="effect1_dropShadow_184_7562" result="shape"/>
</filter>
</defs>
</svg>
