<svg width="26" height="25" viewBox="0 0 26 25" fill="none" xmlns="http://www.w3.org/2000/svg">
<path d="M13 2V6.43021" stroke="#09ADE2" stroke-width="2.35846" stroke-linecap="round" stroke-linejoin="round"/>
<path d="M4.20001 6.43024L6.95001 9.19912" stroke="#09ADE2" stroke-width="2.35846" stroke-linecap="round" stroke-linejoin="round"/>
<path d="M19.05 9.19912L21.8 6.43024" stroke="#09ADE2" stroke-width="2.35846" stroke-linecap="round" stroke-linejoin="round"/>
<path d="M3.10004 16.3981H6.40004" stroke="#09ADE2" stroke-width="2.35846" stroke-linecap="round" stroke-linejoin="round"/>
<path d="M13 16.3981L14.1 9.75281" stroke="#09ADE2" stroke-width="2.35846" stroke-linecap="round" stroke-linejoin="round"/>
<path d="M19.6 16.3981H22.9" stroke="#09ADE2" stroke-width="2.35846" stroke-linecap="round" stroke-linejoin="round"/>
<path d="M9.15 19.7219H4.2C2.8186 17.8707 2 15.5693 2 13.0755C2 6.95867 6.92487 2 13 2C19.0751 2 24 6.95867 24 13.0755C24 15.5693 23.1814 17.8707 21.8 19.7219L16.85 19.7208" stroke="#09ADE2" stroke-width="2.35846" stroke-linecap="round" stroke-linejoin="round"/>
<path d="M13 23.0434C14.8226 23.0434 16.3 21.5559 16.3 19.7208C16.3 17.8857 14.8226 16.3981 13 16.3981C11.1774 16.3981 9.70001 17.8857 9.70001 19.7208C9.70001 21.5559 11.1774 23.0434 13 23.0434Z" stroke="#09ADE2" stroke-width="2.35846" stroke-linecap="round" stroke-linejoin="round"/>
</svg>
