<svg width="22" height="24" viewBox="0 0 22 24" fill="none" xmlns="http://www.w3.org/2000/svg">
<path d="M18.6 12V5.12338C18.6 4.94834 18.5305 4.78047 18.4067 4.65669L14.9433 1.19331C14.8195 1.06953 14.6517 1 14.4766 1H1.66C1.29549 1 1 1.29549 1 1.66V22.34C1 22.7045 1.29549 23 1.66 23H8.7" stroke="white" stroke-width="1.92997" stroke-linecap="round" stroke-linejoin="round"/>
<path d="M5.40002 9.80002H14.2M5.40002 5.40002H9.80002M5.40002 14.2H8.70002" stroke="white" stroke-width="1.92997" stroke-linecap="round" stroke-linejoin="round"/>
<path d="M19.15 21.35L20.8 23" stroke="white" stroke-width="1.92997" stroke-linecap="round" stroke-linejoin="round"/>
<path d="M13.1 18.6C13.1 20.4226 14.5774 21.9 16.4 21.9C17.3129 21.9 18.1391 21.5293 18.7365 20.9304C19.332 20.3334 19.7 19.5097 19.7 18.6C19.7 16.7775 18.2226 15.3 16.4 15.3C14.5774 15.3 13.1 16.7775 13.1 18.6Z" stroke="white" stroke-width="1.92997" stroke-linecap="round" stroke-linejoin="round"/>
<path d="M14.2 1V4.74C14.2 5.10451 14.4954 5.4 14.86 5.4H18.6" stroke="white" stroke-width="1.92997" stroke-linecap="round" stroke-linejoin="round"/>
</svg>
