<svg width="16" height="16" viewBox="0 0 16 16" fill="none" xmlns="http://www.w3.org/2000/svg">
<g clip-path="url(#clip0_172_1230)">
<path d="M1.01763 14.9667L1.01547 14.9861L1.03488 14.984L3.94206 14.6618L3.94034 14.6462L3.95139 14.6573L12.2011 6.40792L12.2121 6.39687L12.2011 6.38583L9.61452 3.79926L9.60347 3.78822L9.59242 3.79926L1.34586 12.0458L1.34276 12.0427L1.34138 12.0551L1.01763 14.9667ZM14.2309 0.596982L14.2419 0.585938L14.2309 0.596986L15.403 1.76917L15.4141 1.75812L15.403 1.76918C16.1782 2.54401 16.1782 3.80037 15.4034 4.5752L4.39224 15.5863L0.830824 15.9798C0.802931 15.9828 0.775689 15.9844 0.748469 15.9844C0.317969 15.9844 -0.0287084 15.6086 0.0202479 15.1686L0.416517 11.6047L11.4245 0.596678C11.8121 0.209409 12.3199 0.015625 12.8278 0.015625C13.3357 0.015625 13.8436 0.209409 14.2309 0.596982ZM12.8859 5.70074L12.8969 5.71178L12.908 5.70074L14.7183 3.89042C15.1141 3.49432 15.1141 2.85006 14.7183 2.45396L14.7072 2.465L14.7183 2.45395L13.5461 1.28176L13.5461 1.28175C13.3541 1.09009 13.0992 0.984375 12.8278 0.984375C12.5565 0.984375 12.3013 1.09008 12.1096 1.28176L10.2993 3.09208L10.2882 3.10313L10.2993 3.11417L12.8859 5.70074Z" fill="#6A6A65" stroke="#6A6A65" stroke-width="0.03125"/>
</g>
<defs>
<clipPath id="clip0_172_1230">
<rect width="16" height="16" fill="white"/>
</clipPath>
</defs>
</svg>
