<svg width="26" height="26" viewBox="0 0 26 26" fill="none" xmlns="http://www.w3.org/2000/svg">
<path d="M13 2C6.92487 2 2 6.92487 2 13C2 19.0751 6.92487 24 13 24C19.0751 24 24 19.0751 24 13C24 6.92487 19.0751 2 13 2Z" stroke="white" stroke-width="2.17669" stroke-linecap="round" stroke-linejoin="round"/>
<path d="M4.49811 19.9802C4.49811 19.9802 6.95003 16.85 13 16.85C19.05 16.85 21.502 19.9802 21.502 19.9802" stroke="white" stroke-width="2.17669" stroke-linecap="round" stroke-linejoin="round"/>
<path d="M13 13C14.8226 13 16.3 11.5226 16.3 9.69996C16.3 7.87743 14.8226 6.39996 13 6.39996C11.1774 6.39996 9.70001 7.87743 9.70001 9.69996C9.70001 11.5226 11.1774 13 13 13Z" stroke="white" stroke-width="2.17669" stroke-linecap="round" stroke-linejoin="round"/>
</svg>
