<svg width="16" height="16" viewBox="0 0 16 16" fill="none" xmlns="http://www.w3.org/2000/svg">
<g clip-path="url(#clip0_172_1234)">
<path d="M2.82667 2.98438H2.84375H13.1562H13.1733L13.1718 3.00139L12.1406 14.545L12.1406 14.5451C12.1299 14.6736 12.0713 14.7934 11.9763 14.8805C11.8814 14.9678 11.757 15.016 11.6281 15.0156L2.82667 2.98438ZM2.82667 2.98438L2.82819 3.00139L3.85943 14.545C3.85943 14.5451 3.85943 14.5451 3.85943 14.5451L2.82667 2.98438ZM11.4875 2.00938L11.4792 2.01562H11.5H14.75C14.8122 2.01562 14.8718 2.04032 14.9157 2.08427C14.9597 2.12823 14.9844 2.18784 14.9844 2.25V2.75C14.9844 2.81216 14.9597 2.87177 14.9157 2.91573C14.8718 2.95968 14.8122 2.98438 14.75 2.98438H14.1594H14.1451L14.1438 2.99861L13.1063 14.633C13.0731 15.0021 12.903 15.3455 12.6295 15.5955C12.3559 15.8456 11.9987 15.9843 11.6281 15.9844H4.37188C4.00125 15.9843 3.64406 15.8456 3.37052 15.5955C3.09698 15.3455 2.92689 15.0021 2.89369 14.633L1.85619 2.99861L1.85492 2.98438H1.84062H1.25C1.18784 2.98438 1.12823 2.95968 1.08427 2.91573C1.04032 2.87177 1.01562 2.81216 1.01562 2.75V2.25C1.01562 2.18784 1.04032 2.12823 1.08427 2.08427C1.12823 2.04032 1.18784 2.01562 1.25 2.01562H4.5V2.02604L4.5125 2.00938L5.5625 0.609375C5.70077 0.425021 5.88005 0.275391 6.08617 0.172335C6.29228 0.0692779 6.51956 0.015625 6.75 0.015625H9.25C9.48044 0.015625 9.70772 0.0692779 9.91383 0.172335C10.1199 0.275391 10.2992 0.425021 10.4375 0.609375L11.4875 2.00938ZM6.33753 1.19059L6.3375 1.19063L5.7375 1.99063L5.71875 2.01562H5.75H10.25H10.2812L10.2625 1.99063L9.6625 1.19062L9.66247 1.19059C9.61428 1.12674 9.55198 1.07491 9.48043 1.03914C9.40889 1.00337 9.33004 0.984623 9.25005 0.984375H9.25L6.75 0.984375L6.74995 0.984375C6.66996 0.984623 6.59111 1.00337 6.51957 1.03914C6.44802 1.07491 6.38572 1.12674 6.33753 1.19059Z" fill="#6A6A65" stroke="#6A6A65" stroke-width="0.03125"/>
</g>
<defs>
<clipPath id="clip0_172_1234">
<rect width="16" height="16" fill="white"/>
</clipPath>
</defs>
</svg>
